<?xml version="1.0" standalone="no"?>
<!DOCTYPE svg PUBLIC "-//W3C//DTD SVG 1.1//EN" "http://www.w3.org/Graphics/SVG/1.1/DTD/svg11.dtd" >
<svg>
<metadata>
Created by FontForge 20090622 at Fri Aug 11 23:52:19 2017
 By deploy user
Copyright &#194;&#169; 2016 by Chris Simpson.
</metadata>
<defs>
<font id="Metropolis-Black" horiz-adv-x="674" >
  <font-face 
    font-family="Metropolis Black"
    font-weight="900"
    font-stretch="normal"
    units-per-em="1000"
    panose-1="0 0 10 0 0 0 0 0 0 0"
    ascent="795"
    descent="-205"
    x-height="517"
    cap-height="687"
    bbox="-242 -301 1223 987"
    underline-thickness="20"
    underline-position="-113"
    unicode-range="U+0020-U+2212"
  />
<missing-glyph horiz-adv-x="500" 
d="M410 795v-1000h-317v1000h317zM333 728h-165v-33h65v-37h-66v-33h166v33h-66v37h66v33zM267 599h-100v-104h166v34h-66v70zM233 565v-36h-33v36h33zM333 468h-166v-33h66v-37h-66v-33h100v70h66v33zM333 408h-33v-66h-133v-34h166v100zM333 286h-100v-56h34v23h33v-47
h-100v80h-33v-113h166v113zM333 113h-166v-113h166v113zM300 80v-47h-100v47h100zM333 -23h-166v-33h70l-70 -47v-33h166v33h-102l70 47h32v33z" />
    <glyph glyph-name=".notdef" horiz-adv-x="500" 
d="M410 795v-1000h-317v1000h317zM333 728h-165v-33h65v-37h-66v-33h166v33h-66v37h66v33zM267 599h-100v-104h166v34h-66v70zM233 565v-36h-33v36h33zM333 468h-166v-33h66v-37h-66v-33h100v70h66v33zM333 408h-33v-66h-133v-34h166v100zM333 286h-100v-56h34v23h33v-47
h-100v80h-33v-113h166v113zM333 113h-166v-113h166v113zM300 80v-47h-100v47h100zM333 -23h-166v-33h70l-70 -47v-33h166v33h-102l70 47h32v33z" />
    <glyph glyph-name=".null" horiz-adv-x="0" 
 />
    <glyph glyph-name="nonmarkingreturn" horiz-adv-x="333" 
 />
    <glyph glyph-name="space" unicode=" " horiz-adv-x="272" 
 />
    <glyph glyph-name="exclam" unicode="!" horiz-adv-x="329" 
d="M102 274l-43 413h215l-42 -413h-130zM167 -12q-50 0 -84 34.5t-34 83.5q0 46 34 79.5t84 33.5q46 0 79.5 -34t33.5 -79q0 -49 -33 -83.5t-80 -34.5z" />
    <glyph glyph-name="quotedbl" unicode="&#x22;" horiz-adv-x="584" 
d="M118 370q-62 170 -62 236q0 40 28.5 69.5t67.5 29.5t67.5 -29.5t28.5 -69.5q0 -66 -62 -236h-68zM398 370q-62 170 -62 236q0 40 28.5 69.5t67.5 29.5t67.5 -29.5t28.5 -69.5q0 -66 -62 -236h-68z" />
    <glyph glyph-name="numbersign" unicode="#" horiz-adv-x="676" 
d="M617 404h-83l-31 -123h83l-33 -134h-84l-37 -147h-135l37 147h-92l-37 -147h-135l37 147h-81l33 134h82l31 123h-85l33 134h85l38 149h135l-38 -149h92l38 149h135l-38 -149h83zM368 281l31 123h-92l-31 -123h92z" />
    <glyph glyph-name="dollar" unicode="$" horiz-adv-x="646" 
d="M619 218q0 -99 -65.5 -159.5t-179.5 -69.5v-63h-110v66q-153 20 -256 112l108 129q107 -84 227 -84q81 0 81 48q0 23 -20.5 32.5t-98.5 27.5q-51 12 -85.5 22t-71 27.5t-58 38.5t-35.5 53.5t-14 74.5q0 92 60 151.5t163 71.5v63h110v-63q133 -15 226 -90l-97 -137
q-96 69 -196 69q-34 0 -52 -12.5t-18 -32.5q0 -26 23.5 -38.5t98.5 -28.5q66 -14 109 -29t80 -38.5t54 -58t17 -82.5z" />
    <glyph glyph-name="percent" unicode="%" horiz-adv-x="864" 
d="M210 338q-79 0 -129 50.5t-50 127.5q0 75 49.5 126.5t129.5 51.5q81 0 130.5 -51.5t49.5 -126.5q0 -77 -50.5 -127.5t-129.5 -50.5zM125 0l483 687h132l-483 -687h-132zM210 445q26 0 42 18.5t16 52.5q0 32 -16.5 51t-41.5 19t-41 -18.5t-16 -51.5t16 -52t41 -19z
M654 -11q-80 0 -130 51.5t-50 126.5q0 77 50.5 128t129.5 51q80 0 129.5 -51.5t49.5 -127.5t-50 -127t-129 -51zM654 97q26 0 42 18.5t16 51.5t-16.5 52t-41.5 19q-26 0 -42 -18.5t-16 -52.5q0 -32 16.5 -51t41.5 -19z" />
    <glyph glyph-name="ampersand" unicode="&#x26;" horiz-adv-x="685" 
d="M668 46l-153 -68l-64 68q-85 -58 -190 -58q-107 0 -174 54t-67 149q0 67 33 110.5t110 78.5q-25 38 -34 66t-9 66q0 75 61.5 129.5t146.5 54.5q95 0 155 -51.5t60 -132.5q0 -51 -32.5 -87t-116.5 -78l73 -82q33 50 58 107l134 -65q-46 -88 -94 -150zM332 567
q-22 0 -37.5 -16t-15.5 -39q0 -33 35 -74q40 16 55 31t15 43q0 24 -14.5 39.5t-37.5 15.5zM288 129q30 0 66 21q-72 78 -108 121q-35 -27 -35 -66q0 -34 22 -55t55 -21z" />
    <glyph glyph-name="quotesingle" unicode="'" horiz-adv-x="304" 
d="M118 370q-62 170 -62 236q0 40 28.5 69.5t67.5 29.5t67.5 -29.5t28.5 -69.5q0 -66 -62 -236h-68z" />
    <glyph glyph-name="parenleft" unicode="(" horiz-adv-x="401" 
d="M277 -170q-110 73 -172 186.5t-62 248.5t61.5 248.5t172.5 186.5l97 -102q-75 -77 -108.5 -155.5t-33.5 -177.5t33.5 -177t108.5 -155z" />
    <glyph glyph-name="parenright" unicode=")" horiz-adv-x="401" 
d="M124 -170l-97 103q75 77 108.5 155t33.5 177t-33.5 177.5t-108.5 155.5l97 102q111 -73 172.5 -186.5t61.5 -248.5t-62 -248.5t-172 -186.5z" />
    <glyph glyph-name="asterisk" unicode="*" horiz-adv-x="390" 
d="M196 325q-19 0 -33 13t-14 30q0 18 11 57.5t13 50.5q-11 -8 -38 -37t-42 -38t-33 -3.5t-28 22.5t-5.5 35.5t19.5 26.5q15 9 54.5 18t50.5 14q-11 4 -50.5 14t-54.5 19q-15 8 -19.5 26.5t5.5 35.5t28 22.5t33 -3.5t42.5 -38.5t37.5 -37.5q-2 12 -13.5 51t-11.5 57
q0 17 14 30t33 13t33 -13t14 -30q0 -18 -12 -57t-14 -51q11 8 38.5 37t42.5 38t33 3.5t28 -22.5t5.5 -35.5t-19.5 -26.5q-15 -9 -54.5 -18t-51.5 -14q11 -4 51 -14t55 -19q15 -8 19.5 -26.5t-5.5 -35.5t-28 -22.5t-33 3.5t-42.5 38.5t-37.5 37.5q2 -12 14 -51t12 -57
q0 -17 -14 -30t-33 -13z" />
    <glyph glyph-name="plus" unicode="+" horiz-adv-x="609" 
d="M554 408v-149h-169v-175h-160v175h-170v149h170v175h160v-175h169z" />
    <glyph glyph-name="comma" unicode="," horiz-adv-x="312" 
d="M148 -155l-63 48q52 42 67 95q-45 0 -77.5 33.5t-32.5 80.5q0 48 33.5 82.5t79.5 34.5q52 0 85 -43t33 -111q0 -55 -33 -113t-92 -107z" />
    <glyph glyph-name="hyphen" unicode="-" horiz-adv-x="360" 
d="M38 199v158h284v-158h-284z" />
    <glyph glyph-name="period" unicode="." horiz-adv-x="314" 
d="M160 -12q-50 0 -84 34.5t-34 83.5q0 46 34 79.5t84 33.5q46 0 79.5 -34t33.5 -79q0 -49 -33 -83.5t-80 -34.5z" />
    <glyph glyph-name="slash" unicode="/" horiz-adv-x="493" 
d="M-29 -74l340 817h200l-340 -817h-200z" />
    <glyph glyph-name="zero" unicode="0" horiz-adv-x="718" 
d="M359 -12q-143 0 -233.5 99.5t-90.5 256.5q0 156 91 255.5t233 99.5t233 -99.5t91 -255.5q0 -157 -90.5 -256.5t-233.5 -99.5zM359 164q55 0 89.5 50.5t34.5 129.5t-34.5 129t-89.5 50t-89.5 -50t-34.5 -129t34.5 -129.5t89.5 -50.5z" />
    <glyph glyph-name="one" unicode="1" horiz-adv-x="456" 
d="M197 0v469l-115 -70l-76 134l230 154h155v-687h-194z" />
    <glyph glyph-name="two" unicode="2" horiz-adv-x="625" 
d="M40 0v157l255 184q51 37 70 63.5t19 55.5q0 28 -22 45.5t-56 17.5q-77 0 -158 -81l-120 121q115 136 283 136q121 0 197 -65t76 -166q0 -71 -35 -126.5t-123 -111.5l-89 -57h253v-173h-550z" />
    <glyph glyph-name="three" unicode="3" horiz-adv-x="619" 
d="M310 -13q-187 0 -294 114l109 129q74 -70 174 -70q45 0 69 15t24 39q0 26 -23 38.5t-82 11.5l-83 -1v162h82q93 0 93 48q0 25 -24.5 39t-66.5 14q-77 0 -150 -68l-107 119q106 122 278 122q125 0 196.5 -53t71.5 -136q0 -55 -33.5 -97t-92.5 -59q62 -14 101.5 -55.5
t39.5 -102.5q0 -92 -77 -150.5t-205 -58.5z" />
    <glyph glyph-name="four" unicode="4" horiz-adv-x="665" 
d="M362 0v122h-331l-16 146l303 418h238v-404h83v-160h-83v-122h-194zM214 282h148v206z" />
    <glyph glyph-name="five" unicode="5" horiz-adv-x="630" 
d="M304 -13q-170 0 -281 103l110 136q85 -72 171 -72q47 0 73.5 21t26.5 52q0 32 -26 50.5t-71 18.5q-69 0 -120 -40l-127 48l10 383h489v-173h-312l-3 -98q53 38 126 38q95 0 161 -59t66 -161q0 -114 -79 -180.5t-214 -66.5z" />
    <glyph glyph-name="six" unicode="6" horiz-adv-x="656" 
d="M388 454q99 0 166 -60.5t67 -160.5q0 -110 -79 -177.5t-198 -67.5q-153 0 -233 92.5t-80 250.5q0 167 91.5 267.5t249.5 100.5q125 0 221 -69l-88 -146q-63 46 -131 46q-109 0 -135 -119q66 43 149 43zM331 152q40 0 65 20.5t25 52.5q0 34 -28 54t-67 20q-60 0 -91 -53
q7 -51 28.5 -72.5t67.5 -21.5z" />
    <glyph glyph-name="seven" unicode="7" horiz-adv-x="606" 
d="M98 0l260 514h-319v173h542v-146l-265 -541h-218z" />
    <glyph glyph-name="eight" unicode="8" horiz-adv-x="636" 
d="M318 -12q-125 0 -208.5 52.5t-83.5 146.5q0 57 32.5 100t90.5 68q-105 50 -105 154q0 89 79.5 139.5t194.5 50.5q116 0 195.5 -51t79.5 -138q0 -104 -106 -155q124 -55 124 -168q0 -94 -84 -146.5t-209 -52.5zM318 420q35 2 59.5 20t24.5 42q0 25 -23 41.5t-61 16.5
t-60.5 -16.5t-22.5 -41.5t24 -42.5t59 -19.5zM318 148q43 0 70 17t27 45q0 25 -28.5 42.5t-68.5 19.5q-40 -2 -68 -19.5t-28 -42.5q0 -28 26 -45t70 -17z" />
    <glyph glyph-name="nine" unicode="9" horiz-adv-x="656" 
d="M312 699q153 0 233 -92.5t80 -250.5q0 -167 -91.5 -267.5t-249.5 -100.5q-125 0 -221 69l88 146q63 -46 131 -46q109 0 135 119q-66 -43 -149 -43q-99 0 -166 60.5t-67 160.5q0 110 79 177.5t198 67.5zM330 388q60 0 91 53q-7 51 -28.5 72.5t-67.5 21.5q-40 0 -65 -20.5
t-25 -52.5q0 -34 28 -54t67 -20z" />
    <glyph glyph-name="colon" unicode=":" horiz-adv-x="314" 
d="M160 313q-50 0 -84 34.5t-34 83.5q0 46 34 79.5t84 33.5q46 0 79.5 -34t33.5 -79q0 -49 -33 -83.5t-80 -34.5zM160 -12q-50 0 -84 34.5t-34 83.5q0 46 34 79.5t84 33.5q46 0 79.5 -34t33.5 -79q0 -49 -33 -83.5t-80 -34.5z" />
    <glyph glyph-name="semicolon" unicode=";" horiz-adv-x="312" 
d="M160 313q-50 0 -84 34.5t-34 83.5q0 46 34 79.5t84 33.5q46 0 79.5 -34t33.5 -79q0 -49 -33 -83.5t-80 -34.5zM148 -155l-63 48q52 42 67 95q-45 0 -77.5 33.5t-32.5 80.5q0 48 33.5 82.5t79.5 34.5q52 0 85 -43t33 -111q0 -55 -33 -113t-92 -107z" />
    <glyph glyph-name="less" unicode="&#x3c;" horiz-adv-x="597" 
d="M530 78l-475 189v153l475 189v-150l-331 -116l331 -114v-151z" />
    <glyph glyph-name="equal" unicode="=" horiz-adv-x="609" 
d="M55 382v149h499v-149h-499zM55 148v149h499v-149h-499z" />
    <glyph glyph-name="greater" unicode="&#x3e;" horiz-adv-x="597" 
d="M67 78v151l331 114l-331 116v150l475 -189v-153z" />
    <glyph glyph-name="question" unicode="?" horiz-adv-x="503" 
d="M159 264v150q57 0 93 17t36 44q0 22 -21.5 36.5t-55.5 14.5q-55 0 -97 -39l-106 109q100 103 241 103q103 0 169 -57.5t66 -147.5q0 -68 -45 -122.5t-116 -71.5v-36h-164zM241 -12q-50 0 -84 34.5t-34 83.5q0 46 34 79.5t84 33.5q46 0 79.5 -34t33.5 -79q0 -49 -33 -83.5
t-80 -34.5z" />
    <glyph glyph-name="at" unicode="@" horiz-adv-x="879" 
d="M424 -116q-164 0 -272.5 108.5t-108.5 267.5q0 170 123.5 293t296.5 123q161 0 267 -101t106 -241q0 -125 -67 -194t-151 -69q-98 0 -130 75q-56 -73 -138 -73q-77 0 -123.5 52t-46.5 135q0 101 66 175t153 74q84 0 128 -65l11 52l156 -12q-10 -55 -21.5 -110l-16.5 -79
t-8.5 -46t-3.5 -38q0 -22 12.5 -35t34.5 -13q41 0 70 45.5t29 125.5q0 129 -91.5 214.5t-237.5 85.5q-157 0 -266 -109.5t-109 -263.5q0 -143 96 -239.5t245 -96.5q110 0 212 61l22 -33q-110 -69 -237 -69zM409 202q35 0 60.5 28.5t29.5 73.5q3 34 -14 55t-47 21
q-43 0 -70 -32t-27 -75q0 -33 18.5 -52t49.5 -19z" />
    <glyph glyph-name="A" unicode="A" horiz-adv-x="749" 
d="M529 0l-35 92h-239l-35 -92h-219l264 687h219l264 -687h-219zM310 235h129l-64 167z" />
    <glyph glyph-name="B" unicode="B" horiz-adv-x="711" 
d="M60 0v687h370q98 0 160 -49t62 -124q0 -50 -25 -91t-70 -63q60 -25 93.5 -71.5t33.5 -103.5q0 -82 -67.5 -133.5t-172.5 -51.5h-384zM253 420h130q30 0 49.5 14.5t19.5 37.5t-19.5 37.5t-49.5 14.5h-130v-104zM253 163h159q31 0 51.5 15.5t20.5 39.5t-20.5 39.5
t-51.5 15.5h-159v-110z" />
    <glyph glyph-name="C" unicode="C" horiz-adv-x="706" 
d="M408 -12q-152 0 -263 105.5t-111 250.5t111 250t263 105q81 0 153.5 -32t125.5 -89l-143 -125q-53 70 -136 70q-71 0 -122.5 -53t-51.5 -126t51.5 -126.5t122.5 -53.5q82 0 137 70l142 -124q-53 -57 -125.5 -89.5t-153.5 -32.5z" />
    <glyph glyph-name="D" unicode="D" horiz-adv-x="760" 
d="M60 0v687h256q180 0 295 -96t115 -247t-115 -247.5t-295 -96.5h-256zM254 176h94q78 0 128 47t50 121q0 73 -50 120t-128 47h-94v-335z" />
    <glyph glyph-name="E" unicode="E" horiz-adv-x="651" 
d="M613 514h-359v-77h327v-173h-327v-91h359v-173h-553v687h553v-173z" />
    <glyph glyph-name="F" unicode="F" horiz-adv-x="651" 
d="M613 514h-359v-97h327v-173h-327v-244h-194v687h553v-173z" />
    <glyph glyph-name="G" unicode="G" horiz-adv-x="741" 
d="M375 259v143h322v-292q-53 -58 -128 -90t-156 -32q-154 0 -266.5 105.5t-112.5 250.5t112 250t267 105q81 0 156 -32t128 -89l-143 -125q-54 70 -141 70q-73 0 -126 -53t-53 -126t53 -126.5t126 -53.5q51 0 96 28v67h-134z" />
    <glyph glyph-name="H" unicode="H" horiz-adv-x="759" 
d="M505 687h194v-687h-194v264h-251v-264h-194v687h194v-250h251v250z" />
    <glyph glyph-name="I" unicode="I" horiz-adv-x="321" 
d="M64 0v687h194v-687h-194z" />
    <glyph glyph-name="J" unicode="J" horiz-adv-x="548" 
d="M246 -12q-70 0 -138 32t-105 82l125 122q14 -26 40 -43t52 -17q35 0 58 22.5t23 57.5v443h194v-463q0 -104 -70 -170t-179 -66z" />
    <glyph glyph-name="K" unicode="K" horiz-adv-x="725" 
d="M60 0v687h194v-271l231 271h229l-254 -287l274 -400h-232l-177 260l-71 -78v-182h-194z" />
    <glyph glyph-name="L" unicode="L" horiz-adv-x="597" 
d="M254 173h320v-173h-514v687h194v-514z" />
    <glyph glyph-name="M" unicode="M" horiz-adv-x="876" 
d="M60 0v687h194l184 -328l184 328h194v-687h-194v368l-184 -328l-184 328v-368h-194z" />
    <glyph glyph-name="N" unicode="N" horiz-adv-x="776" 
d="M60 0v687h194l268 -368v368h194v-687h-194l-268 368v-368h-194z" />
    <glyph glyph-name="O" unicode="O" horiz-adv-x="815" 
d="M408 -12q-152 0 -263 105.5t-111 250.5t111 250t263 105t263 -105t111 -250t-111 -250.5t-263 -105.5zM408 164q71 0 122.5 53.5t51.5 126.5t-51.5 126t-122.5 53t-122.5 -53t-51.5 -126t51.5 -126.5t122.5 -53.5z" />
    <glyph glyph-name="P" unicode="P" horiz-adv-x="670" 
d="M60 0v687h329q116 0 189.5 -67t73.5 -173t-73.5 -173t-189.5 -67h-135v-207h-194zM254 383h119q34 0 56.5 18t22.5 46t-22.5 46t-56.5 18h-119v-128z" />
    <glyph glyph-name="Q" unicode="Q" horiz-adv-x="815" 
d="M782 344q0 -101 -59 -189l57 -49l-91 -106l-64 56q-98 -68 -217 -68q-152 0 -263 105.5t-111 250.5t111 250t263 105t263 -105t111 -250zM408 164q37 0 73 17l-61 53l91 106l62 -54q9 29 9 58q0 73 -51.5 126t-122.5 53t-122.5 -53t-51.5 -126t51.5 -126.5t122.5 -53.5z
" />
    <glyph glyph-name="R" unicode="R" horiz-adv-x="697" 
d="M680 0h-221l-145 207h-60v-207h-194v687h329q116 0 189.5 -67t73.5 -173q0 -73 -36 -128.5t-100 -85.5zM254 511v-128h119q34 0 56.5 18t22.5 46t-22.5 46t-56.5 18h-119z" />
    <glyph glyph-name="S" unicode="S" horiz-adv-x="646" 
d="M336 -12q-197 0 -328 116l108 129q107 -84 227 -84q81 0 81 48q0 23 -20.5 32.5t-98.5 27.5q-51 12 -85.5 22t-71 27.5t-58 38.5t-35.5 53.5t-14 74.5q0 103 74.5 164.5t196.5 61.5q172 0 288 -93l-97 -137q-96 69 -196 69q-34 0 -52 -12.5t-18 -32.5q0 -26 23.5 -38.5
t98.5 -28.5q66 -14 109 -29t80 -38.5t54 -58t17 -82.5q0 -108 -76.5 -169t-206.5 -61z" />
    <glyph glyph-name="T" unicode="T" horiz-adv-x="645" 
d="M226 0v514h-203v173h600v-173h-203v-514h-194z" />
    <glyph glyph-name="U" unicode="U" horiz-adv-x="761" 
d="M381 -12q-144 0 -235.5 88.5t-91.5 228.5v382h194v-372q0 -66 37.5 -108.5t95.5 -42.5t95.5 42.5t37.5 108.5v372h194v-382q0 -140 -91.5 -228.5t-235.5 -88.5z" />
    <glyph glyph-name="V" unicode="V" horiz-adv-x="749" 
d="M529 687h219l-264 -687h-219l-264 687h219l155 -402z" />
    <glyph glyph-name="W" unicode="W" horiz-adv-x="1076" 
d="M199 0l-191 687h209l84 -397l133 397h209l132 -397l84 397h209l-190 -687h-196l-143 397l-144 -397h-196z" />
    <glyph glyph-name="X" unicode="X" horiz-adv-x="721" 
d="M717 687l-244 -342l244 -345h-227l-131 185l-132 -185h-223l244 342l-244 345h227l131 -185l132 185h223z" />
    <glyph glyph-name="Y" unicode="Y" horiz-adv-x="709" 
d="M258 0v226l-264 461h222l139 -279l147 279h213l-263 -461v-226h-194z" />
    <glyph glyph-name="Z" unicode="Z" horiz-adv-x="675" 
d="M41 0l-1 145l326 369h-318v173h584v-145l-324 -369h329v-173h-596z" />
    <glyph glyph-name="bracketleft" unicode="[" horiz-adv-x="398" 
d="M64 -160v849h295v-121h-148v-607h148v-121h-295z" />
    <glyph glyph-name="backslash" unicode="\" horiz-adv-x="493" 
d="M322 -74l-340 817h200l340 -817h-200z" />
    <glyph glyph-name="bracketright" unicode="]" horiz-adv-x="398" 
d="M39 -160v121h148v607h-148v121h295v-849h-295z" />
    <glyph glyph-name="asciicircum" unicode="^" horiz-adv-x="486" 
d="M36 413l143 274h129l142 -274h-130l-78 160l-77 -160h-129z" />
    <glyph glyph-name="underscore" unicode="_" horiz-adv-x="592" 
d="M-2 -159v98h596v-98h-596z" />
    <glyph glyph-name="grave" unicode="`" horiz-adv-x="404" 
d="M215 574l-152 136l166 28l112 -164h-126z" />
    <glyph glyph-name="a" unicode="a" horiz-adv-x="587" 
d="M301 529q102 0 170.5 -60.5t68.5 -163.5v-305h-185v37q-54 -49 -133 -49q-84 0 -141.5 46.5t-57.5 118.5q0 75 64 123.5t159 48.5q52 0 109 -23v3q0 37 -30 59t-76 22q-57 0 -125 -35l-59 117q122 61 236 61zM269 102q35 0 59 14.5t27 36.5v49q-32 16 -82 16
q-29 0 -48 -17t-19 -43q0 -25 17.5 -40.5t45.5 -15.5z" />
    <glyph glyph-name="b" unicode="b" 
d="M409 529q104 0 170.5 -75.5t66.5 -194.5t-66.5 -195t-170.5 -76q-100 0 -165 73v-61h-193v699h193v-243q65 73 165 73zM348 148q50 0 82 31t32 80q0 48 -32 79t-82 31q-46 0 -75 -31t-29 -79q0 -49 29 -80t75 -31z" />
    <glyph glyph-name="c" unicode="c" horiz-adv-x="552" 
d="M317 -12q-118 0 -204 80.5t-86 190.5t87 190t206 80q132 0 215 -96l-127 -104q-35 40 -90 40q-43 0 -75 -32.5t-32 -76.5q0 -46 32 -79t76 -33q56 0 92 41l127 -102q-86 -99 -221 -99z" />
    <glyph glyph-name="d" unicode="d" 
d="M430 699h193v-699h-193v61q-65 -73 -165 -73q-104 0 -170.5 76t-66.5 195t66.5 194.5t170.5 75.5q100 0 165 -73v243zM326 148q46 0 75 31t29 80q0 48 -29 79t-75 31q-50 0 -82 -31t-32 -79q0 -49 32 -80t82 -31z" />
    <glyph glyph-name="e" unicode="e" horiz-adv-x="590" 
d="M300 132q61 0 115 43l106 -107q-34 -35 -94 -57.5t-119 -22.5q-124 0 -202.5 76.5t-78.5 195.5q0 118 76.5 193.5t196.5 75.5q125 0 194.5 -83.5t69.5 -232.5h-366q11 -37 38.5 -59t63.5 -22zM300 385q-34 0 -60 -19t-39 -52h188q-11 33 -34.5 52t-54.5 19z" />
    <glyph glyph-name="f" unicode="f" horiz-adv-x="398" 
d="M311 570q-19 0 -31.5 -15t-12.5 -38h102v-152h-102v-365h-184v365h-65v152h65v28q0 77 49 126t126 49q34 0 71.5 -15t61.5 -38l-33 -112q-17 15 -47 15z" />
    <glyph glyph-name="g" unicode="g" horiz-adv-x="657" 
d="M412 517h194v-462q0 -100 -82.5 -163.5t-211.5 -63.5q-146 0 -241 69l63 133q22 -19 63 -30.5t84 -11.5q57 0 94 22t37 55v41q-65 -68 -160 -68t-159.5 69.5t-64.5 176.5t64.5 176t159.5 69q46 0 91 -19.5t69 -49.5v57zM319 198q41 0 67 24.5t26 61.5t-26 61t-67 24
t-67 -24t-26 -61t26 -61.5t67 -24.5z" />
    <glyph glyph-name="h" unicode="h" horiz-adv-x="628" 
d="M390 529q83 0 136.5 -56t53.5 -144v-329h-184v284q0 38 -22 61.5t-56 23.5q-32 0 -53 -22.5t-21 -56.5v-290h-193v699h193v-234q51 64 146 64z" />
    <glyph glyph-name="i" unicode="i" horiz-adv-x="304" 
d="M153 572q-42 0 -71 29.5t-29 70.5q0 40 29.5 69t70.5 29q40 0 69 -29.5t29 -68.5q0 -41 -29 -70.5t-69 -29.5zM55 0v517h193v-517h-193z" />
    <glyph glyph-name="j" unicode="j" horiz-adv-x="304" 
d="M153 572q-42 0 -71 29.5t-29 70.5q0 40 29.5 69t70.5 29q40 0 69 -29.5t29 -68.5q0 -41 -29 -70.5t-69 -29.5zM64 -178q-70 0 -118 24l18 139q19 -8 47 -8q19 0 31.5 15t12.5 38v487h193v-511q0 -81 -51.5 -132.5t-132.5 -51.5z" />
    <glyph glyph-name="k" unicode="k" horiz-adv-x="590" 
d="M412 294l185 -294h-216l-95 171l-42 -52v-119h-193v699h193v-364l133 182h216z" />
    <glyph glyph-name="l" unicode="l" horiz-adv-x="303" 
d="M55 0v699h193v-699h-193z" />
    <glyph glyph-name="m" unicode="m" horiz-adv-x="952" 
d="M708 529q82 0 139 -56.5t57 -143.5v-330h-184v295q0 33 -20.5 54t-52.5 21t-52.5 -19.5t-20.5 -49.5v-301h-184v295q0 33 -20.5 54t-52.5 21t-52.5 -19.5t-20.5 -49.5v-300h-193v517h193v-63q41 75 134 75q50 0 93 -22.5t69 -62.5q23 39 67.5 62t100.5 23z" />
    <glyph glyph-name="n" unicode="n" horiz-adv-x="628" 
d="M390 529q83 0 136.5 -56t53.5 -144v-329h-184v284q0 38 -22 61.5t-56 23.5q-32 0 -53 -22.5t-21 -56.5v-290h-193v517h193v-52q51 64 146 64z" />
    <glyph glyph-name="o" unicode="o" horiz-adv-x="636" 
d="M319 -12q-119 0 -205.5 80.5t-86.5 190.5t86.5 190t205.5 80t205 -80t86 -190t-86.5 -190.5t-204.5 -80.5zM319 148q45 0 78 33t33 78t-33 77.5t-78 32.5q-46 0 -79 -32.5t-33 -77.5t33 -78t79 -33z" />
    <glyph glyph-name="p" unicode="p" 
d="M409 529q104 0 170.5 -75.5t66.5 -194.5t-66.5 -195t-170.5 -76q-100 0 -165 73v-233h-193v689h193v-61q65 73 165 73zM348 148q50 0 82 31t32 80q0 48 -32 79t-82 31q-46 0 -75 -31t-29 -79q0 -49 29 -80t75 -31z" />
    <glyph glyph-name="q" unicode="q" 
d="M430 517h193v-689h-193v233q-65 -73 -165 -73q-104 0 -170.5 76t-66.5 195t66.5 194.5t170.5 75.5q100 0 165 -73v61zM326 148q46 0 75 31t29 80q0 48 -29 79t-75 31q-50 0 -82 -31t-32 -79q0 -49 32 -80t82 -31z" />
    <glyph glyph-name="r" unicode="r" horiz-adv-x="421" 
d="M244 425q26 49 68 76.5t94 27.5v-160q-76 0 -119 -39.5t-43 -110.5v-219h-193v517h193v-92z" />
    <glyph glyph-name="s" unicode="s" horiz-adv-x="506" 
d="M257 -12q-68 0 -133.5 20.5t-112.5 57.5l72 117q38 -27 88 -44t91 -17q49 0 49 26q0 22 -78 38q-27 6 -41.5 9.5t-38.5 11t-38 14.5t-31.5 20t-27 27.5t-16 36t-6.5 46.5q0 77 58.5 127.5t157.5 50.5q113 0 216 -68l-65 -118q-84 55 -151 55q-20 0 -32.5 -8.5
t-12.5 -20.5q0 -14 31 -22q2 0 44 -10q34 -8 57.5 -14.5t53.5 -20.5t48 -31t30.5 -45t12.5 -63q0 -81 -60 -128t-165 -47z" />
    <glyph glyph-name="t" unicode="t" horiz-adv-x="416" 
d="M358 163l33 -122q-24 -23 -61.5 -38t-71.5 -15q-77 0 -126 49t-49 126v202h-65v152h65v142h184v-142h102v-152h-102v-164q0 -23 12.5 -38t31.5 -15q30 0 47 15z" />
    <glyph glyph-name="u" unicode="u" horiz-adv-x="628" 
d="M384 517h193v-517h-193v52q-51 -64 -146 -64q-83 0 -136.5 56t-53.5 144v329h184v-284q0 -38 22 -61.5t56 -23.5q32 0 53 22.5t21 56.5v290z" />
    <glyph glyph-name="v" unicode="v" horiz-adv-x="635" 
d="M230 0l-226 517h198l117 -296l114 296h198l-223 -517h-178z" />
    <glyph glyph-name="w" unicode="w" horiz-adv-x="847" 
d="M185 0l-178 517h185l77 -258l76 258h158l77 -258l76 258h185l-176 -517h-171l-70 266l-68 -266h-171z" />
    <glyph glyph-name="x" unicode="x" horiz-adv-x="576" 
d="M573 0h-204l-83 120l-84 -120h-199l184 264l-175 253h204l74 -107l74 107h199l-174 -250z" />
    <glyph glyph-name="y" unicode="y" horiz-adv-x="607" 
d="M201 -180q-90 0 -161 42l39 124q49 -29 73 -29q41 0 52 16l10 20l-209 524h197l106 -319l100 319h194l-195 -521q-32 -83 -86 -129.5t-120 -46.5z" />
    <glyph glyph-name="z" unicode="z" horiz-adv-x="544" 
d="M33 0v133l229 224h-222v160h472l-1 -133l-229 -224h232v-160h-481z" />
    <glyph glyph-name="braceleft" unicode="{" horiz-adv-x="415" 
d="M372 -166q-136 9 -195 53.5t-59 135.5l2 107q0 43 -22 62t-72 19v110q51 0 72.5 19t21.5 62l-2 106q0 91 59.5 135.5t194.5 53.5l15 -113q-76 -9 -99 -26.5t-23 -64.5l1 -115q0 -87 -79 -112q79 -25 79 -113l-1 -114q0 -48 23.5 -65.5t98.5 -26.5z" />
    <glyph glyph-name="bar" unicode="|" horiz-adv-x="313" 
d="M92 -74v817h129v-817h-129z" />
    <glyph glyph-name="braceright" unicode="}" horiz-adv-x="415" 
d="M43 -166l-15 113q75 9 98.5 26.5t23.5 65.5l-1 114q0 88 79 113q-79 25 -79 112l1 115q0 47 -23 64.5t-99 26.5l15 113q135 -9 194.5 -53.5t59.5 -135.5l-2 -106q0 -43 21.5 -62t72.5 -19v-110q-50 0 -72 -19t-22 -62l2 -107q0 -91 -59 -135.5t-195 -53.5z" />
    <glyph glyph-name="asciitilde" unicode="~" horiz-adv-x="457" 
d="M298 290q-31 0 -77 20.5t-56 20.5q-28 0 -37 -42l-90 13q8 72 37.5 106.5t83.5 34.5q31 0 77 -20.5t56 -20.5q28 0 37 42l90 -13q-15 -141 -121 -141z" />
    <glyph glyph-name="exclamdown" unicode="&#xa1;" horiz-adv-x="329" 
d="M162 529q50 0 84 -34.5t34 -83.5q0 -46 -34 -79.5t-84 -33.5q-46 0 -79.5 34t-33.5 79q0 49 33 83.5t80 34.5zM227 243l43 -413h-215l42 413h130z" />
    <glyph glyph-name="cent" unicode="&#xa2;" horiz-adv-x="552" 
d="M538 87q-69 -80 -175 -96v-65h-110v69q-97 21 -161.5 95.5t-64.5 168.5q0 93 64.5 167t161.5 96v67h110v-63q105 -15 172 -93l-127 -104q-35 40 -90 40q-43 0 -75 -32.5t-32 -76.5q0 -46 32 -79t76 -33q56 0 92 41z" />
    <glyph glyph-name="sterling" unicode="&#xa3;" horiz-adv-x="677" 
d="M334 143h320v-143h-614v76l100 67v107h-74v87h74v126q0 104 70 170t179 66q70 0 138 -32t105 -82l-125 -122q-14 26 -40 43t-52 17q-35 0 -58 -22.5t-23 -57.5v-106h137v-87h-137v-107z" />
    <glyph glyph-name="yen" unicode="&#xa5;" horiz-adv-x="709" 
d="M715 687l-211 -370h99v-87h-149l-2 -4v-49h151v-87h-151v-90h-194v90h-151v87h151v49l-2 4h-149v87h99l-212 370h222l139 -279l147 279h213z" />
    <glyph glyph-name="dieresis" unicode="&#xa8;" horiz-adv-x="524" 
d="M150 575q-37 0 -62 25.5t-25 61.5q0 35 25 60.5t62 25.5q35 0 60.5 -25.5t25.5 -60.5q0 -36 -25.5 -61.5t-60.5 -25.5zM375 575q-37 0 -62 25.5t-25 61.5q0 35 25.5 60.5t61.5 25.5t61 -25.5t25 -60.5q0 -36 -25 -61.5t-61 -25.5z" />
    <glyph glyph-name="macron" unicode="&#xaf;" horiz-adv-x="495" 
d="M63 573v106h369v-106h-369z" />
    <glyph glyph-name="acute" unicode="&#xb4;" horiz-adv-x="404" 
d="M63 574l112 164l166 -28l-152 -136h-126z" />
    <glyph glyph-name="cedilla" unicode="&#xb8;" horiz-adv-x="340" 
d="M204 -42q33 -1 53 -20.5t20 -48.5q0 -41 -32 -65t-83 -24q-58 0 -99 30l31 68q28 -23 58 -23q15 0 25.5 6.5t10.5 18.5q0 22 -28 22q-14 0 -27 -8l-26 24l31 73h89z" />
    <glyph glyph-name="questiondown" unicode="&#xbf;" horiz-adv-x="503" 
d="M262 529q50 0 84 -34.5t34 -83.5q0 -46 -34 -79.5t-84 -33.5q-46 0 -79.5 34t-33.5 79q0 49 33 83.5t80 34.5zM344 253v-150q-57 0 -93 -17t-36 -44q0 -22 21.5 -36.5t55.5 -14.5q55 0 97 39l106 -109q-100 -103 -241 -103q-103 0 -169 57.5t-66 147.5q0 68 45 122.5
t116 71.5v36h164z" />
    <glyph glyph-name="Agrave" unicode="&#xc0;" horiz-adv-x="749" 
d="M443 744h-126l-152 136l166 28zM529 0l-35 92h-239l-35 -92h-219l264 687h219l264 -687h-219zM310 235h129l-64 167z" />
    <glyph glyph-name="Aacute" unicode="&#xc1;" horiz-adv-x="749" 
d="M587 880l-152 -136h-126l112 164zM529 0l-35 92h-239l-35 -92h-219l264 687h219l264 -687h-219zM310 235h129l-64 167z" />
    <glyph glyph-name="Acircumflex" unicode="&#xc2;" horiz-adv-x="749" 
d="M375 811l-73 -67h-112l108 154h155l109 -154h-113zM529 0l-35 92h-239l-35 -92h-219l264 687h219l264 -687h-219zM310 235h129l-64 167z" />
    <glyph glyph-name="Atilde" unicode="&#xc3;" horiz-adv-x="749" 
d="M311 782q-28 0 -37 -42l-90 13q8 72 37.5 106.5t83.5 34.5q31 0 77 -20.5t56 -20.5q28 0 37 42l90 -13q-15 -141 -121 -141q-31 0 -77 20.5t-56 20.5zM529 0l-35 92h-239l-35 -92h-219l264 687h219l264 -687h-219zM310 235h129l-64 167z" />
    <glyph glyph-name="Adieresis" unicode="&#xc4;" horiz-adv-x="749" 
d="M263 745q-37 0 -62 25.5t-25 61.5q0 35 25 60.5t62 25.5q35 0 60.5 -25.5t25.5 -60.5q0 -36 -25.5 -61.5t-60.5 -25.5zM488 745q-37 0 -62 25.5t-25 61.5q0 35 25.5 60.5t61.5 25.5t61 -25.5t25 -60.5q0 -36 -25 -61.5t-61 -25.5zM529 0l-35 92h-239l-35 -92h-219
l264 687h219l264 -687h-219zM310 235h129l-64 167z" />
    <glyph glyph-name="Aring" unicode="&#xc5;" horiz-adv-x="749" 
d="M375 745q-50 0 -85.5 35.5t-35.5 85.5t35.5 85.5t85.5 35.5t85.5 -35.5t35.5 -85.5t-35.5 -85.5t-85.5 -35.5zM375 915q-20 0 -34.5 -14.5t-14.5 -34.5t14.5 -34.5t34.5 -14.5t34.5 14.5t14.5 34.5t-14.5 34.5t-34.5 14.5zM529 0l-35 92h-239l-35 -92h-219l264 687h219
l264 -687h-219zM310 235h129l-64 167z" />
    <glyph glyph-name="AE" unicode="&#xc6;" horiz-adv-x="1113" 
d="M1075 514h-359v-77h327v-173h-327v-91h359v-173h-553v92h-244l-53 -92h-224l397 687h677v-173zM361 235h161v279z" />
    <glyph glyph-name="Ccedilla" unicode="&#xc7;" horiz-adv-x="706" 
d="M408 164q82 0 137 70l142 -124q-99 -107 -246 -121l-14 -31q33 -1 53 -20.5t20 -48.5q0 -41 -32 -65t-83 -24q-58 0 -99 30l31 68q28 -23 58 -23q15 0 25.5 6.5t10.5 18.5q0 22 -28 22q-14 0 -27 -8l-26 24l23 54q-134 20 -226.5 121t-92.5 231q0 145 111 250t263 105
q81 0 153.5 -32t125.5 -89l-143 -125q-53 70 -136 70q-71 0 -122.5 -53t-51.5 -126t51.5 -126.5t122.5 -53.5z" />
    <glyph glyph-name="Egrave" unicode="&#xc8;" horiz-adv-x="651" 
d="M446 744h-126l-152 136l166 28zM613 514h-359v-77h327v-173h-327v-91h359v-173h-553v687h553v-173z" />
    <glyph glyph-name="Eacute" unicode="&#xc9;" horiz-adv-x="651" 
d="M496 880l-152 -136h-126l112 164zM613 514h-359v-77h327v-173h-327v-91h359v-173h-553v687h553v-173z" />
    <glyph glyph-name="Ecircumflex" unicode="&#xca;" horiz-adv-x="651" 
d="M337 811l-73 -67h-112l108 154h155l109 -154h-113zM613 514h-359v-77h327v-173h-327v-91h359v-173h-553v687h553v-173z" />
    <glyph glyph-name="Edieresis" unicode="&#xcb;" horiz-adv-x="651" 
d="M225 745q-37 0 -62 25.5t-25 61.5q0 35 25 60.5t62 25.5q35 0 60.5 -25.5t25.5 -60.5q0 -36 -25.5 -61.5t-60.5 -25.5zM450 745q-37 0 -62 25.5t-25 61.5q0 35 25.5 60.5t61.5 25.5t61 -25.5t25 -60.5q0 -36 -25 -61.5t-61 -25.5zM613 514h-359v-77h327v-173h-327v-91
h359v-173h-553v687h553v-173z" />
    <glyph glyph-name="Igrave" unicode="&#xcc;" horiz-adv-x="321" 
d="M98 744l-152 136l166 28l112 -164h-126zM64 0v687h194v-687h-194z" />
    <glyph glyph-name="Iacute" unicode="&#xcd;" horiz-adv-x="321" 
d="M96 744l112 164l166 -28l-152 -136h-126zM64 0v687h194v-687h-194z" />
    <glyph glyph-name="Icircumflex" unicode="&#xce;" horiz-adv-x="321" 
d="M-24 744l108 154h155l109 -154h-113l-74 67l-73 -67h-112zM64 0v687h194v-687h-194z" />
    <glyph glyph-name="Idieresis" unicode="&#xcf;" horiz-adv-x="321" 
d="M49 745q-37 0 -62 25.5t-25 61.5q0 35 25 60.5t62 25.5q35 0 60.5 -25.5t25.5 -60.5q0 -36 -25.5 -61.5t-60.5 -25.5zM274 745q-37 0 -62 25.5t-25 61.5q0 35 25.5 60.5t61.5 25.5t61 -25.5t25 -60.5q0 -36 -25 -61.5t-61 -25.5zM64 0v687h194v-687h-194z" />
    <glyph glyph-name="Eth" unicode="&#xd0;" horiz-adv-x="818" 
d="M374 687q180 0 295 -96t115 -247t-115 -247.5t-295 -96.5h-256v258h-78v173h78v256h256zM406 176q78 0 128 47t50 121q0 73 -50 120t-128 47h-94v-80h127l-1 -173h-126v-82h94z" />
    <glyph glyph-name="Ntilde" unicode="&#xd1;" horiz-adv-x="776" 
d="M457 741q-31 0 -77 20.5t-56 20.5q-28 0 -37 -42l-90 13q8 72 37.5 106.5t83.5 34.5q30 0 77 -20.5t56 -20.5q28 0 37 42l90 -13q-15 -141 -121 -141zM60 0v687h194l268 -368v368h194v-687h-194l-268 368v-368h-194z" />
    <glyph glyph-name="Ograve" unicode="&#xd2;" horiz-adv-x="815" 
d="M346 744l-152 136l166 28l112 -164h-126zM408 -12q-152 0 -263 105.5t-111 250.5t111 250t263 105t263 -105t111 -250t-111 -250.5t-263 -105.5zM408 164q71 0 122.5 53.5t51.5 126.5t-51.5 126t-122.5 53t-122.5 -53t-51.5 -126t51.5 -126.5t122.5 -53.5z" />
    <glyph glyph-name="Oacute" unicode="&#xd3;" horiz-adv-x="815" 
d="M340 744l112 164l166 -28l-152 -136h-126zM408 -12q-152 0 -263 105.5t-111 250.5t111 250t263 105t263 -105t111 -250t-111 -250.5t-263 -105.5zM408 164q71 0 122.5 53.5t51.5 126.5t-51.5 126t-122.5 53t-122.5 -53t-51.5 -126t51.5 -126.5t122.5 -53.5z" />
    <glyph glyph-name="Ocircumflex" unicode="&#xd4;" horiz-adv-x="815" 
d="M223 744l108 154h155l109 -154h-113l-74 67l-73 -67h-112zM408 -12q-152 0 -263 105.5t-111 250.5t111 250t263 105t263 -105t111 -250t-111 -250.5t-263 -105.5zM408 164q71 0 122.5 53.5t51.5 126.5t-51.5 126t-122.5 53t-122.5 -53t-51.5 -126t51.5 -126.5
t122.5 -53.5z" />
    <glyph glyph-name="Otilde" unicode="&#xd5;" horiz-adv-x="815" 
d="M477 741q-31 0 -77 20.5t-56 20.5q-28 0 -37 -42l-90 13q8 72 37.5 106.5t83.5 34.5q30 0 77 -20.5t56 -20.5q28 0 37 42l90 -13q-15 -141 -121 -141zM408 -12q-152 0 -263 105.5t-111 250.5t111 250t263 105t263 -105t111 -250t-111 -250.5t-263 -105.5zM408 164
q71 0 122.5 53.5t51.5 126.5t-51.5 126t-122.5 53t-122.5 -53t-51.5 -126t51.5 -126.5t122.5 -53.5z" />
    <glyph glyph-name="Odieresis" unicode="&#xd6;" horiz-adv-x="815" 
d="M296 745q-37 0 -62 25.5t-25 61.5q0 35 25 60.5t62 25.5q35 0 60.5 -25.5t25.5 -60.5q0 -36 -25.5 -61.5t-60.5 -25.5zM521 745q-37 0 -62 25.5t-25 61.5q0 35 25.5 60.5t61.5 25.5t61 -25.5t25 -60.5q0 -36 -25 -61.5t-61 -25.5zM408 -12q-152 0 -263 105.5t-111 250.5
t111 250t263 105t263 -105t111 -250t-111 -250.5t-263 -105.5zM408 164q71 0 122.5 53.5t51.5 126.5t-51.5 126t-122.5 53t-122.5 -53t-51.5 -126t51.5 -126.5t122.5 -53.5z" />
    <glyph glyph-name="multiply" unicode="&#xd7;" horiz-adv-x="574" 
d="M520 214l-113 -113l-123 124l-121 -121l-106 106l121 121l-124 123l113 113l124 -123l119 119l106 -106l-119 -119z" />
    <glyph glyph-name="Oslash" unicode="&#xd8;" horiz-adv-x="815" 
d="M685 580q97 -102 97 -236q0 -145 -111 -250.5t-263 -105.5q-95 0 -178 44l-27 -32h-160l89 107q-98 101 -98 237q0 145 111 250t263 105q95 0 178 -44l27 32h160zM234 344q0 -46 22 -87l212 255q-30 11 -60 11q-71 0 -122.5 -53t-51.5 -126zM408 164q71 0 122.5 53.5
t51.5 126.5q0 45 -22 86l-212 -255q30 -11 60 -11z" />
    <glyph glyph-name="Ugrave" unicode="&#xd9;" horiz-adv-x="761" 
d="M364 744l-152 136l166 28l112 -164h-126zM381 -12q-144 0 -235.5 88.5t-91.5 228.5v382h194v-372q0 -66 37.5 -108.5t95.5 -42.5t95.5 42.5t37.5 108.5v372h194v-382q0 -140 -91.5 -228.5t-235.5 -88.5z" />
    <glyph glyph-name="Uacute" unicode="&#xda;" horiz-adv-x="761" 
d="M262 744l112 164l166 -28l-152 -136h-126zM381 -12q-144 0 -235.5 88.5t-91.5 228.5v382h194v-372q0 -66 37.5 -108.5t95.5 -42.5t95.5 42.5t37.5 108.5v372h194v-382q0 -140 -91.5 -228.5t-235.5 -88.5z" />
    <glyph glyph-name="Ucircumflex" unicode="&#xdb;" horiz-adv-x="761" 
d="M196 744l108 154h155l109 -154h-113l-74 67l-73 -67h-112zM381 -12q-144 0 -235.5 88.5t-91.5 228.5v382h194v-372q0 -66 37.5 -108.5t95.5 -42.5t95.5 42.5t37.5 108.5v372h194v-382q0 -140 -91.5 -228.5t-235.5 -88.5z" />
    <glyph glyph-name="Udieresis" unicode="&#xdc;" horiz-adv-x="761" 
d="M269 745q-37 0 -62 25.5t-25 61.5q0 35 25 60.5t62 25.5q35 0 60.5 -25.5t25.5 -60.5q0 -36 -25.5 -61.5t-60.5 -25.5zM494 745q-37 0 -62 25.5t-25 61.5q0 35 25.5 60.5t61.5 25.5t61 -25.5t25 -60.5q0 -36 -25 -61.5t-61 -25.5zM381 -12q-144 0 -235.5 88.5
t-91.5 228.5v382h194v-372q0 -66 37.5 -108.5t95.5 -42.5t95.5 42.5t37.5 108.5v372h194v-382q0 -140 -91.5 -228.5t-235.5 -88.5z" />
    <glyph glyph-name="Yacute" unicode="&#xdd;" horiz-adv-x="709" 
d="M236 744l112 164l166 -28l-152 -136h-126zM258 0v226l-264 461h222l139 -279l147 279h213l-263 -461v-226h-194z" />
    <glyph glyph-name="Thorn" unicode="&#xde;" horiz-adv-x="670" 
d="M60 0v687h189v-102h140q116 0 189.5 -67t73.5 -173t-73.5 -173t-189.5 -67h-135v-105h-194zM254 281h119q34 0 56.5 18t22.5 46t-22.5 46t-56.5 18h-119v-128z" />
    <glyph glyph-name="germandbls" unicode="&#xdf;" horiz-adv-x="638" 
d="M51 0v514q0 92 74.5 151t191.5 59t191.5 -59t74.5 -151q0 -50 -25 -91t-70 -63q60 -25 93.5 -71.5t33.5 -103.5q0 -82 -67.5 -133.5t-172.5 -51.5h-62v163h30q31 0 51.5 15.5t20.5 39.5t-20.5 39.5t-51.5 15.5h-30v147h1q30 0 49.5 14.5t19.5 37.5t-18.5 37.5t-50.5 14.5
q-31 0 -50.5 -16t-19.5 -45v-463h-193z" />
    <glyph glyph-name="agrave" unicode="&#xe0;" horiz-adv-x="587" 
d="M414 574h-126l-152 136l166 28zM301 529q102 0 170.5 -60.5t68.5 -163.5v-305h-185v37q-54 -49 -133 -49q-84 0 -141.5 46.5t-57.5 118.5q0 75 64 123.5t159 48.5q52 0 109 -23v3q0 37 -30 59t-76 22q-57 0 -125 -35l-59 117q122 61 236 61zM269 102q35 0 59 14.5
t27 36.5v49q-32 16 -82 16q-29 0 -48 -17t-19 -43q0 -25 17.5 -40.5t45.5 -15.5z" />
    <glyph glyph-name="aacute" unicode="&#xe1;" horiz-adv-x="587" 
d="M464 710l-152 -136h-126l112 164zM301 529q102 0 170.5 -60.5t68.5 -163.5v-305h-185v37q-54 -49 -133 -49q-84 0 -141.5 46.5t-57.5 118.5q0 75 64 123.5t159 48.5q52 0 109 -23v3q0 37 -30 59t-76 22q-57 0 -125 -35l-59 117q122 61 236 61zM269 102q35 0 59 14.5
t27 36.5v49q-32 16 -82 16q-29 0 -48 -17t-19 -43q0 -25 17.5 -40.5t45.5 -15.5z" />
    <glyph glyph-name="acircumflex" unicode="&#xe2;" horiz-adv-x="587" 
d="M305 641l-73 -67h-112l108 154h155l109 -154h-113zM301 529q102 0 170.5 -60.5t68.5 -163.5v-305h-185v37q-54 -49 -133 -49q-84 0 -141.5 46.5t-57.5 118.5q0 75 64 123.5t159 48.5q52 0 109 -23v3q0 37 -30 59t-76 22q-57 0 -125 -35l-59 117q122 61 236 61zM269 102
q35 0 59 14.5t27 36.5v49q-32 16 -82 16q-29 0 -48 -17t-19 -43q0 -25 17.5 -40.5t45.5 -15.5z" />
    <glyph glyph-name="atilde" unicode="&#xe3;" horiz-adv-x="587" 
d="M241 612q-28 0 -37 -42l-90 13q8 72 37.5 106.5t83.5 34.5q31 0 77 -20.5t56 -20.5q28 0 37 42l90 -13q-15 -141 -121 -141q-31 0 -77 20.5t-56 20.5zM301 529q102 0 170.5 -60.5t68.5 -163.5v-305h-185v37q-54 -49 -133 -49q-84 0 -141.5 46.5t-57.5 118.5
q0 75 64 123.5t159 48.5q52 0 109 -23v3q0 37 -30 59t-76 22q-57 0 -125 -35l-59 117q122 61 236 61zM269 102q35 0 59 14.5t27 36.5v49q-32 16 -82 16q-29 0 -48 -17t-19 -43q0 -25 17.5 -40.5t45.5 -15.5z" />
    <glyph glyph-name="adieresis" unicode="&#xe4;" horiz-adv-x="587" 
d="M193 575q-37 0 -62 25.5t-25 61.5q0 35 25 60.5t62 25.5q35 0 60.5 -25.5t25.5 -60.5q0 -36 -25.5 -61.5t-60.5 -25.5zM418 575q-37 0 -62 25.5t-25 61.5q0 35 25.5 60.5t61.5 25.5t61 -25.5t25 -60.5q0 -36 -25 -61.5t-61 -25.5zM301 529q102 0 170.5 -60.5t68.5 -163.5
v-305h-185v37q-54 -49 -133 -49q-84 0 -141.5 46.5t-57.5 118.5q0 75 64 123.5t159 48.5q52 0 109 -23v3q0 37 -30 59t-76 22q-57 0 -125 -35l-59 117q122 61 236 61zM269 102q35 0 59 14.5t27 36.5v49q-32 16 -82 16q-29 0 -48 -17t-19 -43q0 -25 17.5 -40.5t45.5 -15.5z
" />
    <glyph glyph-name="aring" unicode="&#xe5;" horiz-adv-x="587" 
d="M305 575q-50 0 -85.5 35.5t-35.5 85.5t35.5 85.5t85.5 35.5t85.5 -35.5t35.5 -85.5t-35.5 -85.5t-85.5 -35.5zM305 745q-20 0 -34.5 -14.5t-14.5 -34.5t14.5 -34.5t34.5 -14.5t34.5 14.5t14.5 34.5t-14.5 34.5t-34.5 14.5zM301 529q102 0 170.5 -60.5t68.5 -163.5v-305
h-185v37q-54 -49 -133 -49q-84 0 -141.5 46.5t-57.5 118.5q0 75 64 123.5t159 48.5q52 0 109 -23v3q0 37 -30 59t-76 22q-57 0 -125 -35l-59 117q122 61 236 61zM269 102q35 0 59 14.5t27 36.5v49q-32 16 -82 16q-29 0 -48 -17t-19 -43q0 -25 17.5 -40.5t45.5 -15.5z" />
    <glyph glyph-name="ae" unicode="&#xe6;" horiz-adv-x="918" 
d="M628 132q61 0 115 43l106 -107q-34 -35 -94 -57.5t-119 -22.5q-116 0 -193 68q-62 -68 -191 -68q-101 0 -165 46t-64 119q0 75 64 123.5t159 48.5q52 0 109 -23v3q0 34 -28 52.5t-78 18.5q-65 0 -123 -29l-61 121q64 32 110 46.5t106 14.5q104 0 163 -64q73 64 184 64
q125 0 194.5 -83.5t69.5 -232.5h-366q11 -37 38.5 -59t63.5 -22zM628 385q-34 0 -60 -19t-39 -52h188q-11 33 -34.5 52t-54.5 19zM269 112q40 0 63 13.5t23 37.5v26q-36 19 -82 19q-28 0 -45.5 -14t-17.5 -36q0 -20 16.5 -33t42.5 -13z" />
    <glyph glyph-name="ccedilla" unicode="&#xe7;" horiz-adv-x="552" 
d="M538 87q-73 -84 -182 -97l-14 -32q33 -1 53 -20.5t20 -48.5q0 -41 -32 -65t-83 -24q-58 0 -99 30l31 68q28 -23 58 -23q15 0 25.5 6.5t10.5 18.5q0 22 -28 22q-14 0 -27 -8l-26 24l23 54q-102 17 -171.5 93.5t-69.5 173.5q0 110 87 190t206 80q132 0 215 -96l-127 -104
q-35 40 -90 40q-43 0 -75 -32.5t-32 -76.5q0 -46 32 -79t76 -33q56 0 92 41z" />
    <glyph glyph-name="egrave" unicode="&#xe8;" horiz-adv-x="590" 
d="M409 574h-126l-152 136l166 28zM300 132q61 0 115 43l106 -107q-34 -35 -94 -57.5t-119 -22.5q-124 0 -202.5 76.5t-78.5 195.5q0 118 76.5 193.5t196.5 75.5q125 0 194.5 -83.5t69.5 -232.5h-366q11 -37 38.5 -59t63.5 -22zM300 385q-34 0 -60 -19t-39 -52h188
q-11 33 -34.5 52t-54.5 19z" />
    <glyph glyph-name="eacute" unicode="&#xe9;" horiz-adv-x="590" 
d="M459 710l-152 -136h-126l112 164zM300 132q61 0 115 43l106 -107q-34 -35 -94 -57.5t-119 -22.5q-124 0 -202.5 76.5t-78.5 195.5q0 118 76.5 193.5t196.5 75.5q125 0 194.5 -83.5t69.5 -232.5h-366q11 -37 38.5 -59t63.5 -22zM300 385q-34 0 -60 -19t-39 -52h188
q-11 33 -34.5 52t-54.5 19z" />
    <glyph glyph-name="ecircumflex" unicode="&#xea;" horiz-adv-x="590" 
d="M300 641l-73 -67h-112l108 154h155l109 -154h-113zM300 132q61 0 115 43l106 -107q-34 -35 -94 -57.5t-119 -22.5q-124 0 -202.5 76.5t-78.5 195.5q0 118 76.5 193.5t196.5 75.5q125 0 194.5 -83.5t69.5 -232.5h-366q11 -37 38.5 -59t63.5 -22zM300 385q-34 0 -60 -19
t-39 -52h188q-11 33 -34.5 52t-54.5 19z" />
    <glyph glyph-name="edieresis" unicode="&#xeb;" horiz-adv-x="590" 
d="M188 575q-37 0 -62 25.5t-25 61.5q0 35 25 60.5t62 25.5q35 0 60.5 -25.5t25.5 -60.5q0 -36 -25.5 -61.5t-60.5 -25.5zM413 575q-37 0 -62 25.5t-25 61.5q0 35 25.5 60.5t61.5 25.5t61 -25.5t25 -60.5q0 -36 -25 -61.5t-61 -25.5zM300 132q61 0 115 43l106 -107
q-34 -35 -94 -57.5t-119 -22.5q-124 0 -202.5 76.5t-78.5 195.5q0 118 76.5 193.5t196.5 75.5q125 0 194.5 -83.5t69.5 -232.5h-366q11 -37 38.5 -59t63.5 -22zM300 385q-34 0 -60 -19t-39 -52h188q-11 33 -34.5 52t-54.5 19z" />
    <glyph glyph-name="igrave" unicode="&#xec;" horiz-adv-x="304" 
d="M89 574l-152 136l166 28l112 -164h-126zM55 0v517h193v-517h-193z" />
    <glyph glyph-name="iacute" unicode="&#xed;" horiz-adv-x="304" 
d="M87 574l112 164l166 -28l-152 -136h-126zM55 0v517h193v-517h-193z" />
    <glyph glyph-name="icircumflex" unicode="&#xee;" horiz-adv-x="304" 
d="M-33 574l108 154h155l109 -154h-113l-74 67l-73 -67h-112zM55 0v517h193v-517h-193z" />
    <glyph glyph-name="idieresis" unicode="&#xef;" horiz-adv-x="304" 
d="M40 575q-37 0 -62 25.5t-25 61.5q0 35 25 60.5t62 25.5q35 0 60.5 -25.5t25.5 -60.5q0 -36 -25.5 -61.5t-60.5 -25.5zM265 575q-37 0 -62 25.5t-25 61.5q0 35 25.5 60.5t61.5 25.5t61 -25.5t25 -60.5q0 -36 -25 -61.5t-61 -25.5zM55 0v517h193v-517h-193z" />
    <glyph glyph-name="eth" unicode="&#xf0;" horiz-adv-x="635" 
d="M436 619q88 -82 128 -159t40 -172q0 -132 -80 -216t-205 -84t-204.5 74t-79.5 189q0 106 61.5 173.5t158.5 67.5q84 0 143 -67q-32 63 -111 128l-93 -42l-39 88l43 19l-65 42l168 72q6 -5 25.5 -20l29.5 -23l84 37l39 -88zM320 149q44 0 72 26.5t28 67.5t-28 68t-73 27
q-44 0 -72 -26.5t-28 -67.5q0 -42 28.5 -68.5t72.5 -26.5z" />
    <glyph glyph-name="ntilde" unicode="&#xf1;" horiz-adv-x="628" 
d="M259 612q-28 0 -37 -42l-90 13q8 72 37.5 106.5t83.5 34.5q31 0 77 -20.5t56 -20.5q28 0 37 42l90 -13q-15 -141 -121 -141q-31 0 -77 20.5t-56 20.5zM390 529q83 0 136.5 -56t53.5 -144v-329h-184v284q0 38 -22 61.5t-56 23.5q-32 0 -53 -22.5t-21 -56.5v-290h-193v517
h193v-52q51 64 146 64z" />
    <glyph glyph-name="ograve" unicode="&#xf2;" horiz-adv-x="636" 
d="M302 574l-152 136l166 28l112 -164h-126zM319 -12q-119 0 -205.5 80.5t-86.5 190.5t86.5 190t205.5 80t205 -80t86 -190t-86.5 -190.5t-204.5 -80.5zM319 148q45 0 78 33t33 78t-33 77.5t-78 32.5q-46 0 -79 -32.5t-33 -77.5t33 -78t79 -33z" />
    <glyph glyph-name="oacute" unicode="&#xf3;" horiz-adv-x="636" 
d="M200 574l112 164l166 -28l-152 -136h-126zM319 -12q-119 0 -205.5 80.5t-86.5 190.5t86.5 190t205.5 80t205 -80t86 -190t-86.5 -190.5t-204.5 -80.5zM319 148q45 0 78 33t33 78t-33 77.5t-78 32.5q-46 0 -79 -32.5t-33 -77.5t33 -78t79 -33z" />
    <glyph glyph-name="ocircumflex" unicode="&#xf4;" horiz-adv-x="636" 
d="M134 574l108 154h155l109 -154h-113l-74 67l-73 -67h-112zM319 -12q-119 0 -205.5 80.5t-86.5 190.5t86.5 190t205.5 80t205 -80t86 -190t-86.5 -190.5t-204.5 -80.5zM319 148q45 0 78 33t33 78t-33 77.5t-78 32.5q-46 0 -79 -32.5t-33 -77.5t33 -78t79 -33z" />
    <glyph glyph-name="otilde" unicode="&#xf5;" horiz-adv-x="636" 
d="M388 571q-31 0 -77 20.5t-56 20.5q-28 0 -37 -42l-90 13q8 72 37.5 106.5t83.5 34.5q31 0 77 -20.5t56 -20.5q28 0 37 42l90 -13q-15 -141 -121 -141zM319 -12q-119 0 -205.5 80.5t-86.5 190.5t86.5 190t205.5 80t205 -80t86 -190t-86.5 -190.5t-204.5 -80.5zM319 148
q45 0 78 33t33 78t-33 77.5t-78 32.5q-46 0 -79 -32.5t-33 -77.5t33 -78t79 -33z" />
    <glyph glyph-name="odieresis" unicode="&#xf6;" horiz-adv-x="636" 
d="M207 575q-37 0 -62 25.5t-25 61.5q0 35 25 60.5t62 25.5q35 0 60.5 -25.5t25.5 -60.5q0 -36 -25.5 -61.5t-60.5 -25.5zM432 575q-37 0 -62 25.5t-25 61.5q0 35 25.5 60.5t61.5 25.5t61 -25.5t25 -60.5q0 -36 -25 -61.5t-61 -25.5zM319 -12q-119 0 -205.5 80.5
t-86.5 190.5t86.5 190t205.5 80t205 -80t86 -190t-86.5 -190.5t-204.5 -80.5zM319 148q45 0 78 33t33 78t-33 77.5t-78 32.5q-46 0 -79 -32.5t-33 -77.5t33 -78t79 -33z" />
    <glyph glyph-name="divide" unicode="&#xf7;" horiz-adv-x="609" 
d="M307 442q-42 0 -71 29.5t-29 70.5q0 39 29 67.5t71 28.5q39 0 67.5 -28.5t28.5 -67.5q0 -41 -28 -70.5t-68 -29.5zM55 260v149h499v-149h-499zM307 30q-42 0 -71 29.5t-29 70.5q0 39 29 67.5t71 28.5q39 0 67.5 -28.5t28.5 -67.5q0 -41 -28 -70.5t-68 -29.5z" />
    <glyph glyph-name="oslash" unicode="&#xf8;" horiz-adv-x="636" 
d="M535 438q75 -78 75 -179q0 -110 -86.5 -190.5t-204.5 -80.5q-77 0 -144 36l-21 -24h-120l69 79q-76 78 -76 180q0 110 86.5 190t205.5 80q77 0 144 -36l21 24h120zM207 259q0 -25 11 -47l133 152q-17 5 -32 5q-46 0 -79 -32.5t-33 -77.5zM319 148q45 0 78 33t33 78
q0 24 -11 46l-132 -152q17 -5 32 -5z" />
    <glyph glyph-name="ugrave" unicode="&#xf9;" horiz-adv-x="628" 
d="M421 574h-126l-152 136l166 28zM384 517h193v-517h-193v52q-51 -64 -146 -64q-83 0 -136.5 56t-53.5 144v329h184v-284q0 -38 22 -61.5t56 -23.5q32 0 53 22.5t21 56.5v290z" />
    <glyph glyph-name="uacute" unicode="&#xfa;" horiz-adv-x="628" 
d="M471 710l-152 -136h-126l112 164zM384 517h193v-517h-193v52q-51 -64 -146 -64q-83 0 -136.5 56t-53.5 144v329h184v-284q0 -38 22 -61.5t56 -23.5q32 0 53 22.5t21 56.5v290z" />
    <glyph glyph-name="ucircumflex" unicode="&#xfb;" horiz-adv-x="628" 
d="M312 641l-73 -67h-112l108 154h155l109 -154h-113zM384 517h193v-517h-193v52q-51 -64 -146 -64q-83 0 -136.5 56t-53.5 144v329h184v-284q0 -38 22 -61.5t56 -23.5q32 0 53 22.5t21 56.5v290z" />
    <glyph glyph-name="udieresis" unicode="&#xfc;" horiz-adv-x="628" 
d="M200 575q-37 0 -62 25.5t-25 61.5q0 35 25 60.5t62 25.5q35 0 60.5 -25.5t25.5 -60.5q0 -36 -25.5 -61.5t-60.5 -25.5zM425 575q-37 0 -62 25.5t-25 61.5q0 35 25.5 60.5t61.5 25.5t61 -25.5t25 -60.5q0 -36 -25 -61.5t-61 -25.5zM384 517h193v-517h-193v52
q-51 -64 -146 -64q-83 0 -136.5 56t-53.5 144v329h184v-284q0 -38 22 -61.5t56 -23.5q32 0 53 22.5t21 56.5v290z" />
    <glyph glyph-name="yacute" unicode="&#xfd;" horiz-adv-x="607" 
d="M189 574l112 164l166 -28l-152 -136h-126zM201 -180q-90 0 -161 42l39 124q49 -29 73 -29q41 0 52 16l10 20l-209 524h197l106 -319l100 319h194l-195 -521q-32 -83 -86 -129.5t-120 -46.5z" />
    <glyph glyph-name="thorn" unicode="&#xfe;" 
d="M409 529q104 0 170.5 -75.5t66.5 -194.5t-66.5 -195t-170.5 -76q-100 0 -165 73v-233h-193v871h193v-243q65 73 165 73zM348 148q50 0 82 31t32 80q0 48 -32 79t-82 31q-46 0 -75 -31t-29 -79q0 -49 29 -80t75 -31z" />
    <glyph glyph-name="ydieresis" unicode="&#xff;" horiz-adv-x="607" 
d="M196 575q-37 0 -62 25.5t-25 61.5q0 35 25 60.5t62 25.5q35 0 60.5 -25.5t25.5 -60.5q0 -36 -25.5 -61.5t-60.5 -25.5zM421 575q-37 0 -62 25.5t-25 61.5q0 35 25.5 60.5t61.5 25.5t61 -25.5t25 -60.5q0 -36 -25 -61.5t-61 -25.5zM201 -180q-90 0 -161 42l39 124
q49 -29 73 -29q41 0 52 16l10 20l-209 524h197l106 -319l100 319h194l-195 -521q-32 -83 -86 -129.5t-120 -46.5z" />
    <glyph glyph-name="Amacron" unicode="&#x100;" horiz-adv-x="749" 
d="M559 849v-106h-369v106h369zM529 0l-35 92h-239l-35 -92h-219l264 687h219l264 -687h-219zM310 235h129l-64 167z" />
    <glyph glyph-name="amacron" unicode="&#x101;" horiz-adv-x="587" 
d="M489 679v-106h-369v106h369zM301 529q102 0 170.5 -60.5t68.5 -163.5v-305h-185v37q-54 -49 -133 -49q-84 0 -141.5 46.5t-57.5 118.5q0 75 64 123.5t159 48.5q52 0 109 -23v3q0 37 -30 59t-76 22q-57 0 -125 -35l-59 117q122 61 236 61zM269 102q35 0 59 14.5t27 36.5
v49q-32 16 -82 16q-29 0 -48 -17t-19 -43q0 -25 17.5 -40.5t45.5 -15.5z" />
    <glyph glyph-name="Abreve" unicode="&#x102;" horiz-adv-x="749" 
d="M546 816q-71 -71 -171 -71q-98 0 -171 71l74 74q43 -43 97 -43t97 43zM529 0l-35 92h-239l-35 -92h-219l264 687h219l264 -687h-219zM310 235h129l-64 167z" />
    <glyph glyph-name="abreve" unicode="&#x103;" horiz-adv-x="587" 
d="M476 646q-71 -71 -171 -71q-98 0 -171 71l74 74q43 -43 97 -43t97 43zM301 529q102 0 170.5 -60.5t68.5 -163.5v-305h-185v37q-54 -49 -133 -49q-84 0 -141.5 46.5t-57.5 118.5q0 75 64 123.5t159 48.5q52 0 109 -23v3q0 37 -30 59t-76 22q-57 0 -125 -35l-59 117
q122 61 236 61zM269 102q35 0 59 14.5t27 36.5v49q-32 16 -82 16q-29 0 -48 -17t-19 -43q0 -25 17.5 -40.5t45.5 -15.5z" />
    <glyph glyph-name="Aogonek" unicode="&#x104;" horiz-adv-x="749" 
d="M779 -56l22 -82q-39 -35 -93 -35q-50 0 -81 31t-31 83q0 34 15 59h-82l-35 92h-239l-35 -92h-219l264 687h219l264 -687q-17 0 -27.5 -10t-10.5 -26q0 -30 39 -30q18 0 30 10zM310 235h129l-64 167z" />
    <glyph glyph-name="aogonek" unicode="&#x105;" horiz-adv-x="587" 
d="M571 -56l22 -82q-39 -35 -93 -35q-50 0 -81 31t-31 83q0 34 15 59h-48v37q-54 -49 -133 -49q-84 0 -141.5 46.5t-57.5 118.5q0 75 64 123.5t159 48.5q52 0 109 -23v3q0 37 -30 59t-76 22q-57 0 -125 -35l-59 117q122 61 236 61q102 0 170.5 -60.5t68.5 -163.5v-305
q-17 0 -27.5 -10t-10.5 -26q0 -30 39 -30q18 0 30 10zM269 102q35 0 59 14.5t27 36.5v49q-32 16 -82 16q-29 0 -48 -17t-19 -43q0 -25 17.5 -40.5t45.5 -15.5z" />
    <glyph glyph-name="Cacute" unicode="&#x106;" horiz-adv-x="706" 
d="M264 744l112 164l166 -28l-152 -136h-126zM408 -12q-152 0 -263 105.5t-111 250.5t111 250t263 105q81 0 153.5 -32t125.5 -89l-143 -125q-53 70 -136 70q-71 0 -122.5 -53t-51.5 -126t51.5 -126.5t122.5 -53.5q82 0 137 70l142 -124q-53 -57 -125.5 -89.5t-153.5 -32.5z
" />
    <glyph glyph-name="cacute" unicode="&#x107;" horiz-adv-x="552" 
d="M179 574l112 164l166 -28l-152 -136h-126zM317 -12q-118 0 -204 80.5t-86 190.5t87 190t206 80q132 0 215 -96l-127 -104q-35 40 -90 40q-43 0 -75 -32.5t-32 -76.5q0 -46 32 -79t76 -33q56 0 92 41l127 -102q-86 -99 -221 -99z" />
    <glyph glyph-name="Ccaron" unicode="&#x10c;" horiz-adv-x="706" 
d="M306 744l-108 154h112l73 -67l74 67h113l-109 -154h-155zM408 -12q-152 0 -263 105.5t-111 250.5t111 250t263 105q81 0 153.5 -32t125.5 -89l-143 -125q-53 70 -136 70q-71 0 -122.5 -53t-51.5 -126t51.5 -126.5t122.5 -53.5q82 0 137 70l142 -124q-53 -57 -125.5 -89.5
t-153.5 -32.5z" />
    <glyph glyph-name="ccaron" unicode="&#x10d;" horiz-adv-x="552" 
d="M221 574l-108 154h112l73 -67l74 67h113l-109 -154h-155zM317 -12q-118 0 -204 80.5t-86 190.5t87 190t206 80q132 0 215 -96l-127 -104q-35 40 -90 40q-43 0 -75 -32.5t-32 -76.5q0 -46 32 -79t76 -33q56 0 92 41l127 -102q-86 -99 -221 -99z" />
    <glyph glyph-name="Dcaron" unicode="&#x10e;" horiz-adv-x="760" 
d="M239 744l-108 154h112l73 -67l74 67h113l-109 -154h-155zM60 0v687h256q180 0 295 -96t115 -247t-115 -247.5t-295 -96.5h-256zM254 176h94q78 0 128 47t50 121q0 73 -50 120t-128 47h-94v-335z" />
    <glyph glyph-name="dcaron" unicode="&#x10f;" 
d="M430 456v243h193v-699h-193v61q-65 -73 -165 -73q-104 0 -170.5 76t-66.5 195t66.5 194.5t170.5 75.5q100 0 165 -73zM767 699q38 0 62.5 -32t24.5 -82q0 -87 -93 -164l-46 36q39 31 49 70q-33 0 -57 25t-24 60q0 36 24.5 61.5t59.5 25.5zM326 148q46 0 75 31t29 80
q0 48 -29 79t-75 31q-50 0 -82 -31t-32 -79q0 -49 32 -80t82 -31z" />
    <glyph glyph-name="Dcroat" unicode="&#x110;" horiz-adv-x="818" 
d="M374 687q180 0 295 -96t115 -247t-115 -247.5t-295 -96.5h-256v258h-78v173h78v256h256zM406 176q78 0 128 47t50 121q0 73 -50 120t-128 47h-94v-80h127l-1 -173h-126v-82h94z" />
    <glyph glyph-name="dcroat" unicode="&#x111;" horiz-adv-x="705" 
d="M680 655v-90h-57v-565h-193v61q-65 -73 -165 -73q-104 0 -170.5 76t-66.5 195t66.5 194.5t170.5 75.5q100 0 165 -73v109h-140v90h140v44h193v-44h57zM326 148q46 0 75 31t29 80q0 48 -29 79t-75 31q-50 0 -82 -31t-32 -79q0 -49 32 -80t82 -31z" />
    <glyph glyph-name="Emacron" unicode="&#x112;" horiz-adv-x="651" 
d="M521 849v-106h-369v106h369zM613 514h-359v-77h327v-173h-327v-91h359v-173h-553v687h553v-173z" />
    <glyph glyph-name="emacron" unicode="&#x113;" horiz-adv-x="590" 
d="M484 679v-106h-369v106h369zM300 132q61 0 115 43l106 -107q-34 -35 -94 -57.5t-119 -22.5q-124 0 -202.5 76.5t-78.5 195.5q0 118 76.5 193.5t196.5 75.5q125 0 194.5 -83.5t69.5 -232.5h-366q11 -37 38.5 -59t63.5 -22zM300 385q-34 0 -60 -19t-39 -52h188
q-11 33 -34.5 52t-54.5 19z" />
    <glyph glyph-name="Edotaccent" unicode="&#x116;" horiz-adv-x="651" 
d="M337 745q-37 0 -62 25.5t-25 61.5q0 35 25 60.5t62 25.5q35 0 60.5 -25.5t25.5 -60.5q0 -36 -25.5 -61.5t-60.5 -25.5zM613 514h-359v-77h327v-173h-327v-91h359v-173h-553v687h553v-173z" />
    <glyph glyph-name="edotaccent" unicode="&#x117;" horiz-adv-x="590" 
d="M300 575q-37 0 -62 25.5t-25 61.5q0 35 25 60.5t62 25.5q35 0 60.5 -25.5t25.5 -60.5q0 -36 -25.5 -61.5t-60.5 -25.5zM300 132q61 0 115 43l106 -107q-34 -35 -94 -57.5t-119 -22.5q-124 0 -202.5 76.5t-78.5 195.5q0 118 76.5 193.5t196.5 75.5q125 0 194.5 -83.5
t69.5 -232.5h-366q11 -37 38.5 -59t63.5 -22zM300 385q-34 0 -60 -19t-39 -52h188q-11 33 -34.5 52t-54.5 19z" />
    <glyph glyph-name="Eogonek" unicode="&#x118;" horiz-adv-x="651" 
d="M613 514h-359v-77h327v-173h-327v-91h359v-173h-53q-17 0 -27.5 -10t-10.5 -26q0 -30 39 -30q18 0 30 10l22 -82q-39 -35 -93 -35q-50 0 -81 31t-31 83q0 34 15 59h-363v687h553v-173z" />
    <glyph glyph-name="eogonek" unicode="&#x119;" horiz-adv-x="590" 
d="M521 68q-21 -22 -53 -39q-10 -5 -32 -15q-6 -9 -6 -21q0 -30 39 -30q18 0 30 10l22 -82q-39 -35 -93 -35q-50 0 -81 31t-31 83q0 12 1 18h-9q-124 0 -202.5 76.5t-78.5 195.5q0 118 76.5 193.5t196.5 75.5q125 0 194.5 -83.5t69.5 -232.5h-366q11 -37 38.5 -59t63.5 -22
q61 0 115 43zM300 385q-34 0 -60 -19t-39 -52h188q-11 33 -34.5 52t-54.5 19z" />
    <glyph glyph-name="Ecaron" unicode="&#x11a;" horiz-adv-x="651" 
d="M415 744h-155l-108 154h112l73 -67l74 67h113zM613 514h-359v-77h327v-173h-327v-91h359v-173h-553v687h553v-173z" />
    <glyph glyph-name="ecaron" unicode="&#x11b;" horiz-adv-x="590" 
d="M378 574h-155l-108 154h112l73 -67l74 67h113zM300 132q61 0 115 43l106 -107q-34 -35 -94 -57.5t-119 -22.5q-124 0 -202.5 76.5t-78.5 195.5q0 118 76.5 193.5t196.5 75.5q125 0 194.5 -83.5t69.5 -232.5h-366q11 -37 38.5 -59t63.5 -22zM300 385q-34 0 -60 -19
t-39 -52h188q-11 33 -34.5 52t-54.5 19z" />
    <glyph glyph-name="Gbreve" unicode="&#x11e;" horiz-adv-x="741" 
d="M584 816q-71 -71 -171 -71q-98 0 -171 71l74 74q43 -43 97 -43t97 43zM375 259v143h322v-292q-53 -58 -128 -90t-156 -32q-154 0 -266.5 105.5t-112.5 250.5t112 250t267 105q81 0 156 -32t128 -89l-143 -125q-54 70 -141 70q-73 0 -126 -53t-53 -126t53 -126.5
t126 -53.5q51 0 96 28v67h-134z" />
    <glyph glyph-name="gbreve" unicode="&#x11f;" horiz-adv-x="657" 
d="M516 646q-71 -71 -171 -71q-98 0 -171 71l74 74q43 -43 97 -43t97 43zM412 517h194v-462q0 -100 -82.5 -163.5t-211.5 -63.5q-146 0 -241 69l63 133q22 -19 63 -30.5t84 -11.5q57 0 94 22t37 55v41q-65 -68 -160 -68t-159.5 69.5t-64.5 176.5t64.5 176t159.5 69
q46 0 91 -19.5t69 -49.5v57zM319 198q41 0 67 24.5t26 61.5t-26 61t-67 24t-67 -24t-26 -61t26 -61.5t67 -24.5z" />
    <glyph glyph-name="Gcommaaccent" unicode="&#x122;" horiz-adv-x="741" 
d="M375 259v143h322v-292q-53 -58 -128 -90t-156 -32q-154 0 -266.5 105.5t-112.5 250.5t112 250t267 105q81 0 156 -32t128 -89l-143 -125q-54 70 -141 70q-73 0 -126 -53t-53 -126t53 -126.5t126 -53.5q51 0 96 28v67h-134zM412 -23q38 0 62.5 -32t24.5 -82
q0 -87 -93 -164l-46 36q39 31 49 70q-33 0 -57 25t-24 60q0 36 24.5 61.5t59.5 25.5z" />
    <glyph glyph-name="gcommaaccent" unicode="&#x123;" horiz-adv-x="657" 
d="M321 575q-38 0 -62.5 32t-24.5 82q0 87 93 164l46 -36q-39 -31 -49 -70q33 0 57 -25t24 -60q0 -36 -24.5 -61.5t-59.5 -25.5zM412 517h194v-462q0 -100 -82.5 -163.5t-211.5 -63.5q-146 0 -241 69l63 133q22 -19 63 -30.5t84 -11.5q57 0 94 22t37 55v41q-65 -68 -160 -68
t-159.5 69.5t-64.5 176.5t64.5 176t159.5 69q46 0 91 -19.5t69 -49.5v57zM319 198q41 0 67 24.5t26 61.5t-26 61t-67 24t-67 -24t-26 -61t26 -61.5t67 -24.5z" />
    <glyph glyph-name="Imacron" unicode="&#x12a;" horiz-adv-x="321" 
d="M-24 743v106h369v-106h-369zM64 0v687h194v-687h-194z" />
    <glyph glyph-name="imacron" unicode="&#x12b;" horiz-adv-x="304" 
d="M-33 573v106h369v-106h-369zM55 0v517h193v-517h-193z" />
    <glyph glyph-name="Iogonek" unicode="&#x12e;" horiz-adv-x="321" 
d="M259 -56l22 -82q-38 -35 -93 -35q-50 0 -81 31t-31 83q0 34 15 59h-27v687h194v-687h-30q-17 0 -27.5 -10t-10.5 -26q0 -30 39 -30q18 0 30 10z" />
    <glyph glyph-name="iogonek" unicode="&#x12f;" horiz-adv-x="304" 
d="M152 575q-37 0 -62 25.5t-25 61.5q0 35 25 60.5t62 25.5q35 0 60.5 -25.5t25.5 -60.5q0 -36 -25.5 -61.5t-60.5 -25.5zM152 0q-17 0 -27.5 -10t-10.5 -26q0 -30 39 -30q18 0 30 10l22 -82q-39 -35 -93 -35q-50 0 -81 31t-31 83q0 61 51 97l4 -2v481h193v-517h-96z" />
    <glyph glyph-name="Idotaccent" unicode="&#x130;" horiz-adv-x="321" 
d="M161 745q-37 0 -62 25.5t-25 61.5q0 35 25 60.5t62 25.5q35 0 60.5 -25.5t25.5 -60.5q0 -36 -25.5 -61.5t-60.5 -25.5zM64 0v687h194v-687h-194z" />
    <glyph glyph-name="dotlessi" unicode="&#x131;" horiz-adv-x="304" 
d="M55 0v517h193v-517h-193z" />
    <glyph glyph-name="Kcommaaccent" unicode="&#x136;" horiz-adv-x="725" 
d="M60 0v687h194v-271l231 271h229l-254 -287l274 -400h-232l-177 260l-71 -78v-182h-194zM368 -301l-46 36q39 31 49 70q-33 0 -57 25t-24 60q0 36 24.5 61.5t59.5 25.5q38 0 62.5 -32t24.5 -82q0 -87 -93 -164z" />
    <glyph glyph-name="kcommaaccent" unicode="&#x137;" horiz-adv-x="590" 
d="M244 119v-119h-193v699h193v-364l133 182h216l-181 -223l185 -294h-216l-95 171zM311 -23q38 0 62.5 -32t24.5 -82q0 -87 -93 -164l-46 36q39 31 49 70q-33 0 -57 25t-24 60q0 36 24.5 61.5t59.5 25.5z" />
    <glyph glyph-name="Lacute" unicode="&#x139;" horiz-adv-x="597" 
d="M366 880l-152 -136h-126l112 164zM254 173h320v-173h-514v687h194v-514z" />
    <glyph glyph-name="lacute" unicode="&#x13a;" horiz-adv-x="303" 
d="M85 756l112 164l166 -28l-152 -136h-126zM55 0v699h193v-699h-193z" />
    <glyph glyph-name="Lcaron" unicode="&#x13d;" horiz-adv-x="597" 
d="M395 526q-33 0 -57 25t-24 60q0 36 24.5 61.5t59.5 25.5q38 0 62.5 -32t24.5 -82q0 -87 -93 -164l-46 36q39 32 49 70zM254 173h320v-173h-514v687h194v-514z" />
    <glyph glyph-name="lcaron" unicode="&#x13e;" horiz-adv-x="303" 
d="M55 0v699h193v-699h-193zM386 421l-46 36q39 31 49 70q-33 0 -57 25t-24 60q0 36 24.5 61.5t59.5 25.5q38 0 62.5 -32t24.5 -82q0 -87 -93 -164z" />
    <glyph glyph-name="Lslash" unicode="&#x141;" horiz-adv-x="623" 
d="M280 173h320v-173h-514v211l-68 -33v167l68 33v309h194v-213l104 51v-167l-104 -51v-134z" />
    <glyph glyph-name="lslash" unicode="&#x142;" horiz-adv-x="384" 
d="M366 517v-167l-78 -39v-311h-193v216l-77 -38v167l77 38v316h193v-221z" />
    <glyph glyph-name="Nacute" unicode="&#x143;" horiz-adv-x="776" 
d="M269 744l112 164l166 -28l-152 -136h-126zM60 0v687h194l268 -368v368h194v-687h-194l-268 368v-368h-194z" />
    <glyph glyph-name="nacute" unicode="&#x144;" horiz-adv-x="628" 
d="M482 710l-152 -136h-126l112 164zM390 529q83 0 136.5 -56t53.5 -144v-329h-184v284q0 38 -22 61.5t-56 23.5q-32 0 -53 -22.5t-21 -56.5v-290h-193v517h193v-52q51 64 146 64z" />
    <glyph glyph-name="Ncommaaccent" unicode="&#x145;" horiz-adv-x="776" 
d="M60 0v687h194l268 -368v368h194v-687h-194l-268 368v-368h-194zM382 -301l-46 36q39 31 49 70q-33 0 -57 25t-24 60q0 36 24.5 61.5t59.5 25.5q38 0 62.5 -32t24.5 -82q0 -87 -93 -164z" />
    <glyph glyph-name="ncommaaccent" unicode="&#x146;" horiz-adv-x="628" 
d="M390 529q83 0 136.5 -56t53.5 -144v-329h-184v284q0 38 -22 61.5t-56 23.5q-32 0 -53 -22.5t-21 -56.5v-290h-193v517h193v-52q51 64 146 64zM323 -23q38 0 62.5 -32t24.5 -82q0 -87 -93 -164l-46 36q39 31 49 70q-33 0 -57 25t-24 60q0 36 24.5 61.5t59.5 25.5z" />
    <glyph glyph-name="Ncaron" unicode="&#x147;" horiz-adv-x="776" 
d="M311 744l-108 154h112l73 -67l74 67h113l-109 -154h-155zM60 0v687h194l268 -368v368h194v-687h-194l-268 368v-368h-194z" />
    <glyph glyph-name="ncaron" unicode="&#x148;" horiz-adv-x="628" 
d="M401 574h-155l-108 154h112l73 -67l74 67h113zM390 529q83 0 136.5 -56t53.5 -144v-329h-184v284q0 38 -22 61.5t-56 23.5q-32 0 -53 -22.5t-21 -56.5v-290h-193v517h193v-52q51 64 146 64z" />
    <glyph glyph-name="Omacron" unicode="&#x14c;" horiz-adv-x="815" 
d="M223 743v106h369v-106h-369zM408 -12q-152 0 -263 105.5t-111 250.5t111 250t263 105t263 -105t111 -250t-111 -250.5t-263 -105.5zM408 164q71 0 122.5 53.5t51.5 126.5t-51.5 126t-122.5 53t-122.5 -53t-51.5 -126t51.5 -126.5t122.5 -53.5z" />
    <glyph glyph-name="omacron" unicode="&#x14d;" horiz-adv-x="636" 
d="M134 573v106h369v-106h-369zM319 -12q-119 0 -205.5 80.5t-86.5 190.5t86.5 190t205.5 80t205 -80t86 -190t-86.5 -190.5t-204.5 -80.5zM319 148q45 0 78 33t33 78t-33 77.5t-78 32.5q-46 0 -79 -32.5t-33 -77.5t33 -78t79 -33z" />
    <glyph glyph-name="Ohungarumlaut" unicode="&#x150;" horiz-adv-x="815" 
d="M206 744l112 164l166 -28l-152 -136h-126zM464 744l112 164l166 -28l-152 -136h-126zM408 -12q-152 0 -263 105.5t-111 250.5t111 250t263 105t263 -105t111 -250t-111 -250.5t-263 -105.5zM408 164q71 0 122.5 53.5t51.5 126.5t-51.5 126t-122.5 53t-122.5 -53
t-51.5 -126t51.5 -126.5t122.5 -53.5z" />
    <glyph glyph-name="ohungarumlaut" unicode="&#x151;" horiz-adv-x="636" 
d="M120 574l112 164l166 -28l-152 -136h-126zM378 574l112 164l166 -28l-152 -136h-126zM319 -12q-119 0 -205.5 80.5t-86.5 190.5t86.5 190t205.5 80t205 -80t86 -190t-86.5 -190.5t-204.5 -80.5zM319 148q45 0 78 33t33 78t-33 77.5t-78 32.5q-46 0 -79 -32.5t-33 -77.5
t33 -78t79 -33z" />
    <glyph glyph-name="OE" unicode="&#x152;" horiz-adv-x="1046" 
d="M1008 514h-359v-77h327v-173h-327v-91h359v-173h-600q-153 0 -263.5 100t-110.5 244t110 243.5t264 99.5h600v-173zM408 176h47v335h-47q-72 0 -123 -47.5t-51 -119.5t51 -120t123 -48z" />
    <glyph glyph-name="oe" unicode="&#x153;" horiz-adv-x="998" 
d="M708 132q61 0 115 43l106 -107q-34 -35 -94 -57.5t-119 -22.5q-121 0 -200 74q-84 -74 -197 -74q-119 0 -205.5 80.5t-86.5 190.5t86.5 190t205.5 80q113 0 196 -72q75 72 193 72q125 0 194.5 -83.5t69.5 -232.5h-366q11 -37 38.5 -59t63.5 -22zM708 385q-34 0 -60 -19
t-39 -52h188q-11 33 -34.5 52t-54.5 19zM319 148q45 0 78 33t33 78t-33 77.5t-78 32.5q-46 0 -79 -32.5t-33 -77.5t33 -78t79 -33z" />
    <glyph glyph-name="Racute" unicode="&#x154;" horiz-adv-x="697" 
d="M501 880l-152 -136h-126l112 164zM680 0h-221l-145 207h-60v-207h-194v687h329q116 0 189.5 -67t73.5 -173q0 -73 -36 -128.5t-100 -85.5zM254 511v-128h119q34 0 56.5 18t22.5 46t-22.5 46t-56.5 18h-119z" />
    <glyph glyph-name="racute" unicode="&#x155;" horiz-adv-x="421" 
d="M387 710l-152 -136h-126l112 164zM244 425q26 49 68 76.5t94 27.5v-160q-76 0 -119 -39.5t-43 -110.5v-219h-193v517h193v-92z" />
    <glyph glyph-name="Rcommaaccent" unicode="&#x156;" horiz-adv-x="697" 
d="M516 233l164 -233h-221l-145 207h-60v-207h-194v687h329q116 0 189.5 -67t73.5 -173q0 -73 -36 -128.5t-100 -85.5zM254 511v-128h119q34 0 56.5 18t22.5 46t-22.5 46t-56.5 18h-119zM349 -23q38 0 62.5 -32t24.5 -82q0 -87 -93 -164l-46 36q39 31 49 70q-33 0 -57 25
t-24 60q0 36 24.5 61.5t59.5 25.5z" />
    <glyph glyph-name="rcommaaccent" unicode="&#x157;" horiz-adv-x="421" 
d="M244 425q26 49 68 76.5t94 27.5v-160q-76 0 -119 -39.5t-43 -110.5v-219h-193v517h193v-92zM208 -23q38 0 62.5 -32t24.5 -82q0 -87 -93 -164l-46 36q39 31 49 70q-33 0 -57 25t-24 60q0 36 24.5 61.5t59.5 25.5z" />
    <glyph glyph-name="Rcaron" unicode="&#x158;" horiz-adv-x="697" 
d="M420 744h-155l-108 154h112l73 -67l74 67h113zM680 0h-221l-145 207h-60v-207h-194v687h329q116 0 189.5 -67t73.5 -173q0 -73 -36 -128.5t-100 -85.5zM254 511v-128h119q34 0 56.5 18t22.5 46t-22.5 46t-56.5 18h-119z" />
    <glyph glyph-name="rcaron" unicode="&#x159;" horiz-adv-x="421" 
d="M306 574h-155l-108 154h112l73 -67l74 67h113zM244 425q26 49 68 76.5t94 27.5v-160q-76 0 -119 -39.5t-43 -110.5v-219h-193v517h193v-92z" />
    <glyph glyph-name="Sacute" unicode="&#x15a;" horiz-adv-x="646" 
d="M193 744l112 164l166 -28l-152 -136h-126zM336 -12q-197 0 -328 116l108 129q107 -84 227 -84q81 0 81 48q0 23 -20.5 32.5t-98.5 27.5q-51 12 -85.5 22t-71 27.5t-58 38.5t-35.5 53.5t-14 74.5q0 103 74.5 164.5t196.5 61.5q172 0 288 -93l-97 -137q-96 69 -196 69
q-34 0 -52 -12.5t-18 -32.5q0 -26 23.5 -38.5t98.5 -28.5q66 -14 109 -29t80 -38.5t54 -58t17 -82.5q0 -108 -76.5 -169t-206.5 -61z" />
    <glyph glyph-name="sacute" unicode="&#x15b;" horiz-adv-x="506" 
d="M131 574l112 164l166 -28l-152 -136h-126zM257 -12q-68 0 -133.5 20.5t-112.5 57.5l72 117q38 -27 88 -44t91 -17q49 0 49 26q0 22 -78 38q-27 6 -41.5 9.5t-38.5 11t-38 14.5t-31.5 20t-27 27.5t-16 36t-6.5 46.5q0 77 58.5 127.5t157.5 50.5q113 0 216 -68l-65 -118
q-84 55 -151 55q-20 0 -32.5 -8.5t-12.5 -20.5q0 -14 31 -22q2 0 44 -10q34 -8 57.5 -14.5t53.5 -20.5t48 -31t30.5 -45t12.5 -63q0 -81 -60 -128t-165 -47z" />
    <glyph glyph-name="Scedilla" unicode="&#x15e;" horiz-adv-x="646" 
d="M619 218q0 -100 -66.5 -160.5t-181.5 -68.5l-14 -31q33 -1 53 -20.5t20 -48.5q0 -41 -32 -65t-83 -24q-58 0 -99 30l31 68q28 -23 58 -23q15 0 25.5 6.5t10.5 18.5q0 22 -28 22q-14 0 -27 -8l-26 24l22 52q-164 16 -274 114l108 129q107 -84 227 -84q81 0 81 48
q0 23 -20.5 32.5t-98.5 27.5q-51 12 -85.5 22t-71 27.5t-58 38.5t-35.5 53.5t-14 74.5q0 103 74.5 164.5t196.5 61.5q172 0 288 -93l-97 -137q-96 69 -196 69q-34 0 -52 -12.5t-18 -32.5q0 -26 23.5 -38.5t98.5 -28.5q66 -14 109 -29t80 -38.5t54 -58t17 -82.5z" />
    <glyph glyph-name="scedilla" unicode="&#x15f;" horiz-adv-x="506" 
d="M482 163q0 -72 -48.5 -117.5t-134.5 -55.5l-14 -32q33 -1 53 -20.5t20 -48.5q0 -41 -32 -65t-83 -24q-58 0 -99 30l31 68q28 -23 58 -23q15 0 25.5 6.5t10.5 18.5q0 22 -28 22q-14 0 -27 -8l-26 24l22 53q-120 13 -199 75l72 117q38 -27 88 -44t91 -17q49 0 49 26
q0 22 -78 38q-27 6 -41.5 9.5t-38.5 11t-38 14.5t-31.5 20t-27 27.5t-16 36t-6.5 46.5q0 77 58.5 127.5t157.5 50.5q113 0 216 -68l-65 -118q-84 55 -151 55q-20 0 -32.5 -8.5t-12.5 -20.5q0 -14 31 -22q2 0 44 -10q34 -8 57.5 -14.5t53.5 -20.5t48 -31t30.5 -45t12.5 -63z
" />
    <glyph glyph-name="Scaron" unicode="&#x160;" horiz-adv-x="646" 
d="M235 744l-108 154h112l73 -67l74 67h113l-109 -154h-155zM336 -12q-197 0 -328 116l108 129q107 -84 227 -84q81 0 81 48q0 23 -20.5 32.5t-98.5 27.5q-51 12 -85.5 22t-71 27.5t-58 38.5t-35.5 53.5t-14 74.5q0 103 74.5 164.5t196.5 61.5q172 0 288 -93l-97 -137
q-96 69 -196 69q-34 0 -52 -12.5t-18 -32.5q0 -26 23.5 -38.5t98.5 -28.5q66 -14 109 -29t80 -38.5t54 -58t17 -82.5q0 -108 -76.5 -169t-206.5 -61z" />
    <glyph glyph-name="scaron" unicode="&#x161;" horiz-adv-x="506" 
d="M173 574l-108 154h112l73 -67l74 67h113l-109 -154h-155zM257 -12q-68 0 -133.5 20.5t-112.5 57.5l72 117q38 -27 88 -44t91 -17q49 0 49 26q0 22 -78 38q-27 6 -41.5 9.5t-38.5 11t-38 14.5t-31.5 20t-27 27.5t-16 36t-6.5 46.5q0 77 58.5 127.5t157.5 50.5
q113 0 216 -68l-65 -118q-84 55 -151 55q-20 0 -32.5 -8.5t-12.5 -20.5q0 -14 31 -22q2 0 44 -10q34 -8 57.5 -14.5t53.5 -20.5t48 -31t30.5 -45t12.5 -63q0 -81 -60 -128t-165 -47z" />
    <glyph glyph-name="uni0162" unicode="&#x162;" horiz-adv-x="645" 
d="M420 0h-48l-18 -42q33 -1 53 -20.5t20 -48.5q0 -41 -32 -65t-83 -24q-58 0 -99 30l31 68q28 -23 58 -23q15 0 25.5 6.5t10.5 18.5q0 22 -28 22q-14 0 -27 -8l-26 24l26 62h-57v514h-203v173h600v-173h-203v-514z" />
    <glyph glyph-name="uni0163" unicode="&#x163;" horiz-adv-x="416" 
d="M294 -42q33 -1 53 -20.5t20 -48.5q0 -41 -32 -65t-83 -24q-58 0 -99 30l31 68q28 -23 58 -23q15 0 25.5 6.5t10.5 18.5q0 22 -28 22q-14 0 -27 -8l-26 24l23 54q-62 11 -99.5 57.5t-37.5 113.5v202h-65v152h65v142h184v-142h102v-152h-102v-164q0 -23 12.5 -38t31.5 -15
q30 0 47 15l33 -122q-30 -30 -80 -45z" />
    <glyph glyph-name="Tcaron" unicode="&#x164;" horiz-adv-x="645" 
d="M246 744l-108 154h112l73 -67l74 67h113l-109 -154h-155zM226 0v514h-203v173h600v-173h-203v-514h-194z" />
    <glyph glyph-name="tcaron" unicode="&#x165;" horiz-adv-x="416" 
d="M512 699q38 0 62.5 -32t24.5 -82q0 -87 -93 -164l-46 36q39 31 49 70q-33 0 -57 25t-24 60q0 36 24.5 61.5t59.5 25.5zM311 148q30 0 47 15l33 -122q-24 -23 -61.5 -38t-71.5 -15q-77 0 -126 49t-49 126v202h-65v152h65v142h184v-142h102v-152h-102v-164q0 -23 12.5 -38
t31.5 -15z" />
    <glyph glyph-name="Umacron" unicode="&#x16a;" horiz-adv-x="761" 
d="M196 743v106h369v-106h-369zM381 -12q-144 0 -235.5 88.5t-91.5 228.5v382h194v-372q0 -66 37.5 -108.5t95.5 -42.5t95.5 42.5t37.5 108.5v372h194v-382q0 -140 -91.5 -228.5t-235.5 -88.5z" />
    <glyph glyph-name="umacron" unicode="&#x16b;" horiz-adv-x="628" 
d="M496 679v-106h-369v106h369zM384 517h193v-517h-193v52q-51 -64 -146 -64q-83 0 -136.5 56t-53.5 144v329h184v-284q0 -38 22 -61.5t56 -23.5q32 0 53 22.5t21 56.5v290z" />
    <glyph glyph-name="Uring" unicode="&#x16e;" horiz-adv-x="761" 
d="M381 745q-50 0 -85.5 35.5t-35.5 85.5t35.5 85.5t85.5 35.5t85.5 -35.5t35.5 -85.5t-35.5 -85.5t-85.5 -35.5zM381 817q20 0 34.5 14.5t14.5 34.5t-14.5 34.5t-34.5 14.5t-34.5 -14.5t-14.5 -34.5t14.5 -34.5t34.5 -14.5zM381 -12q-144 0 -235.5 88.5t-91.5 228.5v382
h194v-372q0 -66 37.5 -108.5t95.5 -42.5t95.5 42.5t37.5 108.5v372h194v-382q0 -140 -91.5 -228.5t-235.5 -88.5z" />
    <glyph glyph-name="uring" unicode="&#x16f;" horiz-adv-x="628" 
d="M312 575q-50 0 -85.5 35.5t-35.5 85.5t35.5 85.5t85.5 35.5t85.5 -35.5t35.5 -85.5t-35.5 -85.5t-85.5 -35.5zM312 745q-20 0 -34.5 -14.5t-14.5 -34.5t14.5 -34.5t34.5 -14.5t34.5 14.5t14.5 34.5t-14.5 34.5t-34.5 14.5zM384 517h193v-517h-193v52q-51 -64 -146 -64
q-83 0 -136.5 56t-53.5 144v329h184v-284q0 -38 22 -61.5t56 -23.5q32 0 53 22.5t21 56.5v290z" />
    <glyph glyph-name="Uhungarumlaut" unicode="&#x170;" horiz-adv-x="761" 
d="M163 744l112 164l166 -28l-152 -136h-126zM421 744l112 164l166 -28l-152 -136h-126zM381 -12q-144 0 -235.5 88.5t-91.5 228.5v382h194v-372q0 -66 37.5 -108.5t95.5 -42.5t95.5 42.5t37.5 108.5v372h194v-382q0 -140 -91.5 -228.5t-235.5 -88.5z" />
    <glyph glyph-name="uhungarumlaut" unicode="&#x171;" horiz-adv-x="628" 
d="M382 710l-152 -136h-126l112 164zM488 574h-126l112 164l166 -28zM384 227v290h193v-517h-193v52q-51 -64 -146 -64q-83 0 -136.5 56t-53.5 144v329h184v-284q0 -38 22 -61.5t56 -23.5q32 0 53 22.5t21 56.5z" />
    <glyph glyph-name="Uogonek" unicode="&#x172;" horiz-adv-x="761" 
d="M514 687h194v-382q0 -133 -83.5 -220.5t-218.5 -95.5q-9 -10 -9 -25q0 -30 39 -30q18 0 30 10l22 -82q-39 -35 -93 -35q-50 0 -81 31t-31 83q0 30 13 56q-110 25 -176 108t-66 200v382h194v-372q0 -66 37.5 -108.5t95.5 -42.5t95.5 42.5t37.5 108.5v372z" />
    <glyph glyph-name="uogonek" unicode="&#x173;" horiz-adv-x="628" 
d="M608 -56l22 -82q-38 -35 -93 -35q-50 0 -81 31t-31 83q0 34 15 59h-56v52q-51 -64 -146 -64q-83 0 -136.5 56t-53.5 144v329h184v-284q0 -38 22 -61.5t56 -23.5q32 0 53 22.5t21 56.5v290h193v-517q-17 0 -27.5 -10t-10.5 -26q0 -30 39 -30q18 0 30 10z" />
    <glyph glyph-name="Wcircumflex" unicode="&#x174;" horiz-adv-x="1076" 
d="M354 744l108 154h155l109 -154h-113l-74 67l-73 -67h-112zM199 0l-191 687h209l84 -397l133 397h209l132 -397l84 397h209l-190 -687h-196l-143 397l-144 -397h-196z" />
    <glyph glyph-name="wcircumflex" unicode="&#x175;" horiz-adv-x="847" 
d="M239 574l108 154h155l109 -154h-113l-74 67l-73 -67h-112zM185 0l-178 517h185l77 -258l76 258h158l77 -258l76 258h185l-176 -517h-171l-70 266l-68 -266h-171z" />
    <glyph glyph-name="Ycircumflex" unicode="&#x176;" horiz-adv-x="709" 
d="M170 744l108 154h155l109 -154h-113l-74 67l-73 -67h-112zM258 0v226l-264 461h222l139 -279l147 279h213l-263 -461v-226h-194z" />
    <glyph glyph-name="ycircumflex" unicode="&#x177;" horiz-adv-x="607" 
d="M123 574l108 154h155l109 -154h-113l-74 67l-73 -67h-112zM201 -180q-90 0 -161 42l39 124q49 -29 73 -29q41 0 52 16l10 20l-209 524h197l106 -319l100 319h194l-195 -521q-32 -83 -86 -129.5t-120 -46.5z" />
    <glyph glyph-name="Ydieresis" unicode="&#x178;" horiz-adv-x="709" 
d="M243 745q-37 0 -62 25.5t-25 61.5q0 35 25 60.5t62 25.5q35 0 60.5 -25.5t25.5 -60.5q0 -36 -25.5 -61.5t-60.5 -25.5zM468 745q-37 0 -62 25.5t-25 61.5q0 35 25.5 60.5t61.5 25.5t61 -25.5t25 -60.5q0 -36 -25 -61.5t-61 -25.5zM258 0v226l-264 461h222l139 -279
l147 279h213l-263 -461v-226h-194z" />
    <glyph glyph-name="Zacute" unicode="&#x179;" horiz-adv-x="675" 
d="M224 744l112 164l166 -28l-152 -136h-126zM41 0l-1 145l326 369h-318v173h584v-145l-324 -369h329v-173h-596z" />
    <glyph glyph-name="zacute" unicode="&#x17a;" horiz-adv-x="544" 
d="M160 574l112 164l166 -28l-152 -136h-126zM33 0v133l229 224h-222v160h472l-1 -133l-229 -224h232v-160h-481z" />
    <glyph glyph-name="Zdotaccent" unicode="&#x17b;" horiz-adv-x="675" 
d="M343 745q-37 0 -62 25.5t-25 61.5q0 35 25 60.5t62 25.5q35 0 60.5 -25.5t25.5 -60.5q0 -36 -25.5 -61.5t-60.5 -25.5zM41 0l-1 145l326 369h-318v173h584v-145l-324 -369h329v-173h-596z" />
    <glyph glyph-name="zdotaccent" unicode="&#x17c;" horiz-adv-x="544" 
d="M279 575q-37 0 -62 25.5t-25 61.5q0 35 25 60.5t62 25.5q35 0 60.5 -25.5t25.5 -60.5q0 -36 -25.5 -61.5t-60.5 -25.5zM33 0v133l229 224h-222v160h472l-1 -133l-229 -224h232v-160h-481z" />
    <glyph glyph-name="Zcaron" unicode="&#x17d;" horiz-adv-x="675" 
d="M266 744l-108 154h112l73 -67l74 67h113l-109 -154h-155zM41 0l-1 145l326 369h-318v173h584v-145l-324 -369h329v-173h-596z" />
    <glyph glyph-name="zcaron" unicode="&#x17e;" horiz-adv-x="544" 
d="M202 574l-108 154h112l73 -67l74 67h113l-109 -154h-155zM33 0v133l229 224h-222v160h472l-1 -133l-229 -224h232v-160h-481z" />
    <glyph glyph-name="uni0237" unicode="&#x237;" horiz-adv-x="304" 
d="M64 -178q-70 0 -118 24l18 139q19 -8 47 -8q19 0 31.5 15t12.5 38v487h193v-511q0 -81 -51.5 -132.5t-132.5 -51.5z" />
    <glyph glyph-name="circumflex" unicode="&#x2c6;" horiz-adv-x="498" 
d="M63 574l108 154h155l109 -154h-113l-74 67l-73 -67h-112z" />
    <glyph glyph-name="caron" unicode="&#x2c7;" horiz-adv-x="498" 
d="M171 574l-108 154h112l73 -67l74 67h113l-109 -154h-155z" />
    <glyph glyph-name="breve" unicode="&#x2d8;" horiz-adv-x="468" 
d="M234 575q-98 0 -171 71l74 74q43 -43 97 -43t97 43l74 -74q-71 -71 -171 -71z" />
    <glyph glyph-name="dotaccent" unicode="&#x2d9;" horiz-adv-x="299" 
d="M150 575q-37 0 -62 25.5t-25 61.5q0 35 25 60.5t62 25.5q35 0 60.5 -25.5t25.5 -60.5q0 -36 -25.5 -61.5t-60.5 -25.5z" />
    <glyph glyph-name="ring" unicode="&#x2da;" horiz-adv-x="368" 
d="M184 575q-50 0 -85.5 35.5t-35.5 85.5t35.5 85.5t85.5 35.5t85.5 -35.5t35.5 -85.5t-35.5 -85.5t-85.5 -35.5zM184 647q20 0 34.5 14.5t14.5 34.5t-14.5 34.5t-34.5 14.5t-34.5 -14.5t-14.5 -34.5t14.5 -34.5t34.5 -14.5z" />
    <glyph glyph-name="ogonek" unicode="&#x2db;" horiz-adv-x="331" 
d="M175 -173q-50 0 -81 31t-31 83q0 61 51 97l101 -38q-17 0 -27.5 -10t-10.5 -26q0 -30 39 -30q18 0 30 10l22 -82q-39 -35 -93 -35z" />
    <glyph glyph-name="tilde" unicode="&#x2dc;" horiz-adv-x="439" 
d="M289 571q-31 0 -77 20.5t-56 20.5q-28 0 -37 -42l-90 13q8 72 37.5 106.5t83.5 34.5q31 0 77.5 -20.5t55.5 -20.5q28 0 37 42l90 -13q-15 -141 -121 -141z" />
    <glyph glyph-name="hungarumlaut" unicode="&#x2dd;" horiz-adv-x="662" 
d="M63 574l112 164l166 -28l-152 -136h-126zM321 574l112 164l166 -28l-152 -136h-126z" />
    <glyph glyph-name="uni0326" unicode="&#x326;" horiz-adv-x="0" 
d="M-164 -301l-46 36q39 31 49 70q-33 0 -57 25t-24 60q0 36 24.5 61.5t59.5 25.5q38 0 62.5 -32t24.5 -82q0 -87 -93 -164z" />
    <glyph glyph-name="Wgrave" unicode="&#x1e80;" horiz-adv-x="1076" 
d="M477 744l-152 136l166 28l112 -164h-126zM199 0l-191 687h209l84 -397l133 397h209l132 -397l84 397h209l-190 -687h-196l-143 397l-144 -397h-196z" />
    <glyph glyph-name="wgrave" unicode="&#x1e81;" horiz-adv-x="847" 
d="M363 574l-152 136l166 28l112 -164h-126zM185 0l-178 517h185l77 -258l76 258h158l77 -258l76 258h185l-176 -517h-171l-70 266l-68 -266h-171z" />
    <glyph glyph-name="Wacute" unicode="&#x1e82;" horiz-adv-x="1076" 
d="M472 744l112 164l166 -28l-152 -136h-126zM199 0l-191 687h209l84 -397l133 397h209l132 -397l84 397h209l-190 -687h-196l-143 397l-144 -397h-196z" />
    <glyph glyph-name="wacute" unicode="&#x1e83;" horiz-adv-x="847" 
d="M360 574l112 164l166 -28l-152 -136h-126zM185 0l-178 517h185l77 -258l76 258h158l77 -258l76 258h185l-176 -517h-171l-70 266l-68 -266h-171z" />
    <glyph glyph-name="Wdieresis" unicode="&#x1e84;" horiz-adv-x="1076" 
d="M427 745q-37 0 -62 25.5t-25 61.5q0 35 25 60.5t62 25.5q35 0 60.5 -25.5t25.5 -60.5q0 -36 -25.5 -61.5t-60.5 -25.5zM652 745q-37 0 -62 25.5t-25 61.5q0 35 25.5 60.5t61.5 25.5t61 -25.5t25 -60.5q0 -36 -25 -61.5t-61 -25.5zM199 0l-191 687h209l84 -397l133 397
h209l132 -397l84 397h209l-190 -687h-196l-143 397l-144 -397h-196z" />
    <glyph glyph-name="wdieresis" unicode="&#x1e85;" horiz-adv-x="847" 
d="M312 575q-37 0 -62 25.5t-25 61.5q0 35 25 60.5t62 25.5q35 0 60.5 -25.5t25.5 -60.5q0 -36 -25.5 -61.5t-60.5 -25.5zM537 575q-37 0 -62 25.5t-25 61.5q0 35 25.5 60.5t61.5 25.5t61 -25.5t25 -60.5q0 -36 -25 -61.5t-61 -25.5zM185 0l-178 517h185l77 -258l76 258h158
l77 -258l76 258h185l-176 -517h-171l-70 266l-68 -266h-171z" />
    <glyph glyph-name="uni1EB8" unicode="&#x1eb8;" horiz-adv-x="651" 
d="M613 514h-359v-77h327v-173h-327v-91h359v-173h-553v687h553v-173zM338 -64q35 0 60.5 -25.5t25.5 -60.5q0 -36 -25.5 -61.5t-60.5 -25.5q-37 0 -62 25.5t-25 61.5q0 35 25 60.5t62 25.5z" />
    <glyph glyph-name="uni1EB9" unicode="&#x1eb9;" horiz-adv-x="590" 
d="M300 132q61 0 115 43l106 -107q-34 -35 -94 -57.5t-119 -22.5q-124 0 -202.5 76.5t-78.5 195.5q0 118 76.5 193.5t196.5 75.5q125 0 194.5 -83.5t69.5 -232.5h-366q11 -37 38.5 -59t63.5 -22zM300 385q-34 0 -60 -19t-39 -52h188q-11 33 -34.5 52t-54.5 19zM296 -64
q35 0 60.5 -25.5t25.5 -60.5q0 -36 -25.5 -61.5t-60.5 -25.5q-37 0 -62 25.5t-25 61.5q0 35 25 60.5t62 25.5z" />
    <glyph glyph-name="uni1EBC" unicode="&#x1ebc;" horiz-adv-x="651" 
d="M273 782q-28 0 -37 -42l-90 13q8 72 37.5 106.5t83.5 34.5q31 0 77 -20.5t56 -20.5q28 0 37 42l90 -13q-15 -141 -121 -141q-31 0 -77 20.5t-56 20.5zM613 514h-359v-77h327v-173h-327v-91h359v-173h-553v687h553v-173z" />
    <glyph glyph-name="uni1EBD" unicode="&#x1ebd;" horiz-adv-x="590" 
d="M236 612q-28 0 -37 -42l-90 13q8 72 37.5 106.5t83.5 34.5q30 0 77 -20.5t56 -20.5q28 0 37 42l90 -13q-15 -141 -121 -141q-31 0 -77 20.5t-56 20.5zM300 132q61 0 115 43l106 -107q-34 -35 -94 -57.5t-119 -22.5q-124 0 -202.5 76.5t-78.5 195.5q0 118 76.5 193.5
t196.5 75.5q125 0 194.5 -83.5t69.5 -232.5h-366q11 -37 38.5 -59t63.5 -22zM300 385q-34 0 -60 -19t-39 -52h188q-11 33 -34.5 52t-54.5 19z" />
    <glyph glyph-name="Ygrave" unicode="&#x1ef2;" horiz-adv-x="709" 
d="M338 744l-152 136l166 28l112 -164h-126zM258 0v226l-264 461h222l139 -279l147 279h213l-263 -461v-226h-194z" />
    <glyph glyph-name="ygrave" unicode="&#x1ef3;" horiz-adv-x="607" 
d="M291 574l-152 136l166 28l112 -164h-126zM201 -180q-90 0 -161 42l39 124q49 -29 73 -29q41 0 52 16l10 20l-209 524h197l106 -319l100 319h194l-195 -521q-32 -83 -86 -129.5t-120 -46.5z" />
    <glyph glyph-name="endash" unicode="&#x2013;" horiz-adv-x="567" 
d="M38 200v156h491v-156h-491z" />
    <glyph glyph-name="emdash" unicode="&#x2014;" horiz-adv-x="872" 
d="M38 200v156h796v-156h-796z" />
    <glyph glyph-name="quoteleft" unicode="&#x2018;" horiz-adv-x="312" 
d="M164 704l63 -48q-52 -42 -67 -95q45 0 77.5 -33.5t32.5 -80.5q0 -48 -33.5 -82.5t-79.5 -34.5q-52 0 -85 43t-33 111q0 55 33 113t92 107z" />
    <glyph glyph-name="quoteright" unicode="&#x2019;" horiz-adv-x="312" 
d="M148 331l-63 48q52 42 67 95q-45 0 -77.5 33.5t-32.5 80.5q0 48 33.5 82.5t79.5 34.5q52 0 85 -43t33 -111q0 -55 -33 -113t-92 -107z" />
    <glyph glyph-name="quotedblleft" unicode="&#x201c;" horiz-adv-x="612" 
d="M164 704l63 -48q-52 -42 -67 -95q45 0 77.5 -33.5t32.5 -80.5q0 -48 -33.5 -82.5t-79.5 -34.5q-52 0 -85 43t-33 111q0 55 33 113t92 107zM464 704l63 -48q-52 -42 -67 -95q45 0 77.5 -33.5t32.5 -80.5q0 -48 -33.5 -82.5t-79.5 -34.5q-52 0 -85 43t-33 111q0 55 33 113
t92 107z" />
    <glyph glyph-name="quotedblright" unicode="&#x201d;" horiz-adv-x="612" 
d="M148 331l-63 48q52 42 67 95q-45 0 -77.5 33.5t-32.5 80.5q0 48 33.5 82.5t79.5 34.5q52 0 85 -43t33 -111q0 -55 -33 -113t-92 -107zM448 331l-63 48q52 42 67 95q-45 0 -77.5 33.5t-32.5 80.5q0 48 33.5 82.5t79.5 34.5q52 0 85 -43t33 -111q0 -55 -33 -113t-92 -107z
" />
    <glyph glyph-name="ellipsis" unicode="&#x2026;" horiz-adv-x="915" 
d="M160 -12q-50 0 -84 34.5t-34 83.5q0 46 34 79.5t84 33.5q46 0 79.5 -34t33.5 -79q0 -49 -33 -83.5t-80 -34.5zM460 -12q-50 0 -84 34.5t-34 83.5q0 46 34 79.5t84 33.5q46 0 79.5 -34t33.5 -79q0 -49 -33 -83.5t-80 -34.5zM760 -12q-50 0 -84 34.5t-34 83.5q0 46 34 79.5
t84 33.5q46 0 79.5 -34t33.5 -79q0 -49 -33 -83.5t-80 -34.5z" />
    <glyph glyph-name="perthousand" unicode="&#x2030;" horiz-adv-x="1254" 
d="M210 338q-79 0 -129 50.5t-50 127.5q0 75 49.5 126.5t129.5 51.5q81 0 130.5 -51.5t49.5 -126.5q0 -77 -50.5 -127.5t-129.5 -50.5zM125 0l483 687h132l-483 -687h-132zM210 445q26 0 42 18.5t16 52.5q0 32 -16.5 51t-41.5 19t-41 -18.5t-16 -51.5t16 -52t41 -19z
M654 -11q-80 0 -130 51.5t-50 126.5q0 77 50.5 128t129.5 51q80 0 129.5 -51.5t49.5 -127.5t-50 -127t-129 -51zM1044 -11q-80 0 -130 51.5t-50 126.5q0 77 50.5 128t129.5 51q80 0 129.5 -51.5t49.5 -127.5t-50 -127t-129 -51zM654 97q26 0 42 18.5t16 51.5t-16.5 52
t-41.5 19q-26 0 -42 -18.5t-16 -52.5q0 -32 16.5 -51t41.5 -19zM1044 97q26 0 42 18.5t16 51.5t-16.5 52t-41.5 19q-26 0 -42 -18.5t-16 -52.5q0 -32 16.5 -51t41.5 -19z" />
    <glyph glyph-name="Euro" unicode="&#x20ac;" horiz-adv-x="706" 
d="M408 164q82 0 137 70l142 -124q-53 -57 -125.5 -89.5t-153.5 -32.5q-125 0 -225 73.5t-134 185.5h-60v77h46q-1 7 -1 20q0 19 1 28h-46v77h62q37 109 136 179.5t221 70.5q81 0 153.5 -32t125.5 -89l-143 -125q-53 70 -136 70q-87 0 -140 -74h187v-77h-219q-2 -18 -2 -28
q0 -13 1 -20h220v-77h-193q24 -38 63 -60.5t83 -22.5z" />
    <glyph glyph-name="minus" unicode="&#x2212;" horiz-adv-x="609" 
d="M55 259v149h499v-149h-499z" />
    <glyph glyph-name="a.alt" 
d="M430 517h193v-517h-193v61q-65 -73 -165 -73q-104 0 -170.5 76t-66.5 195t66.5 194.5t170.5 75.5q100 0 165 -73v61zM326 148q46 0 75 31t29 80q0 48 -29 79t-75 31q-50 0 -82 -31t-32 -79q0 -49 32 -80t82 -31z" />
    <glyph glyph-name="aacute.alt" 
d="M504 710l-152 -136h-126l112 164zM430 517h193v-517h-193v61q-65 -73 -165 -73q-104 0 -170.5 76t-66.5 195t66.5 194.5t170.5 75.5q100 0 165 -73v61zM326 148q46 0 75 31t29 80q0 48 -29 79t-75 31q-50 0 -82 -31t-32 -79q0 -49 32 -80t82 -31z" />
    <glyph glyph-name="abreve.alt" 
d="M516 646q-71 -71 -171 -71q-98 0 -171 71l74 74q43 -43 97 -43t97 43zM430 517h193v-517h-193v61q-65 -73 -165 -73q-104 0 -170.5 76t-66.5 195t66.5 194.5t170.5 75.5q100 0 165 -73v61zM326 148q46 0 75 31t29 80q0 48 -29 79t-75 31q-50 0 -82 -31t-32 -79
q0 -49 32 -80t82 -31z" />
    <glyph glyph-name="acircumflex.alt" 
d="M345 641l-73 -67h-112l108 154h155l109 -154h-113zM430 517h193v-517h-193v61q-65 -73 -165 -73q-104 0 -170.5 76t-66.5 195t66.5 194.5t170.5 75.5q100 0 165 -73v61zM326 148q46 0 75 31t29 80q0 48 -29 79t-75 31q-50 0 -82 -31t-32 -79q0 -49 32 -80t82 -31z" />
    <glyph glyph-name="adieresis.alt" 
d="M233 575q-37 0 -62 25.5t-25 61.5q0 35 25 60.5t62 25.5q35 0 60.5 -25.5t25.5 -60.5q0 -36 -25.5 -61.5t-60.5 -25.5zM458 575q-37 0 -62 25.5t-25 61.5q0 35 25.5 60.5t61.5 25.5t61 -25.5t25 -60.5q0 -36 -25 -61.5t-61 -25.5zM430 517h193v-517h-193v61
q-65 -73 -165 -73q-104 0 -170.5 76t-66.5 195t66.5 194.5t170.5 75.5q100 0 165 -73v61zM326 148q46 0 75 31t29 80q0 48 -29 79t-75 31q-50 0 -82 -31t-32 -79q0 -49 32 -80t82 -31z" />
    <glyph glyph-name="agrave.alt" 
d="M454 574h-126l-152 136l166 28zM430 517h193v-517h-193v61q-65 -73 -165 -73q-104 0 -170.5 76t-66.5 195t66.5 194.5t170.5 75.5q100 0 165 -73v61zM326 148q46 0 75 31t29 80q0 48 -29 79t-75 31q-50 0 -82 -31t-32 -79q0 -49 32 -80t82 -31z" />
    <glyph glyph-name="amacron.alt" 
d="M529 679v-106h-369v106h369zM430 517h193v-517h-193v61q-65 -73 -165 -73q-104 0 -170.5 76t-66.5 195t66.5 194.5t170.5 75.5q100 0 165 -73v61zM326 148q46 0 75 31t29 80q0 48 -29 79t-75 31q-50 0 -82 -31t-32 -79q0 -49 32 -80t82 -31z" />
    <glyph glyph-name="aogonek.alt" 
d="M654 -56l22 -82q-38 -35 -93 -35q-50 0 -81 31t-31 83q0 34 15 59h-56v61q-65 -73 -165 -73q-104 0 -170.5 76t-66.5 195t66.5 194.5t170.5 75.5q100 0 165 -73v61h193v-517q-17 0 -27.5 -10t-10.5 -26q0 -30 39 -30q18 0 30 10zM326 148q46 0 75 31t29 80q0 48 -29 79
t-75 31q-50 0 -82 -31t-32 -79q0 -49 32 -80t82 -31z" />
    <glyph glyph-name="aring.alt" 
d="M345 575q-50 0 -85.5 35.5t-35.5 85.5t35.5 85.5t85.5 35.5t85.5 -35.5t35.5 -85.5t-35.5 -85.5t-85.5 -35.5zM345 745q-20 0 -34.5 -14.5t-14.5 -34.5t14.5 -34.5t34.5 -14.5t34.5 14.5t14.5 34.5t-14.5 34.5t-34.5 14.5zM430 517h193v-517h-193v61q-65 -73 -165 -73
q-104 0 -170.5 76t-66.5 195t66.5 194.5t170.5 75.5q100 0 165 -73v61zM326 148q46 0 75 31t29 80q0 48 -29 79t-75 31q-50 0 -82 -31t-32 -79q0 -49 32 -80t82 -31z" />
    <glyph glyph-name="atilde.alt" 
d="M281 612q-28 0 -37 -42l-90 13q8 72 37.5 106.5t83.5 34.5q31 0 77 -20.5t56 -20.5q28 0 37 42l90 -13q-15 -141 -121 -141q-31 0 -77 20.5t-56 20.5zM430 517h193v-517h-193v61q-65 -73 -165 -73q-104 0 -170.5 76t-66.5 195t66.5 194.5t170.5 75.5q100 0 165 -73v61z
M326 148q46 0 75 31t29 80q0 48 -29 79t-75 31q-50 0 -82 -31t-32 -79q0 -49 32 -80t82 -31z" />
    <glyph glyph-name="ascender" 
d="M51 0v699h193v-699h-193z" />
    <glyph glyph-name="descender" 
d="M51 -172v689h193v-689h-193z" />
    </font>
</defs>
</svg>
