<?xml version="1.0" standalone="no"?>
<!DOCTYPE svg PUBLIC "-//W3C//DTD SVG 1.1//EN" "http://www.w3.org/Graphics/SVG/1.1/DTD/svg11.dtd" >
<svg>
<metadata>
Created by FontForge 20090622 at Fri Aug 11 23:51:51 2017
 By deploy user
Copyright &#194;&#169; 2016 by Chris Simpson.
</metadata>
<defs>
<font id="Metropolis-BoldItalic" horiz-adv-x="613" >
  <font-face 
    font-family="Metropolis"
    font-weight="700"
    font-style="italic"
    font-stretch="normal"
    units-per-em="1000"
    panose-1="0 0 8 0 0 0 0 0 0 0"
    ascent="795"
    descent="-205"
    x-height="517"
    cap-height="687"
    bbox="-306 -294 1170 978"
    underline-thickness="20"
    underline-position="-113"
    slope="-11.75"
    unicode-range="U+0020-U+2212"
  />
<missing-glyph horiz-adv-x="500" 
d="M410 795v-1000h-317v1000h317zM333 728h-165v-33h65v-37h-66v-33h166v33h-66v37h66v33zM267 599h-100v-104h166v34h-66v70zM233 565v-36h-33v36h33zM333 468h-166v-33h66v-37h-66v-33h100v70h66v33zM333 408h-33v-66h-133v-34h166v100zM333 286h-100v-56h34v23h33v-47
h-100v80h-33v-113h166v113zM333 113h-166v-113h166v113zM300 80v-47h-100v47h100zM333 -23h-166v-33h70l-70 -47v-33h166v33h-102l70 47h32v33z" />
    <glyph glyph-name=".notdef" horiz-adv-x="500" 
d="M410 795v-1000h-317v1000h317zM333 728h-165v-33h65v-37h-66v-33h166v33h-66v37h66v33zM267 599h-100v-104h166v34h-66v70zM233 565v-36h-33v36h33zM333 468h-166v-33h66v-37h-66v-33h100v70h66v33zM333 408h-33v-66h-133v-34h166v100zM333 286h-100v-56h34v23h33v-47
h-100v80h-33v-113h166v113zM333 113h-166v-113h166v113zM300 80v-47h-100v47h100zM333 -23h-166v-33h70l-70 -47v-33h166v33h-102l70 47h32v33z" />
    <glyph glyph-name=".null" horiz-adv-x="0" 
 />
    <glyph glyph-name="nonmarkingreturn" horiz-adv-x="333" 
 />
    <glyph glyph-name="space" unicode=" " horiz-adv-x="279" 
 />
    <glyph glyph-name="exclam" unicode="!" horiz-adv-x="306" 
d="M97 242l59 445h166l-126 -445h-99zM107 -12q-36 0 -59 23.5t-23 58.5q0 42 30.5 71t71.5 29q34 0 56.5 -23.5t22.5 -57.5q0 -41 -30 -71t-69 -30z" />
    <glyph glyph-name="quotedbl" unicode="&#x22;" horiz-adv-x="516" 
d="M136 394q-9 89 -8 150q1 67 25.5 108t73.5 41q27 0 44.5 -17.5t17.5 -44.5q0 -26 -31.5 -101t-63.5 -136h-58zM378 394q-9 89 -8 150q1 67 25.5 108t73.5 41q27 0 44.5 -17.5t17.5 -44.5q0 -26 -31.5 -101t-63.5 -136h-58z" />
    <glyph glyph-name="numbersign" unicode="#" horiz-adv-x="677" 
d="M654 421h-97l-72 -156h96l-47 -105h-97l-74 -160h-110l74 160h-113l-74 -160h-109l74 160h-94l47 105h95l72 156h-97l47 105h98l74 161h109l-74 -161h113l74 161h110l-74 -161h96zM375 265l72 156h-113l-72 -156h113z" />
    <glyph glyph-name="dollar" unicode="$" horiz-adv-x="634" 
d="M391 403q104 -26 149 -64t45 -106q0 -102 -78.5 -169t-201.5 -75l-13 -63h-97l14 68q-135 22 -218 111l99 95q58 -63 145 -81l36 172q-90 26 -132.5 61.5t-42.5 103.5q0 97 71.5 164t187.5 77l13 62h97l-13 -65q117 -18 192 -93l-92 -100q-55 52 -127 67zM247 477
q0 -31 52 -49l29 139q-37 -10 -59 -35t-22 -55zM332 117q48 9 75.5 35.5t27.5 59.5q0 19 -16 31t-56 24z" />
    <glyph glyph-name="percent" unicode="%" horiz-adv-x="837" 
d="M235 342q-67 0 -106.5 40.5t-39.5 103.5q0 84 58.5 146t141.5 62q69 0 108.5 -41t39.5 -104q0 -85 -59 -146t-143 -61zM71 0l621 687h110l-621 -687h-110zM235 428q43 0 74.5 39t31.5 85q0 25 -13.5 40t-36.5 15q-44 0 -75 -39t-31 -84q0 -26 13.5 -41t36.5 -15zM581 -11
q-68 0 -108 40.5t-40 104.5q0 83 59.5 145t142.5 62q68 0 107.5 -40.5t39.5 -104.5q0 -83 -59 -145t-142 -62zM580 76q44 0 75 39.5t31 84.5q0 25 -13.5 40t-36.5 15q-44 0 -75 -39t-31 -85q0 -26 13.5 -40.5t36.5 -14.5z" />
    <glyph glyph-name="ampersand" unicode="&#x26;" horiz-adv-x="677" 
d="M652 305q-74 -103 -131 -161l82 -110l-124 -46l-53 73q-103 -73 -213 -73q-91 0 -146 44t-55 120q0 88 50 143t147 95q-28 54 -28 95q0 90 67 150.5t157 60.5q76 0 122.5 -42t46.5 -107q0 -73 -49 -117t-151 -87l80 -110q52 58 99 134zM405 591q-39 0 -70 -30t-31 -69
q0 -29 17 -63q64 22 96.5 48.5t32.5 69.5q0 44 -45 44zM235 99q59 0 129 51q-62 87 -100 147q-108 -52 -108 -131q0 -31 22 -49t57 -18z" />
    <glyph glyph-name="quotesingle" unicode="'" horiz-adv-x="274" 
d="M136 394q-9 89 -8 150q1 67 25.5 108t73.5 41q27 0 44.5 -17.5t17.5 -44.5q0 -26 -31.5 -101t-63.5 -136h-58z" />
    <glyph glyph-name="parenleft" unicode="(" horiz-adv-x="387" 
d="M191 -167q-148 125 -148 330q0 160 86.5 303.5t232.5 236.5l66 -85q-244 -207 -244 -469q0 -129 90 -244z" />
    <glyph glyph-name="parenright" unicode=")" horiz-adv-x="387" 
d="M28 -173l-66 86q244 204 244 468q0 128 -90 245l83 71q148 -126 148 -328q0 -161 -86.5 -305t-232.5 -237z" />
    <glyph glyph-name="asterisk" unicode="*" horiz-adv-x="397" 
d="M217 345q-16 0 -25 10.5t-6 24.5q5 20 22.5 61t21.5 54q-12 -8 -48 -37t-55 -39q-13 -7 -27.5 -2t-18.5 18q-5 14 1 28.5t20 21.5q20 10 62.5 22t55.5 17q-10 5 -48 17t-53 22q-11 7 -11.5 21.5t10.5 28.5q10 14 26.5 19t26.5 -3q14 -10 38 -38.5t34 -37.5
q1 11 -0.5 57.5t2.5 57.5q3 14 16.5 24.5t29.5 10.5t25 -10.5t6 -24.5q-4 -20 -22.5 -60.5t-23.5 -54.5q12 8 48.5 37t55.5 39q13 7 27.5 2t18.5 -18q5 -14 -1.5 -28.5t-19.5 -21.5q-20 -10 -63 -22t-56 -17q10 -4 48.5 -16.5t53.5 -22.5q11 -7 11 -21.5t-10 -28.5
t-26.5 -19t-26.5 3q-15 10 -39 39t-33 37q-1 -10 1 -57.5t-3 -57.5q-3 -14 -16 -24.5t-29 -10.5z" />
    <glyph glyph-name="plus" unicode="+" horiz-adv-x="603" 
d="M571 393l-25 -119h-178l-38 -182h-126l38 182h-179l25 119h179l38 182h126l-38 -182h178z" />
    <glyph glyph-name="comma" unicode="," horiz-adv-x="296" 
d="M56 -150l-52 48q53 39 88 95q-31 0 -52 21t-21 54q0 42 30.5 72t68.5 30t59.5 -27t21.5 -70q0 -108 -143 -223z" />
    <glyph glyph-name="hyphen" unicode="-" horiz-adv-x="365" 
d="M36 213l26 124h274l-26 -124h-274z" />
    <glyph glyph-name="period" unicode="." horiz-adv-x="289" 
d="M99 -12q-36 0 -59 23.5t-23 58.5q0 42 30.5 71t71.5 29q34 0 56.5 -23.5t22.5 -57.5q0 -41 -30 -71t-69 -30z" />
    <glyph glyph-name="slash" unicode="/" horiz-adv-x="465" 
d="M-93 -74l515 817h157l-515 -817h-157z" />
    <glyph glyph-name="zero" unicode="0" horiz-adv-x="707" 
d="M307 -12q-116 0 -184.5 74t-68.5 196q0 113 49 214t137.5 164t194.5 63q117 0 185 -73.5t68 -196.5q0 -112 -49 -213t-137.5 -164.5t-194.5 -63.5zM315 122q92 0 157.5 96t65.5 206q0 64 -29.5 102.5t-81.5 38.5q-61 0 -113.5 -46.5t-81 -115.5t-28.5 -139
q0 -65 29.5 -103.5t81.5 -38.5z" />
    <glyph glyph-name="one" unicode="1" horiz-adv-x="414" 
d="M135 0l109 518l-130 -73l-40 104l233 138h119l-143 -687h-148z" />
    <glyph glyph-name="two" unicode="2" 
d="M-7 0l23 120l293 199q148 103 148 184q0 29 -22 45.5t-57 16.5q-93 0 -193 -95l-82 99q129 130 287 130q99 0 159 -50.5t60 -133.5q0 -88 -54.5 -155.5t-155.5 -132.5l-149 -94h290l-28 -133h-519z" />
    <glyph glyph-name="three" unicode="3" horiz-adv-x="605" 
d="M253 -13q-91 0 -156.5 33t-102.5 87l101 90q55 -77 160 -77q61 0 106 32t45 78q0 28 -27.5 41t-88.5 12h-85l27 126l74 -1q59 0 99.5 27t44.5 71q2 29 -22.5 45t-69.5 16q-90 0 -184 -84l-72 99q120 117 278 117q105 0 164.5 -44.5t59.5 -117.5q0 -69 -44.5 -117.5
t-119.5 -69.5q48 -11 80.5 -46t32.5 -88q0 -101 -89 -165t-211 -64z" />
    <glyph glyph-name="four" unicode="4" horiz-adv-x="649" 
d="M321 0l30 140h-335l8 114l407 432h181l-88 -422h91l-26 -124h-91l-29 -140h-148zM184 264h192l57 266z" />
    <glyph glyph-name="five" unicode="5" horiz-adv-x="617" 
d="M253 -13q-159 0 -250 110l101 96q66 -77 158 -77q64 0 112.5 40.5t48.5 94.5q0 33 -25.5 51.5t-71.5 18.5q-77 0 -150 -49l-94 44l87 371h456l-28 -133h-318l-40 -148q64 38 136 38q86 0 141 -47t55 -129q0 -123 -91.5 -202t-226.5 -79z" />
    <glyph glyph-name="six" unicode="6" horiz-adv-x="645" 
d="M396 444q89 0 144.5 -48t55.5 -130q0 -118 -90.5 -198t-216.5 -80q-120 0 -180 65t-60 177q0 122 49.5 229t140.5 173.5t202 66.5q119 0 203 -77l-86 -106q-53 53 -123 53q-68 0 -122 -50.5t-86 -130.5q76 56 169 56zM288 113q61 0 108.5 42t47.5 96q0 35 -26.5 54
t-69.5 19q-46 0 -87.5 -25.5t-66.5 -66.5v-14q0 -105 94 -105z" />
    <glyph glyph-name="seven" unicode="7" horiz-adv-x="605" 
d="M59 0l388 554h-339l28 133h511l-21 -111l-397 -576h-170z" />
    <glyph glyph-name="eight" unicode="8" horiz-adv-x="624" 
d="M265 -12q-108 0 -177 45.5t-69 124.5q0 71 48 122.5t126 78.5q-87 42 -87 129q0 66 43.5 115.5t108 72.5t136.5 23q99 0 165 -44.5t66 -118.5q0 -125 -152 -185q47 -20 74 -57t27 -86q0 -101 -91.5 -160.5t-217.5 -59.5zM333 406q53 3 98.5 36t45.5 75q0 26 -24.5 42
t-64.5 16q-55 0 -98.5 -31.5t-43.5 -74.5q0 -27 26 -44t61 -19zM272 112q61 0 110 32.5t49 79.5q0 29 -31 46.5t-72 19.5q-57 -2 -107.5 -36t-50.5 -79q0 -29 28 -46t74 -17z" />
    <glyph glyph-name="nine" unicode="9" horiz-adv-x="645" 
d="M392 699q120 0 180 -65t60 -177q0 -122 -49.5 -229t-140.5 -173.5t-202 -66.5q-119 0 -203 77l86 106q53 -53 123 -53q68 0 122 50.5t86 130.5q-76 -56 -169 -56q-89 0 -144.5 48t-55.5 130q0 118 90.5 198t216.5 80zM333 363q46 0 87.5 25.5t66.5 66.5v14q0 105 -94 105
q-61 0 -108.5 -42t-47.5 -96q0 -35 26.5 -54t69.5 -19z" />
    <glyph glyph-name="colon" unicode=":" horiz-adv-x="290" 
d="M176 349q-38 0 -61 23.5t-23 59.5q0 42 31 70.5t71 28.5q35 0 57.5 -23.5t22.5 -57.5q0 -41 -30 -71t-68 -30zM100 -12q-36 0 -59 23.5t-23 58.5q0 42 30.5 71t70.5 29q35 0 57.5 -23.5t22.5 -57.5q0 -41 -30 -71t-69 -30z" />
    <glyph glyph-name="semicolon" unicode=";" horiz-adv-x="299" 
d="M188 403q-36 0 -59 23.5t-23 58.5q0 42 30.5 71t71.5 29q34 0 56.5 -23.5t22.5 -57.5q0 -41 -30 -71t-69 -30zM59 -150l-52 48q53 39 88 95q-31 0 -52 21t-21 54q0 42 30.5 72t68.5 30t59.5 -27t21.5 -70q0 -108 -143 -223z" />
    <glyph glyph-name="less" unicode="&#x3c;" horiz-adv-x="594" 
d="M486 82l-424 204l23 115l509 204l-23 -118l-381 -144l320 -142z" />
    <glyph glyph-name="equal" unicode="=" horiz-adv-x="603" 
d="M88 392l25 119h483l-25 -119h-483zM40 164l25 119h483l-25 -119h-483z" />
    <glyph glyph-name="greater" unicode="&#x3e;" horiz-adv-x="594" 
d="M36 82l23 119l381 142l-320 144l23 118l425 -204l-23 -115z" />
    <glyph glyph-name="question" unicode="?" horiz-adv-x="508" 
d="M163 236l34 164q69 3 126.5 34t57.5 73q0 27 -21 43.5t-57 16.5q-73 0 -145 -65l-73 93q115 104 250 104q90 0 143.5 -46t53.5 -119q0 -83 -63 -145t-152 -82l-14 -71h-140zM204 -12q-36 0 -59 23.5t-23 58.5q0 42 30.5 71t71.5 29q34 0 56.5 -23.5t22.5 -57.5
q0 -41 -30 -71t-69 -30z" />
    <glyph glyph-name="at" unicode="@" horiz-adv-x="881" 
d="M347 -116q-139 0 -225 84.5t-86 213.5q0 93 44.5 184t115.5 158.5t165 109.5t189 42q138 0 223 -81t85 -201q0 -122 -78 -221t-185 -99q-97 0 -107 79q-76 -78 -164 -78q-63 0 -99 36t-36 98q0 108 89 202.5t192 94.5q88 0 117 -72l24 58l118 -9l-36 -88.5l-31.5 -76.5
l-22.5 -56.5t-16 -46t-5 -27.5q0 -40 44 -40t80.5 39.5t55 94.5t18.5 107q0 107 -76 177t-201 70q-115 0 -222.5 -64t-173 -168t-65.5 -215q0 -116 77 -191t203 -75q111 0 226 61l14 -31q-123 -69 -251 -69zM387 176q59 0 106.5 55t47.5 114q0 28 -17 44t-48 16
q-60 0 -109 -52t-49 -111q0 -31 18.5 -48.5t50.5 -17.5z" />
    <glyph glyph-name="A" unicode="A" horiz-adv-x="767" 
d="M537 0l-24 118h-297l-72 -118h-169l423 687h167l-2 -2l137 -685h-163zM287 233h204l-50 251z" />
    <glyph glyph-name="B" unicode="B" horiz-adv-x="699" 
d="M20 0l143 687h343q80 0 130 -41.5t50 -106.5q0 -56 -35 -104.5t-96 -77.5q42 -20 67 -59.5t25 -84.5q0 -93 -77 -153t-184 -60h-366zM253 410h160q49 0 83 29t34 70q0 52 -77 52h-169zM193 126h182q54 0 91 31.5t37 77.5q0 28 -21.5 43.5t-61.5 15.5h-192z" />
    <glyph glyph-name="C" unicode="C" horiz-adv-x="700" 
d="M358 -12q-124 0 -213.5 88.5t-89.5 214.5q0 162 130.5 285t301.5 123q75 0 143 -33t109 -85l-120 -89q-22 32 -60 52.5t-83 20.5q-107 0 -189 -82.5t-82 -189.5q0 -73 50 -122t118 -49q41 0 91.5 23t87.5 59l92 -105q-56 -49 -136 -80t-150 -31z" />
    <glyph glyph-name="D" unicode="D" horiz-adv-x="761" 
d="M20 0l143 687h242q146 0 240 -79t94 -202q0 -109 -63.5 -202.5t-171.5 -148.5t-233 -55h-251zM195 134h114q113 0 196 78.5t83 186.5q0 68 -51.5 111t-131.5 43h-122z" />
    <glyph glyph-name="E" unicode="E" horiz-adv-x="641" 
d="M658 554h-381l-27 -137h344l-28 -133h-346l-29 -151h380l-28 -133h-529l143 687h529z" />
    <glyph glyph-name="F" unicode="F" horiz-adv-x="634" 
d="M658 554h-382l-29 -149h345l-28 -133h-346l-56 -272h-148l143 687h529z" />
    <glyph glyph-name="G" unicode="G" horiz-adv-x="742" 
d="M384 266l25 116h303l-59 -283q-60 -52 -138.5 -81.5t-152.5 -29.5q-130 0 -218.5 87t-88.5 211q0 109 62.5 205t164 152t213.5 56q77 0 144.5 -32t108.5 -86l-120 -89q-22 34 -61.5 53.5t-83.5 19.5q-109 0 -194 -84.5t-85 -190.5q0 -70 49.5 -119t121.5 -49q75 0 149 51
l18 93h-158z" />
    <glyph glyph-name="H" unicode="H" horiz-adv-x="743" 
d="M617 687h147l-143 -687h-147l58 284h-313l-58 -284h-147l143 687h147l-54 -270h312z" />
    <glyph glyph-name="I" unicode="I" horiz-adv-x="287" 
d="M16 0l143 687h148l-143 -687h-148z" />
    <glyph glyph-name="J" unicode="J" horiz-adv-x="543" 
d="M192 -12q-67 0 -126 33.5t-85 85.5l112 85q10 -32 36.5 -51t59.5 -19q48 0 87 34.5t50 85.5l92 445h148l-98 -469q-21 -103 -98 -166.5t-178 -63.5z" />
    <glyph glyph-name="K" unicode="K" horiz-adv-x="694" 
d="M19 0l143 687h147l-63 -298l332 298h190l-335 -301l204 -386h-172l-150 284l-106 -92l-43 -192h-147z" />
    <glyph glyph-name="L" unicode="L" horiz-adv-x="580" 
d="M187 133h340l-28 -133h-490l143 687h148z" />
    <glyph glyph-name="M" unicode="M" horiz-adv-x="867" 
d="M20 0l143 687h146l130 -388l294 388h150l-143 -687h-148l91 428l-291 -388l-134 388l-91 -428h-147z" />
    <glyph glyph-name="N" unicode="N" horiz-adv-x="774" 
d="M20 0l143 687h146l238 -444l94 444h148l-143 -687h-145l-239 444l-95 -444h-147z" />
    <glyph glyph-name="O" unicode="O" horiz-adv-x="812" 
d="M357 -12q-128 0 -215.5 86.5t-87.5 209.5q0 109 62 205.5t162.5 153t211.5 56.5q132 0 218 -85t86 -211q0 -109 -62 -205.5t-163.5 -153t-211.5 -56.5zM371 122q106 0 189.5 86t83.5 190q0 72 -47 119.5t-119 47.5q-107 0 -190.5 -84.5t-83.5 -190.5q0 -70 48 -119
t119 -49z" />
    <glyph glyph-name="P" unicode="P" horiz-adv-x="660" 
d="M14 0l143 687h303q98 0 158.5 -54t60.5 -141q0 -113 -90 -191t-218 -78h-163l-47 -223h-147zM236 358h147q58 0 102.5 38t44.5 86q0 32 -27 51t-73 19h-153z" />
    <glyph glyph-name="Q" unicode="Q" horiz-adv-x="813" 
d="M794 403q0 -148 -111 -267l50 -52l-87 -84l-56 58q-110 -70 -233 -70q-128 0 -215.5 86.5t-87.5 209.5q0 109 62 205.5t162.5 153t211.5 56.5q132 0 218 -85t86 -211zM371 122q64 0 124 35l-68 71l87 84l72 -75q58 77 58 161q0 72 -47 119.5t-119 47.5
q-107 0 -190.5 -84.5t-83.5 -190.5q0 -70 48 -119t119 -49z" />
    <glyph glyph-name="R" unicode="R" horiz-adv-x="693" 
d="M679 492q0 -88 -56.5 -157t-147.5 -97l144 -238h-164l-135 223h-112l-47 -223h-147l143 687h303q98 0 158.5 -54t60.5 -141zM277 552l-41 -194h147q58 0 102.5 38t44.5 86q0 32 -27 51t-73 19h-153z" />
    <glyph glyph-name="S" unicode="S" horiz-adv-x="634" 
d="M277 -12q-83 0 -160 31.5t-126 85.5l99 95q39 -41 92.5 -64t105.5 -23q67 0 107 29t40 70q0 23 -25 36.5t-96 31.5q-114 28 -166 64t-52 112q0 105 82.5 174t214.5 69q71 0 138 -26t113 -72l-92 -100q-36 35 -84 54t-89 19q-59 0 -95.5 -28.5t-36.5 -68.5q0 -24 26 -38
t96 -31q117 -27 166.5 -65.5t49.5 -109.5q0 -108 -87.5 -176.5t-220.5 -68.5z" />
    <glyph glyph-name="T" unicode="T" horiz-adv-x="639" 
d="M192 0l115 554h-214l28 133h576l-28 -133h-214l-115 -554h-148z" />
    <glyph glyph-name="U" unicode="U" horiz-adv-x="755" 
d="M329 -12q-140 0 -211 89t-43 226l80 384h148l-81 -390q-16 -78 17.5 -126.5t102.5 -48.5q74 0 133 53.5t76 133.5l79 378h147l-82 -396q-28 -135 -129.5 -219t-236.5 -84z" />
    <glyph glyph-name="V" unicode="V" horiz-adv-x="751" 
d="M658 687h169l-423 -687h-167l2 2l-137 685h163l96 -484z" />
    <glyph glyph-name="W" unicode="W" horiz-adv-x="1078" 
d="M174 0l-65 687h158l29 -461l250 461h160l55 -461l224 461h162l-351 -687h-148l-62 472l-263 -472h-149z" />
    <glyph glyph-name="X" unicode="X" horiz-adv-x="723" 
d="M794 687l-328 -349l176 -338h-168l-116 224l-211 -224h-183l328 349l-176 338h168l116 -224l211 224h183z" />
    <glyph glyph-name="Y" unicode="Y" horiz-adv-x="694" 
d="M217 0l54 248l-178 439h139l128 -312l250 312h169l-359 -439l-54 -248h-149z" />
    <glyph glyph-name="Z" unicode="Z" horiz-adv-x="656" 
d="M-4 0l20 112l454 442h-352l27 133h556l-21 -112l-452 -442h363l-28 -133h-567z" />
    <glyph glyph-name="bracketleft" unicode="[" horiz-adv-x="386" 
d="M-12 -142l176 849h272l-20 -95h-157l-137 -659h157l-20 -95h-271z" />
    <glyph glyph-name="backslash" unicode="\" horiz-adv-x="459" 
d="M263 -74l-175 817h151l174 -817h-150z" />
    <glyph glyph-name="bracketright" unicode="]" horiz-adv-x="386" 
d="M-40 -142l19 95h157l138 659h-157l20 95h271l-177 -849h-271z" />
    <glyph glyph-name="asciicircum" unicode="^" horiz-adv-x="488" 
d="M75 413l208 274h101l92 -274h-100l-57 184l-137 -184h-107z" />
    <glyph glyph-name="underscore" unicode="_" horiz-adv-x="592" 
d="M-87 -152l18 85h596l-18 -85h-596z" />
    <glyph glyph-name="grave" unicode="`" horiz-adv-x="369" 
d="M277 575l-121 132l133 24l83 -156h-95z" />
    <glyph glyph-name="a" unicode="a" horiz-adv-x="662" 
d="M506 517h146l-108 -517h-146l14 67q-79 -79 -182 -79q-86 0 -141 59.5t-55 150.5q0 133 85.5 232t208.5 99q53 0 94.5 -25.5t65.5 -70.5zM278 111q61 0 110 43.5t64 106.5l3 13q3 15 3 32q0 43 -29.5 71.5t-74.5 28.5q-72 0 -125 -58t-53 -136q0 -44 28.5 -72.5
t73.5 -28.5z" />
    <glyph glyph-name="b" unicode="b" horiz-adv-x="662" 
d="M432 529q86 0 141 -59.5t55 -149.5q0 -133 -85.5 -232.5t-208.5 -99.5q-52 0 -94 25.5t-66 69.5l-17 -83h-146l145 699h146l-52 -249q79 79 182 79zM308 111q72 0 125 58.5t53 135.5q0 44 -28.5 72.5t-72.5 28.5q-59 0 -107 -40t-66 -99l-7 -34q-1 -8 -1 -22
q0 -43 29.5 -71.5t74.5 -28.5z" />
    <glyph glyph-name="c" unicode="c" horiz-adv-x="551" 
d="M267 -12q-99 0 -166.5 66.5t-67.5 161.5q0 127 101.5 220t232.5 93q60 0 109 -25t80 -67l-107 -74q-14 20 -40.5 31.5t-53.5 11.5q-72 0 -127.5 -57t-55.5 -129q0 -46 31 -77.5t76 -31.5q68 0 124 54l86 -90q-96 -87 -222 -87z" />
    <glyph glyph-name="d" unicode="d" horiz-adv-x="662" 
d="M543 699h146l-145 -699h-146l14 67q-79 -79 -182 -79q-86 0 -141 59.5t-55 150.5q0 133 85.5 232t208.5 99q52 0 94 -25.5t66 -69.5zM278 111q59 0 107 41t66 102l5 27q2 16 2 25q0 43 -29.5 71.5t-74.5 28.5q-72 0 -125 -58t-53 -136q0 -44 28.5 -72.5t73.5 -28.5z" />
    <glyph glyph-name="e" unicode="e" horiz-adv-x="563" 
d="M293 211h-125v-5q0 -89 94 -89q78 0 140 51l80 -104q-87 -76 -223 -76q-103 0 -165 60t-62 157q0 134 94 229t224 95q86 0 140.5 -39.5t54.5 -101.5q0 -86 -66.5 -133t-185.5 -44zM344 401q-99 0 -148 -85h116q43 0 66.5 12t23.5 33q0 17 -16.5 28.5t-41.5 11.5z" />
    <glyph glyph-name="f" unicode="f" horiz-adv-x="377" 
d="M372 603q-29 0 -49.5 -19.5t-26.5 -44.5l-5 -22h112l-24 -118h-112l-84 -399h-140l83 399h-71l25 118h70l11 51q15 69 63.5 110.5t111.5 41.5q73 0 118 -49l-45 -81q-13 13 -37 13z" />
    <glyph glyph-name="g" unicode="g" horiz-adv-x="642" 
d="M486 517h146l-97 -468q-21 -101 -108.5 -161t-206.5 -60q-68 0 -126 20t-94 52l65 97q42 -46 139 -46q73 0 125.5 32.5t63.5 83.5l9 44q-76 -73 -178 -73q-87 0 -139.5 54.5t-52.5 143.5q0 115 80.5 204t192.5 89q58 0 102 -25.5t63 -65.5zM276 161q66 0 116 48t50 109
q0 42 -25 65t-69 23q-66 0 -116 -47t-50 -109q0 -43 25 -66t69 -23z" />
    <glyph glyph-name="h" unicode="h" 
d="M408 529q75 0 119 -43.5t44 -114.5q0 -7 -0.5 -12.5t-1.5 -14.5t-2.5 -17.5l-4.5 -25t-6.5 -32.5l-9.5 -45l-12 -57.5l-15.5 -74.5l-19.5 -92h-141q67 316 67 335q0 33 -18.5 52t-51.5 19q-46 0 -86 -29t-51 -69l-64 -308h-146l145 699h146l-49 -237q64 67 158 67z" />
    <glyph glyph-name="i" unicode="i" horiz-adv-x="272" 
d="M213 588q-32 0 -53 21t-21 52q0 35 26.5 60.5t60.5 25.5q31 0 51 -21t20 -52q0 -34 -26 -60t-58 -26zM9 0l108 517h146l-108 -517h-146z" />
    <glyph glyph-name="j" unicode="j" horiz-adv-x="272" 
d="M215 588q-32 0 -52 21t-20 52q0 33 25.5 59t60.5 26q31 0 51 -21t20 -52q0 -34 -26 -59.5t-59 -25.5zM-33 -178q-60 0 -104 23l29 104q14 -7 47 -7q24 0 45.5 19t26.5 45l106 511h146l-112 -538q-15 -71 -65.5 -114t-118.5 -43z" />
    <glyph glyph-name="k" unicode="k" horiz-adv-x="571" 
d="M623 517l-250 -229l136 -288h-163l-86 194l-80 -69l-26 -125h-146l145 699h146l-83 -402l236 220h171z" />
    <glyph glyph-name="l" unicode="l" horiz-adv-x="273" 
d="M11 0l145 699h146l-145 -699h-146z" />
    <glyph glyph-name="m" unicode="m" horiz-adv-x="929" 
d="M724 529q74 0 119.5 -44.5t45.5 -115.5q0 -5 -0.5 -9.5t-1.5 -12.5t-2.5 -16l-4.5 -24t-6.5 -32l-9.5 -45l-12 -59l-16 -77l-20 -95h-140q68 330 67 338q0 69 -66 69q-43 0 -79.5 -26t-47.5 -65q-9 -46 -66 -316h-140q68 327 68 338q-2 69 -66 69q-46 0 -83.5 -29.5
t-45.5 -70.5l-64 -306h-146l108 517h146l-13 -60q53 72 147 72q53 0 92.5 -25.5t56.5 -68.5q27 44 76 69t104 25z" />
    <glyph glyph-name="n" unicode="n" 
d="M408 529q75 0 119 -43.5t44 -114.5q0 -7 -0.5 -12.5t-1.5 -14.5t-2.5 -17.5l-4.5 -25t-6.5 -32.5l-9.5 -45l-12 -57.5l-15.5 -74.5l-19.5 -92h-141q67 316 67 335q0 33 -18.5 52t-51.5 19q-49 0 -90 -31.5t-49 -74.5v1l-63 -301h-146l108 517h146l-12 -56q63 68 159 68z
" />
    <glyph glyph-name="o" unicode="o" horiz-adv-x="634" 
d="M268 -12q-100 0 -167.5 66.5t-67.5 161.5q0 127 101.5 220t231.5 93q100 0 168 -66.5t68 -161.5q0 -126 -102 -219.5t-232 -93.5zM279 111q72 0 129 57t57 129q0 46 -32 77.5t-78 31.5q-72 0 -128.5 -57t-56.5 -129q0 -46 31.5 -77.5t77.5 -31.5z" />
    <glyph glyph-name="p" unicode="p" horiz-adv-x="662" 
d="M432 529q86 0 141 -59.5t55 -149.5q0 -133 -85.5 -232.5t-208.5 -99.5q-109 0 -160 95l-53 -255h-146l143 689h146l-14 -67q79 79 182 79zM308 111q72 0 125 58.5t53 135.5q0 44 -28.5 72.5t-72.5 28.5q-60 0 -108 -40.5t-66 -101.5l-5 -28q-2 -16 -2 -25
q0 -43 29.5 -71.5t74.5 -28.5z" />
    <glyph glyph-name="q" unicode="q" horiz-adv-x="662" 
d="M506 517h146l-143 -689h-146l50 240q-80 -80 -183 -80q-86 0 -141 59.5t-55 150.5q0 133 85.5 232t208.5 99q53 0 94.5 -25.5t65.5 -70.5zM278 111q73 0 126.5 59.5t53.5 135.5q0 43 -29.5 71.5t-74.5 28.5q-72 0 -125 -58t-53 -136q0 -44 28.5 -72.5t73.5 -28.5z" />
    <glyph glyph-name="r" unicode="r" horiz-adv-x="433" 
d="M246 428q72 101 192 101l-16 -123q-78 0 -136.5 -42.5t-76.5 -110.5l-53 -253h-146l108 517h146z" />
    <glyph glyph-name="s" unicode="s" horiz-adv-x="503" 
d="M210 -12q-65 0 -124.5 22t-100.5 59l77 93q63 -53 152 -53q42 0 68 14t26 36q0 27 -74 47q-39 11 -58 17t-45 17.5t-38 24t-21 32.5t-9 46q0 80 66 133t165 53q105 0 198 -67l-74 -100q-59 45 -127 45q-37 0 -62 -13t-25 -33q0 -12 15.5 -21.5t61.5 -23.5l55 -17
t44.5 -18t37.5 -25t21 -33.5t9 -47.5q0 -81 -67 -134t-171 -53z" />
    <glyph glyph-name="t" unicode="t" horiz-adv-x="401" 
d="M379 399h-112q-51 -242 -51 -254q0 -34 31 -34q37 0 59 22l21 -104q-55 -41 -124 -41q-59 0 -95.5 35.5t-36.5 92.5q0 23 55 283h-71l25 118h71l30 142h140l-30 -142h112z" />
    <glyph glyph-name="u" unicode="u" 
d="M460 517h146l-108 -517h-146l12 56q-63 -68 -159 -68q-75 0 -119 43.5t-44 114.5q0 7 0.5 12.5t1.5 14.5t2.5 17.5l4.5 25t6.5 32.5l9.5 45l12 57.5l16 74.5t19 92h141q-67 -316 -67 -335q0 -34 19 -52.5t51 -18.5q49 0 90 31.5t49 74.5v-1z" />
    <glyph glyph-name="v" unicode="v" horiz-adv-x="606" 
d="M183 0l-116 517h149l66 -349l209 349h156l-328 -517h-136z" />
    <glyph glyph-name="w" unicode="w" horiz-adv-x="841" 
d="M140 0l-68 517h140l30 -322l170 322h121l34 -322l165 322h147l-284 -517h-131l-27 325l-166 -325h-131z" />
    <glyph glyph-name="x" unicode="x" horiz-adv-x="566" 
d="M599 517l-235 -254l133 -263h-153l-80 156l-145 -156h-158l247 266l-128 251h155l73 -144l134 144h157z" />
    <glyph glyph-name="y" unicode="y" horiz-adv-x="601" 
d="M96 -180q-70 0 -126 35l43 94q32 -20 61 -20q20 0 41 9.5t31 24.5l28 32l-105 522h148l59 -363l206 363h152l-326 -548q-88 -149 -212 -149z" />
    <glyph glyph-name="z" unicode="z" horiz-adv-x="534" 
d="M-10 0l19 103l320 290h-251l26 124h443l-21 -103l-320 -290h261l-26 -124h-451z" />
    <glyph glyph-name="braceleft" unicode="{" horiz-adv-x="416" 
d="M281 -166q-106 9 -155 43t-49 97q0 27 17.5 103t17.5 95q0 28 -17.5 39t-59.5 11l8 88q100 0 120 92l24 120q18 86 76.5 126t186.5 50l3 -91q-82 -10 -114 -32.5t-43 -75.5l-25 -126q-9 -45 -32.5 -71t-68.5 -40q57 -21 57 -84q0 -23 -17.5 -98.5t-17.5 -94.5
q0 -30 22.5 -42t87.5 -21z" />
    <glyph glyph-name="bar" unicode="|" horiz-adv-x="299" 
d="M30 -74l170 817h101l-170 -817h-101z" />
    <glyph glyph-name="braceright" unicode="}" horiz-adv-x="417" 
d="M-31 -166l-4 90q82 10 114.5 33t43.5 76l26 125q9 45 32 71t68 41q-57 20 -57 84q0 21 18 99t18 94q0 28 -23 40.5t-87 21.5l20 88q106 -9 155 -43t49 -98q0 -25 -17.5 -102.5t-17.5 -94.5q0 -27 17.5 -38t60.5 -11l-9 -88q-101 0 -119 -92l-24 -121
q-18 -86 -76.5 -125.5t-187.5 -49.5z" />
    <glyph glyph-name="asciitilde" unicode="~" horiz-adv-x="454" 
d="M312 294q-35 0 -73.5 25.5t-48.5 25.5q-39 0 -62 -58l-70 21q22 66 52 96.5t76 30.5q35 0 73.5 -25.5t47.5 -25.5q40 0 63 58l70 -22q-22 -66 -52.5 -96t-75.5 -30z" />
    <glyph glyph-name="exclamdown" unicode="&#xa1;" horiz-adv-x="306" 
d="M199 529q36 0 59 -23.5t23 -58.5q0 -42 -30.5 -71t-71.5 -29q-34 0 -56.5 23.5t-22.5 57.5q0 41 30 71t69 30zM209 275l-59 -445h-166l126 445h99z" />
    <glyph glyph-name="cent" unicode="&#xa2;" horiz-adv-x="551" 
d="M403 165l86 -90q-83 -76 -190 -86l-13 -63h-98l15 70q-75 20 -122.5 81t-47.5 139q0 113 82 200.5t198 107.5l13 65h98l-13 -64q91 -16 145 -88l-107 -74q-22 29 -64 39l-59 -283q45 14 77 46zM172 220q0 -67 57 -97l56 267q-49 -24 -81 -70.5t-32 -99.5z" />
    <glyph glyph-name="sterling" unicode="&#xa3;" horiz-adv-x="654" 
d="M281 254l-28 -139h340l-25 -115h-574l11 61l97 54l29 139h-68l17 79h68l28 136q22 103 98.5 166.5t176.5 63.5q72 0 131.5 -34t82.5 -85l-112 -85q-7 32 -33.5 51t-61.5 19q-49 0 -88.5 -34.5t-50.5 -85.5l-23 -112h163l-17 -79h-161z" />
    <glyph glyph-name="yen" unicode="&#xa5;" horiz-adv-x="694" 
d="M779 687l-298 -365h128l-17 -79h-173l-14 -64h174l-17 -79h-174l-22 -100h-149l22 100h-173l17 79h173l14 64h-174l17 79h128l-148 365h139l128 -312l250 312h169z" />
    <glyph glyph-name="dieresis" unicode="&#xa8;" horiz-adv-x="478" 
d="M211 584q-29 0 -47 18.5t-18 46.5q0 32 22.5 53.5t52.5 21.5q28 0 46 -19t18 -47q0 -30 -22.5 -52t-51.5 -22zM423 584q-29 0 -47 19t-18 47q0 31 22.5 52.5t52.5 21.5q28 0 46 -19t18 -46q0 -31 -22.5 -53t-51.5 -22z" />
    <glyph glyph-name="macron" unicode="&#xaf;" horiz-adv-x="471" 
d="M130 581l18 86h345l-18 -86h-345z" />
    <glyph glyph-name="acute" unicode="&#xb4;" horiz-adv-x="377" 
d="M129 575l148 156l130 -24l-175 -132h-103z" />
    <glyph glyph-name="cedilla" unicode="&#xb8;" horiz-adv-x="327" 
d="M127 -44q27 -2 43 -19t16 -43q0 -42 -33 -66.5t-83 -24.5q-54 0 -95 33l31 50q19 -19 51 -19q27 0 43.5 10t16.5 26q0 21 -19 21q-20 0 -38 -13l-21 25l45 75h78z" />
    <glyph glyph-name="questiondown" unicode="&#xbf;" horiz-adv-x="508" 
d="M304 529q36 0 59 -23.5t23 -58.5q0 -42 -30.5 -71t-71.5 -29q-34 0 -56.5 23.5t-22.5 57.5q0 41 30 71t69 30zM345 281l-34 -164q-69 -3 -126.5 -34t-57.5 -73q0 -27 21 -43.5t57 -16.5q73 0 145 65l73 -93q-115 -104 -250 -104q-90 0 -143.5 46t-53.5 119q0 83 63 145
t152 82l14 71h140z" />
    <glyph glyph-name="Agrave" unicode="&#xc0;" horiz-adv-x="767" 
d="M528 745h-95l-121 132l133 24zM537 0l-24 118h-297l-72 -118h-169l423 687h167l-2 -2l137 -685h-163zM287 233h204l-50 251z" />
    <glyph glyph-name="Aacute" unicode="&#xc1;" horiz-adv-x="767" 
d="M715 877l-175 -132h-103l148 156zM565 687l-2 -2l137 -685h-163l-24 118h-297l-72 -118h-169l423 687h167zM491 233l-50 251l-154 -251h204z" />
    <glyph glyph-name="Acircumflex" unicode="&#xc2;" horiz-adv-x="767" 
d="M516 819l-92 -74h-94l136 147h121l75 -147h-87zM537 0l-24 118h-297l-72 -118h-169l423 687h167l-2 -2l137 -685h-163zM287 233h204l-50 251z" />
    <glyph glyph-name="Atilde" unicode="&#xc3;" horiz-adv-x="767" 
d="M452 794q-39 0 -62 -58l-70 21q22 66 52 96.5t76 30.5q35 0 73.5 -25.5t47.5 -25.5q40 0 63 58l70 -22q-22 -66 -52.5 -96t-75.5 -30q-35 0 -73.5 25.5t-48.5 25.5zM565 687l-2 -2l137 -685h-163l-24 118h-297l-72 -118h-169l423 687h167zM491 233l-50 251l-154 -251h204
z" />
    <glyph glyph-name="Adieresis" unicode="&#xc4;" horiz-adv-x="767" 
d="M403 754q-29 0 -47 18.5t-18 46.5q0 32 22.5 53.5t52.5 21.5q28 0 46 -19t18 -47q0 -30 -22.5 -52t-51.5 -22zM615 754q-29 0 -47 19t-18 47q0 31 22.5 52.5t52.5 21.5q28 0 46 -19t18 -46q0 -31 -22.5 -53t-51.5 -22zM537 0l-24 118h-297l-72 -118h-169l423 687h167
l-2 -2l137 -685h-163zM287 233h204l-50 251z" />
    <glyph glyph-name="Aring" unicode="&#xc5;" horiz-adv-x="767" 
d="M498 751q-41 0 -67 25.5t-26 64.5q0 55 43.5 96t96.5 41q41 0 67 -25.5t26 -64.5q0 -54 -43 -95.5t-97 -41.5zM533 917q-25 0 -45.5 -19t-20.5 -43q0 -19 12.5 -31.5t31.5 -12.5q24 0 44 19.5t20 44.5q0 18 -11.5 30t-30.5 12zM537 0l-24 118h-297l-72 -118h-169l423 687
h167l-2 -2l137 -685h-163zM287 233h204l-50 251z" />
    <glyph glyph-name="AE" unicode="&#xc6;" horiz-adv-x="1077" 
d="M1094 554h-381l-27 -137h344l-28 -133h-346l-29 -151h380l-28 -133h-529l25 118h-249l-93 -118h-174l540 687h623zM316 233h182l66 316z" />
    <glyph glyph-name="Ccedilla" unicode="&#xc7;" horiz-adv-x="700" 
d="M644 99q-50 -44 -119.5 -73.5t-135.5 -35.5l-21 -34q27 -2 43 -19t16 -43q0 -42 -33 -66.5t-83 -24.5q-54 0 -95 33l31 50q19 -19 51 -19q27 0 43.5 10t16.5 26q0 21 -19 21q-20 0 -38 -13l-21 25l33 55q-109 17 -183.5 102t-74.5 198q0 162 130.5 285t301.5 123
q75 0 143 -33t109 -85l-120 -89q-22 32 -60 52.5t-83 20.5q-107 0 -189 -82.5t-82 -189.5q0 -73 50 -122t118 -49q41 0 91.5 23t87.5 59z" />
    <glyph glyph-name="Egrave" unicode="&#xc8;" horiz-adv-x="641" 
d="M525 745h-95l-121 132l133 24zM658 554h-381l-27 -137h344l-28 -133h-346l-29 -151h380l-28 -133h-529l143 687h529z" />
    <glyph glyph-name="Eacute" unicode="&#xc9;" horiz-adv-x="641" 
d="M601 877l-175 -132h-103l148 156zM658 554h-381l-27 -137h344l-28 -133h-346l-29 -151h380l-28 -133h-529l143 687h529z" />
    <glyph glyph-name="Ecircumflex" unicode="&#xca;" horiz-adv-x="641" 
d="M453 819l-92 -74h-94l136 147h121l75 -147h-87zM658 554h-381l-27 -137h344l-28 -133h-346l-29 -151h380l-28 -133h-529l143 687h529z" />
    <glyph glyph-name="Edieresis" unicode="&#xcb;" horiz-adv-x="641" 
d="M340 754q-29 0 -47 18.5t-18 46.5q0 32 22.5 53.5t52.5 21.5q28 0 46 -19t18 -47q0 -30 -22.5 -52t-51.5 -22zM552 754q-29 0 -47 19t-18 47q0 31 22.5 52.5t52.5 21.5q28 0 46 -19t18 -46q0 -31 -22.5 -53t-51.5 -22zM658 554h-381l-27 -137h344l-28 -133h-346l-29 -151
h380l-28 -133h-529l143 687h529z" />
    <glyph glyph-name="Igrave" unicode="&#xcc;" horiz-adv-x="287" 
d="M201 745l-121 132l133 24l83 -156h-95zM16 0l143 687h148l-143 -687h-148z" />
    <glyph glyph-name="Iacute" unicode="&#xcd;" horiz-adv-x="287" 
d="M187 745l148 156l130 -24l-175 -132h-103zM16 0l143 687h148l-143 -687h-148z" />
    <glyph glyph-name="Icircumflex" unicode="&#xce;" horiz-adv-x="287" 
d="M78 745l136 147h121l75 -147h-87l-59 74l-92 -74h-94zM16 0l143 687h148l-143 -687h-148z" />
    <glyph glyph-name="Idieresis" unicode="&#xcf;" horiz-adv-x="287" 
d="M151 754q-29 0 -47 18.5t-18 46.5q0 32 22.5 53.5t52.5 21.5q28 0 46 -19t18 -47q0 -30 -22.5 -52t-51.5 -22zM363 754q-29 0 -47 19t-18 47q0 31 22.5 52.5t52.5 21.5q28 0 46 -19t18 -46q0 -31 -22.5 -53t-51.5 -22zM16 0l143 687h148l-143 -687h-148z" />
    <glyph glyph-name="Eth" unicode="&#xd0;" horiz-adv-x="802" 
d="M446 687q146 0 240 -79t94 -202q0 -109 -63.5 -202.5t-171.5 -148.5t-233 -55h-251l58 280h-73l27 133h74l57 274h242zM350 134q113 0 196 78.5t83 186.5q0 68 -51.5 111t-131.5 43h-122l-29 -140h157l-28 -133h-157l-31 -146h114z" />
    <glyph glyph-name="Ntilde" unicode="&#xd1;" horiz-adv-x="774" 
d="M564 743q-35 0 -73.5 25.5t-48.5 25.5q-39 0 -62 -58l-70 21q22 66 52 96.5t76 30.5q35 0 73.5 -25.5t47.5 -25.5q40 0 63 58l70 -22q-22 -66 -52.5 -96t-75.5 -30zM20 0l143 687h146l238 -444l94 444h148l-143 -687h-145l-239 444l-95 -444h-147z" />
    <glyph glyph-name="Ograve" unicode="&#xd2;" horiz-adv-x="812" 
d="M457 745l-121 132l133 24l83 -156h-95zM357 -12q-128 0 -215.5 86.5t-87.5 209.5q0 109 62 205.5t162.5 153t211.5 56.5q132 0 218 -85t86 -211q0 -109 -62 -205.5t-163.5 -153t-211.5 -56.5zM371 122q106 0 189.5 86t83.5 190q0 72 -47 119.5t-119 47.5
q-107 0 -190.5 -84.5t-83.5 -190.5q0 -70 48 -119t119 -49z" />
    <glyph glyph-name="Oacute" unicode="&#xd3;" horiz-adv-x="812" 
d="M446 745l148 156l130 -24l-175 -132h-103zM357 -12q-128 0 -215.5 86.5t-87.5 209.5q0 109 62 205.5t162.5 153t211.5 56.5q132 0 218 -85t86 -211q0 -109 -62 -205.5t-163.5 -153t-211.5 -56.5zM371 122q106 0 189.5 86t83.5 190q0 72 -47 119.5t-119 47.5
q-107 0 -190.5 -84.5t-83.5 -190.5q0 -70 48 -119t119 -49z" />
    <glyph glyph-name="Ocircumflex" unicode="&#xd4;" horiz-adv-x="812" 
d="M333 745l136 147h121l75 -147h-87l-59 74l-92 -74h-94zM357 -12q-128 0 -215.5 86.5t-87.5 209.5q0 109 62 205.5t162.5 153t211.5 56.5q132 0 218 -85t86 -211q0 -109 -62 -205.5t-163.5 -153t-211.5 -56.5zM371 122q106 0 189.5 86t83.5 190q0 72 -47 119.5t-119 47.5
q-107 0 -190.5 -84.5t-83.5 -190.5q0 -70 48 -119t119 -49z" />
    <glyph glyph-name="Otilde" unicode="&#xd5;" horiz-adv-x="812" 
d="M577 743q-35 0 -73.5 25.5t-48.5 25.5q-39 0 -62 -58l-70 21q22 66 52.5 96.5t75.5 30.5q35 0 73.5 -25.5t47.5 -25.5q40 0 63 58l70 -22q-22 -66 -52.5 -96t-75.5 -30zM357 -12q-128 0 -215.5 86.5t-87.5 209.5q0 109 62 205.5t162.5 153t211.5 56.5q132 0 218 -85
t86 -211q0 -109 -62 -205.5t-163.5 -153t-211.5 -56.5zM371 122q106 0 189.5 86t83.5 190q0 72 -47 119.5t-119 47.5q-107 0 -190.5 -84.5t-83.5 -190.5q0 -70 48 -119t119 -49z" />
    <glyph glyph-name="Odieresis" unicode="&#xd6;" horiz-adv-x="812" 
d="M406 754q-29 0 -47 18.5t-18 46.5q0 32 22.5 53.5t52.5 21.5q28 0 46 -19t18 -47q0 -30 -22.5 -52t-51.5 -22zM618 754q-29 0 -47 19t-18 47q0 31 22.5 52.5t52.5 21.5q28 0 46 -19t18 -46q0 -31 -22.5 -53t-51.5 -22zM357 -12q-128 0 -215.5 86.5t-87.5 209.5
q0 109 62 205.5t162.5 153t211.5 56.5q132 0 218 -85t86 -211q0 -109 -62 -205.5t-163.5 -153t-211.5 -56.5zM371 122q106 0 189.5 86t83.5 190q0 72 -47 119.5t-119 47.5q-107 0 -190.5 -84.5t-83.5 -190.5q0 -70 48 -119t119 -49z" />
    <glyph glyph-name="multiply" unicode="&#xd7;" horiz-adv-x="561" 
d="M536 462l-153 -127l102 -127l-104 -89l-103 128l-151 -126l-71 84l153 128l-102 127l104 89l103 -128l151 126z" />
    <glyph glyph-name="Oslash" unicode="&#xd8;" horiz-adv-x="812" 
d="M856 687l-116 -110q54 -78 54 -174q0 -109 -62 -205.5t-163.5 -153t-211.5 -56.5q-101 0 -179 56l-47 -44h-134l115 109q-58 77 -58 175q0 109 62 205.5t162.5 153t211.5 56.5q105 0 184 -57l48 45h134zM204 290q0 -42 18 -77l346 328q-42 24 -90 24q-107 0 -190.5 -84.5
t-83.5 -190.5zM644 398q0 41 -15 74l-344 -327q39 -23 86 -23q106 0 189.5 86t83.5 190z" />
    <glyph glyph-name="Ugrave" unicode="&#xd9;" horiz-adv-x="755" 
d="M474 745l-121 132l133 24l83 -156h-95zM329 -12q-140 0 -211 89t-43 226l80 384h148l-81 -390q-16 -78 17.5 -126.5t102.5 -48.5q74 0 133 53.5t76 133.5l79 378h147l-82 -396q-28 -135 -129.5 -219t-236.5 -84z" />
    <glyph glyph-name="Uacute" unicode="&#xda;" horiz-adv-x="755" 
d="M367 745l148 156l130 -24l-175 -132h-103zM329 -12q-140 0 -211 89t-43 226l80 384h148l-81 -390q-16 -78 17.5 -126.5t102.5 -48.5q74 0 133 53.5t76 133.5l79 378h147l-82 -396q-28 -135 -129.5 -219t-236.5 -84z" />
    <glyph glyph-name="Ucircumflex" unicode="&#xdb;" horiz-adv-x="755" 
d="M311 745l136 147h121l75 -147h-87l-59 74l-92 -74h-94zM329 -12q-140 0 -211 89t-43 226l80 384h148l-81 -390q-16 -78 17.5 -126.5t102.5 -48.5q74 0 133 53.5t76 133.5l79 378h147l-82 -396q-28 -135 -129.5 -219t-236.5 -84z" />
    <glyph glyph-name="Udieresis" unicode="&#xdc;" horiz-adv-x="755" 
d="M384 754q-29 0 -47 18.5t-18 46.5q0 32 22.5 53.5t52.5 21.5q28 0 46 -19t18 -47q0 -30 -22.5 -52t-51.5 -22zM596 754q-29 0 -47 19t-18 47q0 31 22.5 52.5t52.5 21.5q28 0 46 -19t18 -46q0 -31 -22.5 -53t-51.5 -22zM329 -12q-140 0 -211 89t-43 226l80 384h148
l-81 -390q-16 -78 17.5 -126.5t102.5 -48.5q74 0 133 53.5t76 133.5l79 378h147l-82 -396q-28 -135 -129.5 -219t-236.5 -84z" />
    <glyph glyph-name="Yacute" unicode="&#xdd;" horiz-adv-x="694" 
d="M322 745l148 156l130 -24l-175 -132h-103zM217 0l54 248l-178 439h139l128 -312l250 312h169l-359 -439l-54 -248h-149z" />
    <glyph glyph-name="Thorn" unicode="&#xde;" horiz-adv-x="661" 
d="M14 0l143 687h145l-23 -110h159q98 0 158.5 -53t60.5 -139q0 -116 -89.5 -194t-215.5 -78h-167l-24 -113h-147zM213 249h142q60 0 105.5 37t45.5 88q0 32 -26.5 50t-74.5 18h-151z" />
    <glyph glyph-name="germandbls" unicode="&#xdf;" 
d="M10 0l110 525q18 86 94 139t180 53q97 0 155 -46.5t58 -122.5q0 -62 -35 -111.5t-97 -79.5q43 -21 67.5 -59t24.5 -85q0 -94 -76.5 -153.5t-184.5 -59.5h-77l26 126h40q48 0 86 31t41 74q2 29 -20 46t-62 17h-50l25 116h17q45 0 82 33t37 72q0 25 -18.5 39.5t-52.5 14.5
q-44 0 -79.5 -26.5t-43.5 -65.5l-100 -477h-147z" />
    <glyph glyph-name="agrave" unicode="&#xe0;" horiz-adv-x="662" 
d="M474 575h-95l-121 132l133 24zM506 517h146l-108 -517h-146l14 67q-79 -79 -182 -79q-86 0 -141 59.5t-55 150.5q0 133 85.5 232t208.5 99q53 0 94.5 -25.5t65.5 -70.5zM278 111q61 0 110 43.5t64 106.5l3 13q3 15 3 32q0 43 -29.5 71.5t-74.5 28.5q-72 0 -125 -58
t-53 -136q0 -44 28.5 -72.5t73.5 -28.5z" />
    <glyph glyph-name="aacute" unicode="&#xe1;" horiz-adv-x="662" 
d="M550 707l-175 -132h-103l148 156zM506 517h146l-108 -517h-146l14 67q-79 -79 -182 -79q-86 0 -141 59.5t-55 150.5q0 133 85.5 232t208.5 99q53 0 94.5 -25.5t65.5 -70.5zM278 111q61 0 110 43.5t64 106.5l3 13q3 15 3 32q0 43 -29.5 71.5t-74.5 28.5q-72 0 -125 -58
t-53 -136q0 -44 28.5 -72.5t73.5 -28.5z" />
    <glyph glyph-name="acircumflex" unicode="&#xe2;" horiz-adv-x="662" 
d="M402 649l-92 -74h-94l136 147h121l75 -147h-87zM506 517h146l-108 -517h-146l14 67q-79 -79 -182 -79q-86 0 -141 59.5t-55 150.5q0 133 85.5 232t208.5 99q53 0 94.5 -25.5t65.5 -70.5zM278 111q61 0 110 43.5t64 106.5l3 13q3 15 3 32q0 43 -29.5 71.5t-74.5 28.5
q-72 0 -125 -58t-53 -136q0 -44 28.5 -72.5t73.5 -28.5z" />
    <glyph glyph-name="atilde" unicode="&#xe3;" horiz-adv-x="662" 
d="M338 624q-39 0 -62 -58l-70 21q22 66 52 96.5t76 30.5q35 0 73.5 -25.5t47.5 -25.5q40 0 63 58l70 -22q-22 -66 -52.5 -96t-75.5 -30q-35 0 -73.5 25.5t-48.5 25.5zM506 517h146l-108 -517h-146l14 67q-79 -79 -182 -79q-86 0 -141 59.5t-55 150.5q0 133 85.5 232
t208.5 99q53 0 94.5 -25.5t65.5 -70.5zM278 111q61 0 110 43.5t64 106.5l3 13q3 15 3 32q0 43 -29.5 71.5t-74.5 28.5q-72 0 -125 -58t-53 -136q0 -44 28.5 -72.5t73.5 -28.5z" />
    <glyph glyph-name="adieresis" unicode="&#xe4;" horiz-adv-x="662" 
d="M289 584q-29 0 -47 18.5t-18 46.5q0 32 22.5 53.5t52.5 21.5q28 0 46 -19t18 -47q0 -30 -22.5 -52t-51.5 -22zM501 584q-29 0 -47 19t-18 47q0 31 22.5 52.5t52.5 21.5q28 0 46 -19t18 -46q0 -31 -22.5 -53t-51.5 -22zM506 517h146l-108 -517h-146l14 67
q-79 -79 -182 -79q-86 0 -141 59.5t-55 150.5q0 133 85.5 232t208.5 99q53 0 94.5 -25.5t65.5 -70.5zM278 111q61 0 110 43.5t64 106.5l3 13q3 15 3 32q0 43 -29.5 71.5t-74.5 28.5q-72 0 -125 -58t-53 -136q0 -44 28.5 -72.5t73.5 -28.5z" />
    <glyph glyph-name="aring" unicode="&#xe5;" horiz-adv-x="662" 
d="M384 581q-41 0 -67 25.5t-26 64.5q0 55 43.5 96t96.5 41q41 0 67 -25.5t26 -64.5q0 -54 -43 -95.5t-97 -41.5zM419 747q-25 0 -45.5 -19t-20.5 -43q0 -19 12.5 -31.5t31.5 -12.5q24 0 44 19.5t20 44.5q0 18 -11.5 30t-30.5 12zM506 517h146l-108 -517h-146l14 67
q-79 -79 -182 -79q-86 0 -141 59.5t-55 150.5q0 133 85.5 232t208.5 99q53 0 94.5 -25.5t65.5 -70.5zM278 111q61 0 110 43.5t64 106.5l3 13q3 15 3 32q0 43 -29.5 71.5t-74.5 28.5q-72 0 -125 -58t-53 -136q0 -44 28.5 -72.5t73.5 -28.5z" />
    <glyph glyph-name="ae" unicode="&#xe6;" horiz-adv-x="904" 
d="M639 211h-125v-5q0 -89 94 -89q78 0 140 51l80 -104q-87 -76 -223 -76q-126 0 -187 86q-81 -86 -214 -86q-101 0 -153.5 48.5t-36.5 127.5q15 72 83 116.5t156 44.5q66 0 136 -30l4 20q19 97 -90 97q-65 0 -145 -39l-38 102q120 54 209 54q117 0 162 -78q89 78 205 78
q86 0 140.5 -39.5t54.5 -101.5q0 -86 -66.5 -133t-185.5 -44zM690 401q-99 0 -148 -85h116q43 0 66.5 12t23.5 33q0 17 -16.5 28.5t-41.5 11.5zM221 89q53 0 95 28t50 68l6 30q-43 15 -99 15q-43 0 -78.5 -24.5t-42.5 -59.5q-6 -27 12.5 -42t56.5 -15z" />
    <glyph glyph-name="ccedilla" unicode="&#xe7;" horiz-adv-x="551" 
d="M489 75q-87 -77 -193 -86l-21 -33q27 -2 43 -19t16 -43q0 -42 -33 -66.5t-83 -24.5q-54 0 -95 33l31 50q19 -19 51 -19q27 0 43.5 10t16.5 26q0 21 -19 21q-20 0 -38 -13l-21 25l34 56q-83 16 -135.5 78.5t-52.5 145.5q0 127 101.5 220t232.5 93q60 0 109 -25t80 -67
l-107 -74q-14 20 -40.5 31.5t-53.5 11.5q-72 0 -127.5 -57t-55.5 -129q0 -46 31 -77.5t76 -31.5q68 0 124 54z" />
    <glyph glyph-name="egrave" unicode="&#xe8;" horiz-adv-x="563" 
d="M453 575h-95l-121 132l133 24zM293 211h-125v-5q0 -89 94 -89q78 0 140 51l80 -104q-87 -76 -223 -76q-103 0 -165 60t-62 157q0 134 94 229t224 95q86 0 140.5 -39.5t54.5 -101.5q0 -86 -66.5 -133t-185.5 -44zM344 401q-99 0 -148 -85h116q43 0 66.5 12t23.5 33
q0 17 -16.5 28.5t-41.5 11.5z" />
    <glyph glyph-name="eacute" unicode="&#xe9;" horiz-adv-x="563" 
d="M529 707l-175 -132h-103l148 156zM293 211h-125v-5q0 -89 94 -89q78 0 140 51l80 -104q-87 -76 -223 -76q-103 0 -165 60t-62 157q0 134 94 229t224 95q86 0 140.5 -39.5t54.5 -101.5q0 -86 -66.5 -133t-185.5 -44zM344 401q-99 0 -148 -85h116q43 0 66.5 12t23.5 33
q0 17 -16.5 28.5t-41.5 11.5z" />
    <glyph glyph-name="ecircumflex" unicode="&#xea;" horiz-adv-x="563" 
d="M381 649l-92 -74h-94l136 147h121l75 -147h-87zM293 211h-125v-5q0 -89 94 -89q78 0 140 51l80 -104q-87 -76 -223 -76q-103 0 -165 60t-62 157q0 134 94 229t224 95q86 0 140.5 -39.5t54.5 -101.5q0 -86 -66.5 -133t-185.5 -44zM344 401q-99 0 -148 -85h116
q43 0 66.5 12t23.5 33q0 17 -16.5 28.5t-41.5 11.5z" />
    <glyph glyph-name="edieresis" unicode="&#xeb;" horiz-adv-x="563" 
d="M268 584q-29 0 -47 18.5t-18 46.5q0 32 22.5 53.5t52.5 21.5q28 0 46 -19t18 -47q0 -30 -22.5 -52t-51.5 -22zM480 584q-29 0 -47 19t-18 47q0 31 22.5 52.5t52.5 21.5q28 0 46 -19t18 -46q0 -31 -22.5 -53t-51.5 -22zM350 529q86 0 140.5 -39.5t54.5 -101.5
q0 -86 -66.5 -133t-185.5 -44h-125v-5q0 -89 94 -89q78 0 140 51l80 -104q-87 -76 -223 -76q-103 0 -165 60t-62 157q0 134 94 229t224 95zM312 316q43 0 66.5 12t23.5 33q0 17 -16.5 28.5t-41.5 11.5q-99 0 -148 -85h116z" />
    <glyph glyph-name="igrave" unicode="&#xec;" horiz-adv-x="272" 
d="M154 575l-121 132l133 24l83 -156h-95zM9 0l108 517h146l-108 -517h-146z" />
    <glyph glyph-name="iacute" unicode="&#xed;" horiz-adv-x="272" 
d="M149 575l148 156l130 -24l-175 -132h-103zM9 0l108 517h146l-108 -517h-146z" />
    <glyph glyph-name="icircumflex" unicode="&#xee;" horiz-adv-x="272" 
d="M35 575l136 147h121l75 -147h-87l-59 74l-92 -74h-94zM9 0l108 517h146l-108 -517h-146z" />
    <glyph glyph-name="idieresis" unicode="&#xef;" horiz-adv-x="272" 
d="M108 584q-29 0 -47 18.5t-18 46.5q0 32 22.5 53.5t52.5 21.5q28 0 46 -19t18 -47q0 -30 -22.5 -52t-51.5 -22zM320 584q-29 0 -47 19t-18 47q0 31 22.5 52.5t52.5 21.5q28 0 46 -19t18 -46q0 -31 -22.5 -53t-51.5 -22zM9 0l108 517h146l-108 -517h-146z" />
    <glyph glyph-name="eth" unicode="&#xf0;" horiz-adv-x="633" 
d="M487 613q114 -132 114 -261q0 -149 -95 -256.5t-235 -107.5q-105 0 -168.5 58.5t-63.5 153.5q0 118 79 206t192 88q89 0 146 -71q-16 72 -85 142l-117 -48l-19 77l72 30q-44 35 -63 49l135 49q18 -16 50 -48l102 42l20 -77zM279 112q68 0 119.5 52.5t51.5 119.5
q0 41 -26 66.5t-73 25.5q-70 0 -121 -52t-51 -120q0 -43 27 -67.5t73 -24.5z" />
    <glyph glyph-name="ntilde" unicode="&#xf1;" 
d="M336 624q-39 0 -62 -58l-70 21q22 66 52 96.5t76 30.5q35 0 73.5 -25.5t47.5 -25.5q40 0 63 58l70 -22q-22 -66 -52.5 -96t-75.5 -30q-35 0 -73.5 25.5t-48.5 25.5zM408 529q75 0 119 -43.5t44 -114.5q0 -7 -0.5 -12.5t-1.5 -14.5t-2.5 -17.5l-4.5 -25t-6.5 -32.5
l-9.5 -45l-12 -57.5l-15.5 -74.5l-19.5 -92h-141q67 316 67 335q0 33 -18.5 52t-51.5 19q-49 0 -90 -31.5t-49 -74.5v1l-63 -301h-146l108 517h146l-12 -56q63 68 159 68z" />
    <glyph glyph-name="ograve" unicode="&#xf2;" horiz-adv-x="634" 
d="M373 575l-121 132l133 24l83 -156h-95zM268 -12q-100 0 -167.5 66.5t-67.5 161.5q0 127 101.5 220t231.5 93q100 0 168 -66.5t68 -161.5q0 -126 -102 -219.5t-232 -93.5zM279 111q72 0 129 57t57 129q0 46 -32 77.5t-78 31.5q-72 0 -128.5 -57t-56.5 -129
q0 -46 31.5 -77.5t77.5 -31.5z" />
    <glyph glyph-name="oacute" unicode="&#xf3;" horiz-adv-x="634" 
d="M266 575l148 156l130 -24l-175 -132h-103zM268 -12q-100 0 -167.5 66.5t-67.5 161.5q0 127 101.5 220t231.5 93q100 0 168 -66.5t68 -161.5q0 -126 -102 -219.5t-232 -93.5zM279 111q72 0 129 57t57 129q0 46 -32 77.5t-78 31.5q-72 0 -128.5 -57t-56.5 -129
q0 -46 31.5 -77.5t77.5 -31.5z" />
    <glyph glyph-name="ocircumflex" unicode="&#xf4;" horiz-adv-x="634" 
d="M210 575l136 147h121l75 -147h-87l-59 74l-92 -74h-94zM268 -12q-100 0 -167.5 66.5t-67.5 161.5q0 127 101.5 220t231.5 93q100 0 168 -66.5t68 -161.5q0 -126 -102 -219.5t-232 -93.5zM279 111q72 0 129 57t57 129q0 46 -32 77.5t-78 31.5q-72 0 -128.5 -57t-56.5 -129
q0 -46 31.5 -77.5t77.5 -31.5z" />
    <glyph glyph-name="otilde" unicode="&#xf5;" horiz-adv-x="634" 
d="M454 573q-35 0 -73.5 25.5t-48.5 25.5q-39 0 -62 -58l-70 21q22 66 52 96.5t76 30.5q35 0 73.5 -25.5t47.5 -25.5q40 0 63 58l70 -22q-22 -66 -52.5 -96t-75.5 -30zM268 -12q-100 0 -167.5 66.5t-67.5 161.5q0 127 101.5 220t231.5 93q100 0 168 -66.5t68 -161.5
q0 -126 -102 -219.5t-232 -93.5zM279 111q72 0 129 57t57 129q0 46 -32 77.5t-78 31.5q-72 0 -128.5 -57t-56.5 -129q0 -46 31.5 -77.5t77.5 -31.5z" />
    <glyph glyph-name="odieresis" unicode="&#xf6;" horiz-adv-x="634" 
d="M283 584q-29 0 -47 18.5t-18 46.5q0 32 22.5 53.5t52.5 21.5q28 0 46 -19t18 -47q0 -30 -22.5 -52t-51.5 -22zM495 584q-29 0 -47 19t-18 47q0 31 22.5 52.5t52.5 21.5q28 0 46 -19t18 -46q0 -31 -22.5 -53t-51.5 -22zM268 -12q-100 0 -167.5 66.5t-67.5 161.5
q0 127 101.5 220t231.5 93q100 0 168 -66.5t68 -161.5q0 -126 -102 -219.5t-232 -93.5zM279 111q72 0 129 57t57 129q0 46 -32 77.5t-78 31.5q-72 0 -128.5 -57t-56.5 -129q0 -46 31.5 -77.5t77.5 -31.5z" />
    <glyph glyph-name="divide" unicode="&#xf7;" horiz-adv-x="603" 
d="M351 442q-33 0 -53.5 21t-20.5 53q0 38 26.5 62.5t61.5 24.5q31 0 51 -21.5t20 -51.5q0 -36 -26 -62t-59 -26zM63 275l25 119h483l-25 -119h-483zM273 65q-33 0 -53.5 21.5t-20.5 52.5q0 38 26.5 62.5t61.5 24.5q30 0 50.5 -21t20.5 -51q0 -36 -26 -62.5t-59 -26.5z" />
    <glyph glyph-name="oslash" unicode="&#xf8;" horiz-adv-x="634" 
d="M649 517l-90 -84q43 -59 43 -132q0 -126 -102 -219.5t-232 -93.5q-78 0 -140 43l-33 -31h-110l90 84q-42 58 -42 132q0 127 101.5 220t231.5 93q78 0 140 -43l34 31h109zM170 220q0 -20 8 -41l229 214q-24 13 -52 13q-72 0 -128.5 -57t-56.5 -129zM465 297q0 20 -8 41
l-230 -214q26 -13 52 -13q72 0 129 57t57 129z" />
    <glyph glyph-name="ugrave" unicode="&#xf9;" 
d="M462 575h-95l-121 132l133 24zM460 517h146l-108 -517h-146l12 56q-63 -68 -159 -68q-75 0 -119 43.5t-44 114.5q0 7 0.5 12.5t1.5 14.5t2.5 17.5l4.5 25t6.5 32.5l9.5 45l12 57.5l16 74.5t19 92h141q-67 -316 -67 -335q0 -34 19 -52.5t51 -18.5q49 0 90 31.5t49 74.5v-1
z" />
    <glyph glyph-name="uacute" unicode="&#xfa;" 
d="M538 707l-175 -132h-103l148 156zM460 517h146l-108 -517h-146l12 56q-63 -68 -159 -68q-75 0 -119 43.5t-44 114.5q0 7 0.5 12.5t1.5 14.5t2.5 17.5l4.5 25t6.5 32.5l9.5 45l12 57.5l16 74.5t19 92h141q-67 -316 -67 -335q0 -34 19 -52.5t51 -18.5q49 0 90 31.5t49 74.5
v-1z" />
    <glyph glyph-name="ucircumflex" unicode="&#xfb;" 
d="M390 649l-92 -74h-94l136 147h121l75 -147h-87zM460 517h146l-108 -517h-146l12 56q-63 -68 -159 -68q-75 0 -119 43.5t-44 114.5q0 7 0.5 12.5t1.5 14.5t2.5 17.5l4.5 25t6.5 32.5l9.5 45l12 57.5l16 74.5t19 92h141q-67 -316 -67 -335q0 -34 19 -52.5t51 -18.5
q49 0 90 31.5t49 74.5v-1z" />
    <glyph glyph-name="udieresis" unicode="&#xfc;" 
d="M277 584q-29 0 -47 18.5t-18 46.5q0 32 22.5 53.5t52.5 21.5q28 0 46 -19t18 -47q0 -30 -22.5 -52t-51.5 -22zM489 584q-29 0 -47 19t-18 47q0 31 22.5 52.5t52.5 21.5q28 0 46 -19t18 -46q0 -31 -22.5 -53t-51.5 -22zM460 517h146l-108 -517h-146l12 56
q-63 -68 -159 -68q-75 0 -119 43.5t-44 114.5q0 7 0.5 12.5t1.5 14.5t2.5 17.5l4.5 25t6.5 32.5l9.5 45l12 57.5l16 74.5t19 92h141q-67 -316 -67 -335q0 -34 19 -52.5t51 -18.5q49 0 90 31.5t49 74.5v-1z" />
    <glyph glyph-name="yacute" unicode="&#xfd;" horiz-adv-x="601" 
d="M254 575l148 156l130 -24l-175 -132h-103zM96 -180q-70 0 -126 35l43 94q32 -20 61 -20q20 0 41 9.5t31 24.5l28 32l-105 522h148l59 -363l206 363h152l-326 -548q-88 -149 -212 -149z" />
    <glyph glyph-name="thorn" unicode="&#xfe;" horiz-adv-x="662" 
d="M432 529q86 0 141 -59.5t55 -149.5q0 -133 -85.5 -232.5t-208.5 -99.5q-109 0 -160 95l-53 -255h-146l181 871h146l-52 -249q79 79 182 79zM308 111q72 0 125 58.5t53 135.5q0 44 -28.5 72.5t-72.5 28.5q-59 0 -107 -40.5t-66 -100.5l-7 -31q-1 -7 -1 -23
q0 -43 29.5 -71.5t74.5 -28.5z" />
    <glyph glyph-name="ydieresis" unicode="&#xff;" horiz-adv-x="601" 
d="M271 584q-29 0 -47 18.5t-18 46.5q0 32 22.5 53.5t52.5 21.5q28 0 46 -19t18 -47q0 -30 -22.5 -52t-51.5 -22zM483 584q-29 0 -47 19t-18 47q0 31 22.5 52.5t52.5 21.5q28 0 46 -19t18 -46q0 -31 -22.5 -53t-51.5 -22zM96 -180q-70 0 -126 35l43 94q32 -20 61 -20
q20 0 41 9.5t31 24.5l28 32l-105 522h148l59 -363l206 363h152l-326 -548q-88 -149 -212 -149z" />
    <glyph glyph-name="Amacron" unicode="&#x100;" horiz-adv-x="767" 
d="M689 837l-18 -86h-345l18 86h345zM537 0l-24 118h-297l-72 -118h-169l423 687h167l-2 -2l137 -685h-163zM287 233h204l-50 251z" />
    <glyph glyph-name="amacron" unicode="&#x101;" horiz-adv-x="662" 
d="M575 667l-18 -86h-345l18 86h345zM506 517h146l-108 -517h-146l14 67q-79 -79 -182 -79q-86 0 -141 59.5t-55 150.5q0 133 85.5 232t208.5 99q53 0 94.5 -25.5t65.5 -70.5zM278 111q61 0 110 43.5t64 106.5l3 13q3 15 3 32q0 43 -29.5 71.5t-74.5 28.5q-72 0 -125 -58
t-53 -136q0 -44 28.5 -72.5t73.5 -28.5z" />
    <glyph glyph-name="Abreve" unicode="&#x102;" horiz-adv-x="767" 
d="M501 751q-93 0 -149 67l75 62q34 -42 88 -42q55 0 108 43l51 -65q-78 -65 -173 -65zM537 0l-24 118h-297l-72 -118h-169l423 687h167l-2 -2l137 -685h-163zM287 233h204l-50 251z" />
    <glyph glyph-name="abreve" unicode="&#x103;" horiz-adv-x="662" 
d="M387 581q-93 0 -149 67l75 62q34 -42 88 -42q55 0 108 43l51 -65q-78 -65 -173 -65zM506 517h146l-108 -517h-146l14 67q-79 -79 -182 -79q-86 0 -141 59.5t-55 150.5q0 133 85.5 232t208.5 99q53 0 94.5 -25.5t65.5 -70.5zM278 111q61 0 110 43.5t64 106.5l3 13
q3 15 3 32q0 43 -29.5 71.5t-74.5 28.5q-72 0 -125 -58t-53 -136q0 -44 28.5 -72.5t73.5 -28.5z" />
    <glyph glyph-name="Aogonek" unicode="&#x104;" horiz-adv-x="767" 
d="M719 -67l18 -77q-38 -29 -89 -29q-45 0 -71.5 25t-26.5 69t27 79h-40l-24 118h-297l-72 -118h-169l423 687h167l-2 -2l137 -683l5 -2q-26 0 -44.5 -16.5t-18.5 -41.5q0 -27 29 -27q30 0 48 18zM287 233h204l-50 251z" />
    <glyph glyph-name="aogonek" unicode="&#x105;" horiz-adv-x="662" 
d="M515 -85q30 0 48 18l18 -77q-38 -29 -89 -29q-45 0 -71.5 25t-26.5 69t27 79h-23l14 67q-79 -79 -182 -79q-86 0 -141 59.5t-55 150.5q0 133 85.5 232t208.5 99q53 0 94.5 -25.5t65.5 -70.5l18 84h146l-108 -515l5 -2q-26 0 -44.5 -16.5t-18.5 -41.5q0 -27 29 -27z
M278 111q61 0 110 43.5t64 106.5l3 13q3 15 3 32q0 43 -29.5 71.5t-74.5 28.5q-72 0 -125 -58t-53 -136q0 -44 28.5 -72.5t73.5 -28.5z" />
    <glyph glyph-name="Cacute" unicode="&#x106;" horiz-adv-x="700" 
d="M366 745l148 156l130 -24l-175 -132h-103zM358 -12q-124 0 -213.5 88.5t-89.5 214.5q0 162 130.5 285t301.5 123q75 0 143 -33t109 -85l-120 -89q-22 32 -60 52.5t-83 20.5q-107 0 -189 -82.5t-82 -189.5q0 -73 50 -122t118 -49q41 0 91.5 23t87.5 59l92 -105
q-56 -49 -136 -80t-150 -31z" />
    <glyph glyph-name="cacute" unicode="&#x107;" horiz-adv-x="551" 
d="M253 575l148 156l130 -24l-175 -132h-103zM267 -12q-99 0 -166.5 66.5t-67.5 161.5q0 127 101.5 220t232.5 93q60 0 109 -25t80 -67l-107 -74q-14 20 -40.5 31.5t-53.5 11.5q-72 0 -127.5 -57t-55.5 -129q0 -46 31 -77.5t76 -31.5q68 0 124 54l86 -90q-96 -87 -222 -87z
" />
    <glyph glyph-name="Ccaron" unicode="&#x10c;" horiz-adv-x="700" 
d="M419 745l-74 147h87l57 -75l94 75h94l-137 -147h-121zM358 -12q-124 0 -213.5 88.5t-89.5 214.5q0 162 130.5 285t301.5 123q75 0 143 -33t109 -85l-120 -89q-22 32 -60 52.5t-83 20.5q-107 0 -189 -82.5t-82 -189.5q0 -73 50 -122t118 -49q41 0 91.5 23t87.5 59l92 -105
q-56 -49 -136 -80t-150 -31z" />
    <glyph glyph-name="ccaron" unicode="&#x10d;" horiz-adv-x="551" 
d="M306 575l-74 147h87l57 -75l94 75h94l-137 -147h-121zM267 -12q-99 0 -166.5 66.5t-67.5 161.5q0 127 101.5 220t232.5 93q60 0 109 -25t80 -67l-107 -74q-14 20 -40.5 31.5t-53.5 11.5q-72 0 -127.5 -57t-55.5 -129q0 -46 31 -77.5t76 -31.5q68 0 124 54l86 -90
q-96 -87 -222 -87z" />
    <glyph glyph-name="Dcaron" unicode="&#x10e;" horiz-adv-x="761" 
d="M359 745l-74 147h87l57 -75l94 75h94l-137 -147h-121zM20 0l143 687h242q146 0 240 -79t94 -202q0 -109 -63.5 -202.5t-171.5 -148.5t-233 -55h-251zM195 134h114q113 0 196 78.5t83 186.5q0 68 -51.5 111t-131.5 43h-122z" />
    <glyph glyph-name="dcaron" unicode="&#x10f;" horiz-adv-x="661" 
d="M488 434l55 265h146l-145 -699h-146l14 67q-79 -79 -182 -79q-86 0 -141 59.5t-55 150.5q0 133 85.5 232t208.5 99q52 0 94 -25.5t66 -69.5zM814 699q30 0 47 -21t17 -56q0 -80 -110 -170l-41 38q44 33 69 75q-27 -1 -41 15.5t-14 43.5q0 30 22 52.5t51 22.5zM278 111
q59 0 107 41t66 102l5 27q2 16 2 25q0 43 -29.5 71.5t-74.5 28.5q-72 0 -125 -58t-53 -136q0 -44 28.5 -72.5t73.5 -28.5z" />
    <glyph glyph-name="Dcroat" unicode="&#x110;" horiz-adv-x="802" 
d="M446 687q146 0 240 -79t94 -202q0 -109 -63.5 -202.5t-171.5 -148.5t-233 -55h-251l58 280h-73l27 133h74l57 274h242zM350 134q113 0 196 78.5t83 186.5q0 68 -51.5 111t-131.5 43h-122l-29 -140h157l-28 -133h-157l-31 -146h114z" />
    <glyph glyph-name="dcroat" unicode="&#x111;" horiz-adv-x="686" 
d="M737 647l-16 -74h-58l-119 -573h-146l14 67q-79 -79 -182 -79q-86 0 -141 59.5t-55 150.5q0 133 85.5 232t208.5 99q52 0 94 -25.5t66 -69.5l29 139h-154l16 74h153l11 52h146l-11 -52h59zM278 111q59 0 107 41t66 102l5 27q2 16 2 25q0 43 -29.5 71.5t-74.5 28.5
q-72 0 -125 -58t-53 -136q0 -44 28.5 -72.5t73.5 -28.5z" />
    <glyph glyph-name="Emacron" unicode="&#x112;" horiz-adv-x="641" 
d="M626 837l-18 -86h-345l18 86h345zM658 554h-381l-27 -137h344l-28 -133h-346l-29 -151h380l-28 -133h-529l143 687h529z" />
    <glyph glyph-name="emacron" unicode="&#x113;" horiz-adv-x="563" 
d="M554 667l-18 -86h-345l18 86h345zM350 529q86 0 140.5 -39.5t54.5 -101.5q0 -86 -66.5 -133t-185.5 -44h-125v-5q0 -89 94 -89q78 0 140 51l80 -104q-87 -76 -223 -76q-103 0 -165 60t-62 157q0 134 94 229t224 95zM312 316q43 0 66.5 12t23.5 33q0 17 -16.5 28.5
t-41.5 11.5q-99 0 -148 -85h116z" />
    <glyph glyph-name="Edotaccent" unicode="&#x116;" horiz-adv-x="641" 
d="M445 754q-29 0 -47 18.5t-18 46.5q0 32 22.5 53.5t52.5 21.5q28 0 46 -19t18 -47q0 -30 -22.5 -52t-51.5 -22zM658 554h-381l-27 -137h344l-28 -133h-346l-29 -151h380l-28 -133h-529l143 687h529z" />
    <glyph glyph-name="edotaccent" unicode="&#x117;" horiz-adv-x="563" 
d="M373 584q-29 0 -47 18.5t-18 46.5q0 32 22.5 53.5t52.5 21.5q28 0 46 -19t18 -47q0 -30 -22.5 -52t-51.5 -22zM293 211h-125v-5q0 -89 94 -89q78 0 140 51l80 -104q-87 -76 -223 -76q-103 0 -165 60t-62 157q0 134 94 229t224 95q86 0 140.5 -39.5t54.5 -101.5
q0 -86 -66.5 -133t-185.5 -44zM344 401q-99 0 -148 -85h116q43 0 66.5 12t23.5 33q0 17 -16.5 28.5t-41.5 11.5z" />
    <glyph glyph-name="Eogonek" unicode="&#x118;" horiz-adv-x="641" 
d="M658 554h-381l-27 -137h344l-28 -133h-346l-29 -151h380l-28 -133h-212q-26 0 -44.5 -16.5t-18.5 -41.5q0 -27 29 -27q30 0 48 18l18 -77q-38 -29 -89 -29q-45 0 -71.5 25t-26.5 69t27 79h-189l143 687h529z" />
    <glyph glyph-name="eogonek" unicode="&#x119;" horiz-adv-x="563" 
d="M293 211h-125v-5q0 -89 94 -89q78 0 140 51l80 -104q-85 -74 -218 -76q-26 0 -44.5 -16.5t-18.5 -41.5q0 -27 29 -27q30 0 48 18l18 -77q-38 -29 -89 -29q-45 0 -71.5 25t-26.5 69q0 61 47 98q-59 25 -91.5 77t-32.5 121q0 134 94 229t224 95q86 0 140.5 -39.5
t54.5 -101.5q0 -86 -66.5 -133t-185.5 -44zM344 401q-99 0 -148 -85h116q43 0 66.5 12t23.5 33q0 17 -16.5 28.5t-41.5 11.5z" />
    <glyph glyph-name="Ecaron" unicode="&#x11a;" horiz-adv-x="641" 
d="M497 745h-121l-74 147h87l57 -75l94 75h94zM658 554h-381l-27 -137h344l-28 -133h-346l-29 -151h380l-28 -133h-529l143 687h529z" />
    <glyph glyph-name="ecaron" unicode="&#x11b;" horiz-adv-x="563" 
d="M425 575h-121l-74 147h87l57 -75l94 75h94zM350 529q86 0 140.5 -39.5t54.5 -101.5q0 -86 -66.5 -133t-185.5 -44h-125v-5q0 -89 94 -89q78 0 140 51l80 -104q-87 -76 -223 -76q-103 0 -165 60t-62 157q0 134 94 229t224 95zM312 316q43 0 66.5 12t23.5 33
q0 17 -16.5 28.5t-41.5 11.5q-99 0 -148 -85h116z" />
    <glyph glyph-name="Gbreve" unicode="&#x11e;" horiz-adv-x="742" 
d="M509 751q-93 0 -149 67l75 62q34 -42 88 -42q55 0 108 43l51 -65q-78 -65 -173 -65zM384 266l25 116h303l-59 -283q-60 -52 -138.5 -81.5t-152.5 -29.5q-130 0 -218.5 87t-88.5 211q0 109 62.5 205t164 152t213.5 56q77 0 144.5 -32t108.5 -86l-120 -89
q-22 34 -61.5 53.5t-83.5 19.5q-109 0 -194 -84.5t-85 -190.5q0 -70 49.5 -119t121.5 -49q75 0 149 51l18 93h-158z" />
    <glyph glyph-name="gbreve" unicode="&#x11f;" horiz-adv-x="642" 
d="M393 581q-93 0 -149 67l75 62q34 -42 88 -42q55 0 108 43l51 -65q-78 -65 -173 -65zM486 517h146l-97 -468q-21 -101 -108.5 -161t-206.5 -60q-68 0 -126 20t-94 52l65 97q42 -46 139 -46q73 0 125.5 32.5t63.5 83.5l9 44q-76 -73 -178 -73q-87 0 -139.5 54.5
t-52.5 143.5q0 115 80.5 204t192.5 89q58 0 102 -25.5t63 -65.5zM276 161q66 0 116 48t50 109q0 42 -25 65t-69 23q-66 0 -116 -47t-50 -109q0 -43 25 -66t69 -23z" />
    <glyph glyph-name="Gcommaaccent" unicode="&#x122;" horiz-adv-x="742" 
d="M384 266l25 116h303l-59 -283q-60 -52 -138.5 -81.5t-152.5 -29.5q-130 0 -218.5 87t-88.5 211q0 109 62.5 205t164 152t213.5 56q77 0 144.5 -32t108.5 -86l-120 -89q-22 34 -61.5 53.5t-83.5 19.5q-109 0 -194 -84.5t-85 -190.5q0 -70 49.5 -119t121.5 -49q75 0 149 51
l18 93h-158zM340 -47q30 0 47 -21t17 -56q0 -80 -110 -170l-41 38q44 33 69 75q-27 -1 -41 15.5t-14 43.5q0 30 22 52.5t51 22.5z" />
    <glyph glyph-name="gcommaaccent" unicode="&#x123;" horiz-adv-x="600" 
d="M408 584q-30 0 -47 21t-17 56q0 80 110 170l41 -38q-44 -33 -69 -75q27 1 41 -15.5t14 -43.5q0 -30 -22 -52.5t-51 -22.5zM486 517h146l-97 -468q-21 -101 -108.5 -161t-206.5 -60q-68 0 -126 20t-94 52l65 97q42 -46 139 -46q73 0 125.5 32.5t63.5 83.5l9 44
q-76 -73 -178 -73q-87 0 -139.5 54.5t-52.5 143.5q0 115 80.5 204t192.5 89q58 0 102 -25.5t63 -65.5zM276 161q66 0 116 48t50 109q0 42 -25 65t-69 23q-66 0 -116 -47t-50 -109q0 -43 25 -66t69 -23z" />
    <glyph glyph-name="Imacron" unicode="&#x12a;" horiz-adv-x="287" 
d="M74 751l18 86h345l-18 -86h-345zM16 0l143 687h148l-143 -687h-148z" />
    <glyph glyph-name="imacron" unicode="&#x12b;" horiz-adv-x="272" 
d="M31 581l18 86h345l-18 -86h-345zM9 0l108 517h146l-108 -517h-146z" />
    <glyph glyph-name="Iogonek" unicode="&#x12e;" horiz-adv-x="287" 
d="M135 -85q30 0 48 18l18 -77q-38 -29 -89 -29q-45 0 -71.5 25t-26.5 69t27 79h-25l143 687h148l-143 -685l5 -2q-26 0 -44.5 -16.5t-18.5 -41.5q0 -27 29 -27z" />
    <glyph glyph-name="iogonek" unicode="&#x12f;" horiz-adv-x="272" 
d="M223 724q28 0 46 -19t18 -47q0 -30 -22.5 -52t-51.5 -22t-47 18.5t-18 46.5q0 32 22.5 53.5t52.5 21.5zM15 27l102 490h146l-108 -517h-68q-26 0 -44.5 -16.5t-18.5 -41.5q0 -27 29 -27q30 0 48 18l18 -77q-38 -29 -89 -29q-45 0 -71.5 25t-26.5 69q0 76 68 112z" />
    <glyph glyph-name="Idotaccent" unicode="&#x130;" horiz-adv-x="287" 
d="M256 754q-29 0 -47 18.5t-18 46.5q0 32 22.5 53.5t52.5 21.5q28 0 46 -19t18 -47q0 -30 -22.5 -52t-51.5 -22zM16 0l143 687h148l-143 -687h-148z" />
    <glyph glyph-name="dotlessi" unicode="&#x131;" horiz-adv-x="272" 
d="M9 0l108 517h146l-108 -517h-146z" />
    <glyph glyph-name="Kcommaaccent" unicode="&#x136;" horiz-adv-x="694" 
d="M19 0l143 687h147l-63 -298l332 298h190l-335 -301l204 -386h-172l-150 284l-106 -92l-43 -192h-147zM247 -294l-41 38q44 33 69 75q-27 -1 -41 15.5t-14 43.5q0 30 22 52.5t51 22.5q30 0 47 -21t17 -56q0 -80 -110 -170z" />
    <glyph glyph-name="kcommaaccent" unicode="&#x137;" horiz-adv-x="571" 
d="M623 517l-250 -229l136 -288h-163l-86 194l-80 -69l-26 -125h-146l145 699h146l-83 -402l236 220h171zM228 -47q30 0 47 -21t17 -56q0 -80 -110 -170l-41 38q44 33 69 75q-27 -1 -41 15.5t-14 43.5q0 30 22 52.5t51 22.5z" />
    <glyph glyph-name="Lacute" unicode="&#x139;" horiz-adv-x="580" 
d="M466 877l-175 -132h-103l148 156zM187 133h340l-28 -133h-490l143 687h148z" />
    <glyph glyph-name="lacute" unicode="&#x13a;" horiz-adv-x="273" 
d="M181 757l148 156l130 -24l-175 -132h-103zM11 0l145 699h146l-145 -699h-146z" />
    <glyph glyph-name="Lcaron" unicode="&#x13d;" horiz-adv-x="580" 
d="M340 489q44 33 69 75q-27 -1 -41 15.5t-14 43.5q0 30 22 52.5t51 22.5q30 0 47 -21t17 -56q0 -80 -110 -170zM187 133h340l-28 -133h-490l143 687h148z" />
    <glyph glyph-name="lcaron" unicode="&#x13e;" horiz-adv-x="273" 
d="M11 0l145 699h146l-145 -699h-146zM379 452l-41 38q44 33 69 75q-27 -1 -41 15.5t-14 43.5q0 30 22 52.5t51 22.5q30 0 47 -21t17 -56q0 -80 -110 -170z" />
    <glyph glyph-name="Lslash" unicode="&#x141;" horiz-adv-x="617" 
d="M223 133h340l-28 -133h-490l49 235l-78 -35l25 131l80 36l67 320h148l-50 -246l130 59l-26 -130l-131 -60z" />
    <glyph glyph-name="lslash" unicode="&#x142;" horiz-adv-x="355" 
d="M374 482l-25 -130l-82 -37l-65 -315h-146l50 241l-90 -41l25 131l92 42l68 326h146l-52 -253z" />
    <glyph glyph-name="Nacute" unicode="&#x143;" horiz-adv-x="774" 
d="M376 745l148 156l130 -24l-175 -132h-103zM20 0l143 687h146l238 -444l94 444h148l-143 -687h-145l-239 444l-95 -444h-147z" />
    <glyph glyph-name="nacute" unicode="&#x144;" 
d="M548 707l-175 -132h-103l148 156zM408 529q75 0 119 -43.5t44 -114.5q0 -7 -0.5 -12.5t-1.5 -14.5t-2.5 -17.5l-4.5 -25t-6.5 -32.5l-9.5 -45l-12 -57.5l-15.5 -74.5l-19.5 -92h-141q67 316 67 335q0 33 -18.5 52t-51.5 19q-49 0 -90 -31.5t-49 -74.5v1l-63 -301h-146
l108 517h146l-12 -56q63 68 159 68z" />
    <glyph glyph-name="Ncommaaccent" unicode="&#x145;" horiz-adv-x="774" 
d="M20 0l143 687h146l238 -444l94 444h148l-143 -687h-145l-239 444l-95 -444h-147zM268 -294l-41 38q44 33 69 75q-27 -1 -41 15.5t-14 43.5q0 30 22 52.5t51 22.5q30 0 47 -21t17 -56q0 -80 -110 -170z" />
    <glyph glyph-name="ncommaaccent" unicode="&#x146;" 
d="M408 529q75 0 119 -43.5t44 -114.5q0 -7 -0.5 -12.5t-1.5 -14.5t-2.5 -17.5l-4.5 -25t-6.5 -32.5l-9.5 -45l-12 -57.5l-15.5 -74.5l-19.5 -92h-141q67 316 67 335q0 33 -18.5 52t-51.5 19q-49 0 -90 -31.5t-49 -74.5v1l-63 -301h-146l108 517h146l-12 -56q63 68 159 68z
M242 -47q30 0 47 -21t17 -56q0 -80 -110 -170l-41 38q44 33 69 75q-27 -1 -41 15.5t-14 43.5q0 30 22 52.5t51 22.5z" />
    <glyph glyph-name="Ncaron" unicode="&#x147;" horiz-adv-x="774" 
d="M429 745l-74 147h87l57 -75l94 75h94l-137 -147h-121zM20 0l143 687h146l238 -444l94 444h148l-143 -687h-145l-239 444l-95 -444h-147z" />
    <glyph glyph-name="ncaron" unicode="&#x148;" 
d="M444 575h-121l-74 147h87l57 -75l94 75h94zM408 529q75 0 119 -43.5t44 -114.5q0 -7 -0.5 -12.5t-1.5 -14.5t-2.5 -17.5l-4.5 -25t-6.5 -32.5l-9.5 -45l-12 -57.5l-15.5 -74.5l-19.5 -92h-141q67 316 67 335q0 33 -18.5 52t-51.5 19q-49 0 -90 -31.5t-49 -74.5v1
l-63 -301h-146l108 517h146l-12 -56q63 68 159 68z" />
    <glyph glyph-name="Omacron" unicode="&#x14c;" horiz-adv-x="812" 
d="M329 751l18 86h345l-18 -86h-345zM357 -12q-128 0 -215.5 86.5t-87.5 209.5q0 109 62 205.5t162.5 153t211.5 56.5q132 0 218 -85t86 -211q0 -109 -62 -205.5t-163.5 -153t-211.5 -56.5zM371 122q106 0 189.5 86t83.5 190q0 72 -47 119.5t-119 47.5q-107 0 -190.5 -84.5
t-83.5 -190.5q0 -70 48 -119t119 -49z" />
    <glyph glyph-name="omacron" unicode="&#x14d;" horiz-adv-x="634" 
d="M206 581l18 86h345l-18 -86h-345zM268 -12q-100 0 -167.5 66.5t-67.5 161.5q0 127 101.5 220t231.5 93q100 0 168 -66.5t68 -161.5q0 -126 -102 -219.5t-232 -93.5zM279 111q72 0 129 57t57 129q0 46 -32 77.5t-78 31.5q-72 0 -128.5 -57t-56.5 -129q0 -46 31.5 -77.5
t77.5 -31.5z" />
    <glyph glyph-name="Ohungarumlaut" unicode="&#x150;" horiz-adv-x="812" 
d="M368 745l148 156l130 -24l-175 -132h-103zM603 745l148 155l130 -24l-176 -131h-102zM357 -12q-128 0 -215.5 86.5t-87.5 209.5q0 109 62 205.5t162.5 153t211.5 56.5q132 0 218 -85t86 -211q0 -109 -62 -205.5t-163.5 -153t-211.5 -56.5zM371 122q106 0 189.5 86
t83.5 190q0 72 -47 119.5t-119 47.5q-107 0 -190.5 -84.5t-83.5 -190.5q0 -70 48 -119t119 -49z" />
    <glyph glyph-name="ohungarumlaut" unicode="&#x151;" horiz-adv-x="634" 
d="M211 575l148 156l130 -24l-175 -132h-103zM446 575l148 155l130 -24l-176 -131h-102zM268 -12q-100 0 -167.5 66.5t-67.5 161.5q0 127 101.5 220t231.5 93q100 0 168 -66.5t68 -161.5q0 -126 -102 -219.5t-232 -93.5zM279 111q72 0 129 57t57 129q0 46 -32 77.5t-78 31.5
q-72 0 -128.5 -57t-56.5 -129q0 -46 31.5 -77.5t77.5 -31.5z" />
    <glyph glyph-name="OE" unicode="&#x152;" horiz-adv-x="1037" 
d="M1053 554h-381l-27 -137h344l-28 -133h-346l-29 -151h380l-28 -133h-580q-131 0 -217.5 80t-86.5 203q0 106 63 200t164 149t210 55h590zM376 134h61l87 419h-51q-101 0 -185 -83t-84 -183q0 -69 48 -111t124 -42z" />
    <glyph glyph-name="oe" unicode="&#x153;" horiz-adv-x="990" 
d="M725 211h-125v-5q0 -89 94 -89q78 0 140 51l80 -104q-87 -76 -223 -76q-131 0 -192 92q-100 -92 -231 -92q-100 0 -167.5 66.5t-67.5 161.5q0 127 101.5 220t231.5 93q60 0 110 -25.5t83 -69.5q93 95 223 95q86 0 140.5 -39.5t54.5 -101.5q0 -86 -66.5 -133t-185.5 -44z
M279 111q72 0 129 57t57 129q0 46 -32 77.5t-78 31.5q-72 0 -128.5 -57t-56.5 -129q0 -46 31.5 -77.5t77.5 -31.5zM776 401q-99 0 -148 -85h116q43 0 66.5 12t23.5 33q0 17 -16.5 28.5t-41.5 11.5z" />
    <glyph glyph-name="Racute" unicode="&#x154;" horiz-adv-x="693" 
d="M615 877l-175 -132h-103l148 156zM679 492q0 -88 -56.5 -157t-147.5 -97l144 -238h-164l-135 223h-112l-47 -223h-147l143 687h303q98 0 158.5 -54t60.5 -141zM277 552l-41 -194h147q58 0 102.5 38t44.5 86q0 32 -27 51t-73 19h-153z" />
    <glyph glyph-name="racute" unicode="&#x155;" horiz-adv-x="433" 
d="M460 707l-175 -132h-103l148 156zM246 428q72 101 192 101l-16 -123q-78 0 -136.5 -42.5t-76.5 -110.5l-53 -253h-146l108 517h146z" />
    <glyph glyph-name="Rcommaaccent" unicode="&#x156;" horiz-adv-x="693" 
d="M679 492q0 -88 -56.5 -157t-147.5 -97l144 -238h-164l-135 223h-112l-47 -223h-147l143 687h303q98 0 158.5 -54t60.5 -141zM277 552l-41 -194h147q58 0 102.5 38t44.5 86q0 32 -27 51t-73 19h-153zM270 -47q30 0 47 -21t17 -56q0 -80 -110 -170l-41 38q44 33 69 75
q-27 -1 -41 15.5t-14 43.5q0 30 22 52.5t51 22.5z" />
    <glyph glyph-name="rcommaaccent" unicode="&#x157;" horiz-adv-x="433" 
d="M246 428q72 101 192 101l-16 -123q-78 0 -136.5 -42.5t-76.5 -110.5l-53 -253h-146l108 517h146zM137 -47q30 0 47 -21t17 -56q0 -80 -110 -170l-41 38q44 33 69 75q-27 -1 -41 15.5t-14 43.5q0 30 22 52.5t51 22.5z" />
    <glyph glyph-name="Rcaron" unicode="&#x158;" horiz-adv-x="693" 
d="M511 745h-121l-74 147h87l57 -75l94 75h94zM679 492q0 -88 -56.5 -157t-147.5 -97l144 -238h-164l-135 223h-112l-47 -223h-147l143 687h303q98 0 158.5 -54t60.5 -141zM277 552l-41 -194h147q58 0 102.5 38t44.5 86q0 32 -27 51t-73 19h-153z" />
    <glyph glyph-name="rcaron" unicode="&#x159;" horiz-adv-x="433" 
d="M356 575h-121l-74 147h87l57 -75l94 75h94zM246 428q72 101 192 101l-16 -123q-78 0 -136.5 -42.5t-76.5 -110.5l-53 -253h-146l108 517h146z" />
    <glyph glyph-name="Sacute" unicode="&#x15a;" horiz-adv-x="634" 
d="M292 745l148 156l130 -24l-175 -132h-103zM277 -12q-83 0 -160 31.5t-126 85.5l99 95q39 -41 92.5 -64t105.5 -23q67 0 107 29t40 70q0 23 -25 36.5t-96 31.5q-114 28 -166 64t-52 112q0 105 82.5 174t214.5 69q71 0 138 -26t113 -72l-92 -100q-36 35 -84 54t-89 19
q-59 0 -95.5 -28.5t-36.5 -68.5q0 -24 26 -38t96 -31q117 -27 166.5 -65.5t49.5 -109.5q0 -108 -87.5 -176.5t-220.5 -68.5z" />
    <glyph glyph-name="sacute" unicode="&#x15b;" horiz-adv-x="503" 
d="M206 575l148 156l130 -24l-175 -132h-103zM210 -12q-65 0 -124.5 22t-100.5 59l77 93q63 -53 152 -53q42 0 68 14t26 36q0 27 -74 47q-39 11 -58 17t-45 17.5t-38 24t-21 32.5t-9 46q0 80 66 133t165 53q105 0 198 -67l-74 -100q-59 45 -127 45q-37 0 -62 -13t-25 -33
q0 -12 15.5 -21.5t61.5 -23.5l55 -17t44.5 -18t37.5 -25t21 -33.5t9 -47.5q0 -81 -67 -134t-171 -53z" />
    <glyph glyph-name="Scedilla" unicode="&#x15e;" horiz-adv-x="634" 
d="M369 408q117 -27 166.5 -65.5t49.5 -109.5q0 -102 -78.5 -169t-201.5 -75l-21 -33q27 -2 43 -19t16 -43q0 -42 -33 -66.5t-83 -24.5q-54 0 -95 33l31 50q19 -19 51 -19q27 0 43.5 10t16.5 26q0 21 -19 21q-20 0 -38 -13l-21 25l33 55q-149 17 -238 114l99 95
q39 -41 92.5 -64t105.5 -23q67 0 107 29t40 70q0 23 -25 36.5t-96 31.5q-114 28 -166 64t-52 112q0 105 82.5 174t214.5 69q71 0 138 -26t113 -72l-92 -100q-36 35 -84 54t-89 19q-59 0 -95.5 -28.5t-36.5 -68.5q0 -24 26 -38t96 -31z" />
    <glyph glyph-name="scedilla" unicode="&#x15f;" horiz-adv-x="503" 
d="M281 316l55 -17t44.5 -18t37.5 -25t21 -33.5t9 -47.5q0 -76 -58.5 -127t-152.5 -59l-21 -33q27 -2 43 -19t16 -43q0 -42 -33 -66.5t-83 -24.5q-54 0 -95 33l31 50q19 -19 51 -19q27 0 43.5 10t16.5 26q0 21 -19 21q-20 0 -38 -13l-21 25l33 55q-107 16 -176 78l77 93
q63 -53 152 -53q42 0 68 14t26 36q0 27 -74 47q-39 11 -58 17t-45 17.5t-38 24t-21 32.5t-9 46q0 80 66 133t165 53q105 0 198 -67l-74 -100q-59 45 -127 45q-37 0 -62 -13t-25 -33q0 -12 15.5 -21.5t61.5 -23.5z" />
    <glyph glyph-name="Scaron" unicode="&#x160;" horiz-adv-x="634" 
d="M345 745l-74 147h87l57 -75l94 75h94l-137 -147h-121zM277 -12q-83 0 -160 31.5t-126 85.5l99 95q39 -41 92.5 -64t105.5 -23q67 0 107 29t40 70q0 23 -25 36.5t-96 31.5q-114 28 -166 64t-52 112q0 105 82.5 174t214.5 69q71 0 138 -26t113 -72l-92 -100q-36 35 -84 54
t-89 19q-59 0 -95.5 -28.5t-36.5 -68.5q0 -24 26 -38t96 -31q117 -27 166.5 -65.5t49.5 -109.5q0 -108 -87.5 -176.5t-220.5 -68.5z" />
    <glyph glyph-name="scaron" unicode="&#x161;" horiz-adv-x="503" 
d="M259 575l-74 147h87l57 -75l94 75h94l-137 -147h-121zM210 -12q-65 0 -124.5 22t-100.5 59l77 93q63 -53 152 -53q42 0 68 14t26 36q0 27 -74 47q-39 11 -58 17t-45 17.5t-38 24t-21 32.5t-9 46q0 80 66 133t165 53q105 0 198 -67l-74 -100q-59 45 -127 45q-37 0 -62 -13
t-25 -33q0 -12 15.5 -21.5t61.5 -23.5l55 -17t44.5 -18t37.5 -25t21 -33.5t9 -47.5q0 -81 -67 -134t-171 -53z" />
    <glyph glyph-name="uni0162" unicode="&#x162;" horiz-adv-x="639" 
d="M121 687h576l-28 -133h-214l-115 -554h-34l-28 -44q27 -2 43 -19t16 -43q0 -42 -33 -66.5t-83 -24.5q-54 0 -95 33l31 50q19 -19 51 -19q27 0 43.5 10t16.5 26q0 21 -19 21q-20 0 -38 -13l-21 25l38 64h-36l115 554h-214z" />
    <glyph glyph-name="uni0163" unicode="&#x163;" horiz-adv-x="401" 
d="M379 399h-112q-51 -242 -51 -254q0 -34 31 -34q37 0 59 22l21 -104q-29 -21 -64 -32l-26 -41q27 -2 43 -19t16 -43q0 -42 -33 -66.5t-83 -24.5q-54 0 -95 33l31 50q19 -19 51 -19q27 0 43.5 10t16.5 26q0 21 -19 21q-20 0 -38 -13l-21 25l32 53q-50 7 -80 41.5t-30 85.5
q0 23 55 283h-71l25 118h71l30 142h140l-30 -142h112z" />
    <glyph glyph-name="Tcaron" unicode="&#x164;" horiz-adv-x="639" 
d="M363 745l-74 147h87l57 -75l94 75h94l-137 -147h-121zM192 0l115 554h-214l28 133h576l-28 -133h-214l-115 -554h-148z" />
    <glyph glyph-name="tcaron" unicode="&#x165;" horiz-adv-x="401" 
d="M569 699q30 0 47 -21t17 -56q0 -80 -110 -170l-41 38q44 33 69 75q-27 -1 -41 15.5t-14 43.5q0 30 22 52.5t51 22.5zM321 659l-30 -142h112l-24 -118h-112q-51 -242 -51 -254q0 -34 31 -34q37 0 59 22l21 -104q-55 -41 -124 -41q-59 0 -95.5 35.5t-36.5 92.5q0 23 55 283
h-71l25 118h71l30 142h140z" />
    <glyph glyph-name="Umacron" unicode="&#x16a;" horiz-adv-x="755" 
d="M307 751l18 86h345l-18 -86h-345zM329 -12q-140 0 -211 89t-43 226l80 384h148l-81 -390q-16 -78 17.5 -126.5t102.5 -48.5q74 0 133 53.5t76 133.5l79 378h147l-82 -396q-28 -135 -129.5 -219t-236.5 -84z" />
    <glyph glyph-name="umacron" unicode="&#x16b;" 
d="M563 667l-18 -86h-345l18 86h345zM460 517h146l-108 -517h-146l12 56q-63 -68 -159 -68q-75 0 -119 43.5t-44 114.5q0 7 0.5 12.5t1.5 14.5t2.5 17.5l4.5 25t6.5 32.5l9.5 45l12 57.5l16 74.5t19 92h141q-67 -316 -67 -335q0 -34 19 -52.5t51 -18.5q49 0 90 31.5t49 74.5
v-1z" />
    <glyph glyph-name="Uring" unicode="&#x16e;" horiz-adv-x="755" 
d="M479 751q-41 0 -67 25.5t-26 64.5q0 55 43.5 96t96.5 41q41 0 67 -25.5t26 -64.5q0 -54 -43 -95.5t-97 -41.5zM492 811q24 0 44 19.5t20 44.5q0 18 -11.5 30t-30.5 12q-25 0 -45.5 -19t-20.5 -43q0 -19 12.5 -31.5t31.5 -12.5zM329 -12q-140 0 -211 89t-43 226l80 384
h148l-81 -390q-16 -78 17.5 -126.5t102.5 -48.5q74 0 133 53.5t76 133.5l79 378h147l-82 -396q-28 -135 -129.5 -219t-236.5 -84z" />
    <glyph glyph-name="uring" unicode="&#x16f;" 
d="M372 581q-41 0 -67 25.5t-26 64.5q0 55 43.5 96t96.5 41q41 0 67 -25.5t26 -64.5q0 -54 -43 -95.5t-97 -41.5zM407 747q-25 0 -45.5 -19t-20.5 -43q0 -19 12.5 -31.5t31.5 -12.5q24 0 44 19.5t20 44.5q0 18 -11.5 30t-30.5 12zM460 517h146l-108 -517h-146l12 56
q-63 -68 -159 -68q-75 0 -119 43.5t-44 114.5q0 7 0.5 12.5t1.5 14.5t2.5 17.5l4.5 25t6.5 32.5l9.5 45l12 57.5l16 74.5t19 92h141q-67 -316 -67 -335q0 -34 19 -52.5t51 -18.5q49 0 90 31.5t49 74.5v-1z" />
    <glyph glyph-name="Uhungarumlaut" unicode="&#x170;" horiz-adv-x="755" 
d="M235 745l148 156l130 -24l-175 -132h-103zM470 745l148 155l130 -24l-176 -131h-102zM329 -12q-140 0 -211 89t-43 226l80 384h148l-81 -390q-16 -78 17.5 -126.5t102.5 -48.5q74 0 133 53.5t76 133.5l79 378h147l-82 -396q-28 -135 -129.5 -219t-236.5 -84z" />
    <glyph glyph-name="uhungarumlaut" unicode="&#x171;" 
d="M406 707l-175 -132h-103l148 156zM465 575h-102l148 155l130 -24zM397 216l63 301h146l-108 -517h-146l12 56q-63 -68 -159 -68q-75 0 -119 43.5t-44 114.5q0 7 0.5 12.5t1.5 14.5t2.5 17.5l4.5 25t6.5 32.5l9.5 45l12 57.5l16 74.5t19 92h141q-67 -316 -67 -335
q0 -34 19 -52.5t51 -18.5q49 0 90 31.5t49 74.5v-1z" />
    <glyph glyph-name="Uogonek" unicode="&#x172;" horiz-adv-x="755" 
d="M630 687h147l-82 -396q-28 -135 -129.5 -219t-236.5 -84q-14 0 -21 1q-25 -18 -25 -47q0 -27 29 -27q30 0 48 18l18 -77q-38 -29 -89 -29q-45 0 -71.5 25t-26.5 69q0 50 32 84q-90 31 -130 110.5t-18 187.5l80 384h148l-81 -390q-16 -78 17.5 -126.5t102.5 -48.5
q74 0 133 53.5t76 133.5z" />
    <glyph glyph-name="uogonek" unicode="&#x173;" 
d="M463 -85q30 0 48 18l18 -77q-38 -29 -89 -29q-45 0 -71.5 25t-26.5 69t27 79h-17l12 56q-63 -68 -159 -68q-75 0 -119 43.5t-44 114.5q0 7 0.5 12.5t1.5 14.5t2.5 17.5l4.5 25t6.5 32.5l9.5 45l12 57.5l16 74.5t19 92h141q-67 -316 -67 -335q0 -34 19 -52.5t51 -18.5
q49 0 90 31.5t49 74.5v-1l63 301h146l-108 -517h-1q-26 0 -44.5 -16.5t-18.5 -41.5q0 -27 29 -27z" />
    <glyph glyph-name="Wcircumflex" unicode="&#x174;" horiz-adv-x="1078" 
d="M472 745l136 147h121l75 -147h-87l-59 74l-92 -74h-94zM174 0l-65 687h158l29 -461l250 461h160l55 -461l224 461h162l-351 -687h-148l-62 472l-263 -472h-149z" />
    <glyph glyph-name="wcircumflex" unicode="&#x175;" horiz-adv-x="841" 
d="M318 575l136 147h121l75 -147h-87l-59 74l-92 -74h-94zM140 0l-68 517h140l30 -322l170 322h121l34 -322l165 322h147l-284 -517h-131l-27 325l-166 -325h-131z" />
    <glyph glyph-name="Ycircumflex" unicode="&#x176;" horiz-adv-x="694" 
d="M266 745l136 147h121l75 -147h-87l-59 74l-92 -74h-94zM217 0l54 248l-178 439h139l128 -312l250 312h169l-359 -439l-54 -248h-149z" />
    <glyph glyph-name="ycircumflex" unicode="&#x177;" horiz-adv-x="601" 
d="M198 575l136 147h121l75 -147h-87l-59 74l-92 -74h-94zM96 -180q-70 0 -126 35l43 94q32 -20 61 -20q20 0 41 9.5t31 24.5l28 32l-105 522h148l59 -363l206 363h152l-326 -548q-88 -149 -212 -149z" />
    <glyph glyph-name="Ydieresis" unicode="&#x178;" horiz-adv-x="694" 
d="M339 754q-29 0 -47 18.5t-18 46.5q0 32 22.5 53.5t52.5 21.5q28 0 46 -19t18 -47q0 -30 -22.5 -52t-51.5 -22zM551 754q-29 0 -47 19t-18 47q0 31 22.5 52.5t52.5 21.5q28 0 46 -19t18 -46q0 -31 -22.5 -53t-51.5 -22zM217 0l54 248l-178 439h139l128 -312l250 312h169
l-359 -439l-54 -248h-149z" />
    <glyph glyph-name="Zacute" unicode="&#x179;" horiz-adv-x="656" 
d="M324 745l148 156l130 -24l-175 -132h-103zM-4 0l20 112l454 442h-352l27 133h556l-21 -112l-452 -442h363l-28 -133h-567z" />
    <glyph glyph-name="zacute" unicode="&#x17a;" horiz-adv-x="534" 
d="M230 575l148 156l130 -24l-175 -132h-103zM-10 0l19 103l320 290h-251l26 124h443l-21 -103l-320 -290h261l-26 -124h-451z" />
    <glyph glyph-name="Zdotaccent" unicode="&#x17b;" horiz-adv-x="656" 
d="M446 754q-29 0 -47 18.5t-18 46.5q0 32 22.5 53.5t52.5 21.5q28 0 46 -19t18 -47q0 -30 -22.5 -52t-51.5 -22zM-4 0l20 112l454 442h-352l27 133h556l-21 -112l-452 -442h363l-28 -133h-567z" />
    <glyph glyph-name="zdotaccent" unicode="&#x17c;" horiz-adv-x="534" 
d="M352 584q-29 0 -47 18.5t-18 46.5q0 32 22.5 53.5t52.5 21.5q28 0 46 -19t18 -47q0 -30 -22.5 -52t-51.5 -22zM-10 0l19 103l320 290h-251l26 124h443l-21 -103l-320 -290h261l-26 -124h-451z" />
    <glyph glyph-name="Zcaron" unicode="&#x17d;" horiz-adv-x="656" 
d="M377 745l-74 147h87l57 -75l94 75h94l-137 -147h-121zM-4 0l20 112l454 442h-352l27 133h556l-21 -112l-452 -442h363l-28 -133h-567z" />
    <glyph glyph-name="zcaron" unicode="&#x17e;" horiz-adv-x="534" 
d="M283 575l-74 147h87l57 -75l94 75h94l-137 -147h-121zM-10 0l19 103l320 290h-251l26 124h443l-21 -103l-320 -290h261l-26 -124h-451z" />
    <glyph glyph-name="uni0237" unicode="&#x237;" horiz-adv-x="272" 
d="M-33 -178q-60 0 -104 23l29 104q14 -7 47 -7q24 0 45.5 19t26.5 45l106 511h146l-112 -538q-15 -71 -65.5 -114t-118.5 -43z" />
    <glyph glyph-name="circumflex" unicode="&#x2c6;" horiz-adv-x="458" 
d="M129 575l136 147h121l75 -147h-87l-59 74l-92 -74h-94z" />
    <glyph glyph-name="caron" unicode="&#x2c7;" horiz-adv-x="458" 
d="M234 575l-74 147h87l57 -75l94 75h94l-137 -147h-121z" />
    <glyph glyph-name="breve" unicode="&#x2d8;" horiz-adv-x="448" 
d="M293 581q-93 0 -149 67l75 62q34 -42 88 -42q55 0 108 43l51 -65q-78 -65 -173 -65z" />
    <glyph glyph-name="dotaccent" unicode="&#x2d9;" horiz-adv-x="267" 
d="M211 584q-29 0 -47 18.5t-18 46.5q0 32 22.5 53.5t52.5 21.5q28 0 46 -19t18 -47q0 -30 -22.5 -52t-51.5 -22z" />
    <glyph glyph-name="ring" unicode="&#x2da;" horiz-adv-x="354" 
d="M244 581q-41 0 -67 25.5t-26 64.5q0 55 43.5 96t96.5 41q41 0 67 -25.5t26 -64.5q0 -54 -43 -95.5t-97 -41.5zM257 641q24 0 44 19.5t20 44.5q0 18 -11.5 30t-30.5 12q-25 0 -45.5 -19t-20.5 -43q0 -19 12.5 -31.5t31.5 -12.5z" />
    <glyph glyph-name="ogonek" unicode="&#x2db;" horiz-adv-x="330" 
d="M94 -173q-45 0 -71.5 25t-26.5 69q0 76 68 112l87 -33q-26 0 -44.5 -16.5t-18.5 -41.5q0 -27 29 -27q30 0 48 18l18 -77q-38 -29 -89 -29z" />
    <glyph glyph-name="tilde" unicode="&#x2dc;" horiz-adv-x="416" 
d="M351 573q-35 0 -73.5 25.5t-48.5 25.5q-39 0 -62 -58l-70 21q22 66 52.5 96.5t75.5 30.5q35 0 73.5 -25.5t47.5 -25.5q40 0 63 58l70 -22q-22 -66 -52.5 -96t-75.5 -30z" />
    <glyph glyph-name="hungarumlaut" unicode="&#x2dd;" horiz-adv-x="611" 
d="M129 575l148 156l130 -24l-175 -132h-103zM364 575l148 155l130 -24l-176 -131h-102z" />
    <glyph glyph-name="uni0326" unicode="&#x326;" horiz-adv-x="0" 
d="M-265 -294l-41 38q44 33 69 75q-27 -1 -41 15.5t-14 43.5q0 30 22 52.5t51 22.5q30 0 47 -21t17 -56q0 -80 -110 -170z" />
    <glyph glyph-name="Wgrave" unicode="&#x1e80;" horiz-adv-x="1078" 
d="M586 745l-121 132l133 24l83 -156h-95zM174 0l-65 687h158l29 -461l250 461h160l55 -461l224 461h162l-351 -687h-148l-62 472l-263 -472h-149z" />
    <glyph glyph-name="wgrave" unicode="&#x1e81;" horiz-adv-x="841" 
d="M431 575l-121 132l133 24l83 -156h-95zM140 0l-68 517h140l30 -322l170 322h121l34 -322l165 322h147l-284 -517h-131l-27 325l-166 -325h-131z" />
    <glyph glyph-name="Wacute" unicode="&#x1e82;" horiz-adv-x="1078" 
d="M591 745l148 156l130 -24l-175 -132h-103zM174 0l-65 687h158l29 -461l250 461h160l55 -461l224 461h162l-351 -687h-148l-62 472l-263 -472h-149z" />
    <glyph glyph-name="wacute" unicode="&#x1e83;" horiz-adv-x="841" 
d="M434 575l148 156l130 -24l-175 -132h-103zM140 0l-68 517h140l30 -322l170 322h121l34 -322l165 322h147l-284 -517h-131l-27 325l-166 -325h-131z" />
    <glyph glyph-name="Wdieresis" unicode="&#x1e84;" horiz-adv-x="1078" 
d="M545 754q-29 0 -47 18.5t-18 46.5q0 32 22.5 53.5t52.5 21.5q28 0 46 -19t18 -47q0 -30 -22.5 -52t-51.5 -22zM757 754q-29 0 -47 19t-18 47q0 31 22.5 52.5t52.5 21.5q28 0 46 -19t18 -46q0 -31 -22.5 -53t-51.5 -22zM174 0l-65 687h158l29 -461l250 461h160l55 -461
l224 461h162l-351 -687h-148l-62 472l-263 -472h-149z" />
    <glyph glyph-name="wdieresis" unicode="&#x1e85;" horiz-adv-x="841" 
d="M391 584q-29 0 -47 18.5t-18 46.5q0 32 22.5 53.5t52.5 21.5q28 0 46 -19t18 -47q0 -30 -22.5 -52t-51.5 -22zM603 584q-29 0 -47 19t-18 47q0 31 22.5 52.5t52.5 21.5q28 0 46 -19t18 -46q0 -31 -22.5 -53t-51.5 -22zM140 0l-68 517h140l30 -322l170 322h121l34 -322
l165 322h147l-284 -517h-131l-27 325l-166 -325h-131z" />
    <glyph glyph-name="uni1EB8" unicode="&#x1eb8;" horiz-adv-x="641" 
d="M658 554h-381l-27 -137h344l-28 -133h-346l-29 -151h380l-28 -133h-529l143 687h529zM259 -45q28 0 46 -19t18 -47q0 -30 -22.5 -52t-51.5 -22t-47 18.5t-18 46.5q0 32 22.5 53.5t52.5 21.5z" />
    <glyph glyph-name="uni1EB9" unicode="&#x1eb9;" horiz-adv-x="600" 
d="M293 211h-125v-5q0 -89 94 -89q78 0 140 51l80 -104q-87 -76 -223 -76q-103 0 -165 60t-62 157q0 134 94 229t224 95q86 0 140.5 -39.5t54.5 -101.5q0 -86 -66.5 -133t-185.5 -44zM344 401q-99 0 -148 -85h116q43 0 66.5 12t23.5 33q0 17 -16.5 28.5t-41.5 11.5zM206 -71
q28 0 46 -19t18 -47q0 -30 -22.5 -52t-51.5 -22t-47 18.5t-18 46.5q0 32 22.5 53.5t52.5 21.5z" />
    <glyph glyph-name="uni1EBC" unicode="&#x1ebc;" horiz-adv-x="641" 
d="M389 794q-39 0 -62 -58l-70 21q22 66 52.5 96.5t75.5 30.5q35 0 73.5 -25.5t47.5 -25.5q40 0 63 58l70 -22q-22 -66 -52.5 -96t-75.5 -30q-35 0 -73.5 25.5t-48.5 25.5zM658 554h-381l-27 -137h344l-28 -133h-346l-29 -151h380l-28 -133h-529l143 687h529z" />
    <glyph glyph-name="uni1EBD" unicode="&#x1ebd;" horiz-adv-x="563" 
d="M317 624q-39 0 -62 -58l-70 21q22 66 52.5 96.5t75.5 30.5q35 0 73.5 -25.5t47.5 -25.5q40 0 63 58l70 -22q-22 -66 -52.5 -96t-75.5 -30q-35 0 -73.5 25.5t-48.5 25.5zM350 529q86 0 140.5 -39.5t54.5 -101.5q0 -86 -66.5 -133t-185.5 -44h-125v-5q0 -89 94 -89
q78 0 140 51l80 -104q-87 -76 -223 -76q-103 0 -165 60t-62 157q0 134 94 229t224 95zM312 316q43 0 66.5 12t23.5 33q0 17 -16.5 28.5t-41.5 11.5q-99 0 -148 -85h116z" />
    <glyph glyph-name="Ygrave" unicode="&#x1ef2;" horiz-adv-x="694" 
d="M429 745l-121 132l133 24l83 -156h-95zM217 0l54 248l-178 439h139l128 -312l250 312h169l-359 -439l-54 -248h-149z" />
    <glyph glyph-name="ygrave" unicode="&#x1ef3;" horiz-adv-x="601" 
d="M361 575l-121 132l133 24l83 -156h-95zM96 -180q-70 0 -126 35l43 94q32 -20 61 -20q20 0 41 9.5t31 24.5l28 32l-105 522h148l59 -363l206 363h152l-326 -548q-88 -149 -212 -149z" />
    <glyph glyph-name="endash" unicode="&#x2013;" horiz-adv-x="572" 
d="M36 214l26 122h480l-25 -122h-481z" />
    <glyph glyph-name="emdash" unicode="&#x2014;" horiz-adv-x="877" 
d="M36 214l26 122h785l-25 -122h-786z" />
    <glyph glyph-name="quoteleft" unicode="&#x2018;" horiz-adv-x="293" 
d="M244 695l52 -48q-53 -39 -88 -95q31 0 52 -21t21 -54q0 -42 -30.5 -72t-68.5 -30t-59.5 27t-21.5 70q0 108 143 223z" />
    <glyph glyph-name="quoteright" unicode="&#x2019;" horiz-adv-x="293" 
d="M164 373l-52 48q53 39 88 95q-31 0 -52 21t-21 54q0 42 30.5 72t68.5 30t59.5 -27t21.5 -70q0 -107 -143 -223z" />
    <glyph glyph-name="quotedblleft" unicode="&#x201c;" horiz-adv-x="553" 
d="M242 690l52 -48q-53 -39 -88 -95q31 0 52 -21t21 -54q0 -42 -30.5 -72t-68.5 -30t-59.5 27t-21.5 70q0 107 143 223zM502 690l52 -48q-53 -39 -88 -95q31 0 52 -21t21 -54q0 -42 -30.5 -72t-68.5 -30t-59.5 27t-21.5 70q0 107 143 223z" />
    <glyph glyph-name="quotedblright" unicode="&#x201d;" horiz-adv-x="553" 
d="M164 373l-52 48q53 39 88 95q-31 0 -52 21t-21 54q0 42 30.5 72t68.5 30t59.5 -27t21.5 -70q0 -107 -143 -223zM424 373l-52 48q53 39 88 95q-31 0 -52 21t-21 54q0 42 30.5 72t68.5 30t59.5 -27t21.5 -70q0 -107 -143 -223z" />
    <glyph glyph-name="ellipsis" unicode="&#x2026;" horiz-adv-x="811" 
d="M99 -12q-36 0 -59 23.5t-23 58.5q0 42 30.5 71t71.5 29q34 0 56.5 -23.5t22.5 -57.5q0 -41 -30 -71t-69 -30zM359 -12q-36 0 -59 23.5t-23 58.5q0 42 30.5 71t71.5 29q34 0 56.5 -23.5t22.5 -57.5q0 -41 -30 -71t-69 -30zM619 -12q-36 0 -59 23.5t-23 58.5q0 42 30.5 71
t71.5 29q34 0 56.5 -23.5t22.5 -57.5q0 -41 -30 -71t-69 -30z" />
    <glyph glyph-name="perthousand" unicode="&#x2030;" horiz-adv-x="1225" 
d="M235 342q-67 0 -106.5 40.5t-39.5 103.5q0 84 58.5 146t141.5 62q69 0 108.5 -41t39.5 -104q0 -85 -59 -146t-143 -61zM71 0l621 687h110l-621 -687h-110zM235 428q43 0 74.5 39t31.5 85q0 25 -13.5 40t-36.5 15q-44 0 -75 -39t-31 -84q0 -26 13.5 -41t36.5 -15zM581 -11
q-68 0 -108 40.5t-40 104.5q0 83 59.5 145t142.5 62q68 0 107.5 -40.5t39.5 -104.5q0 -83 -59 -145t-142 -62zM970 -11q-68 0 -108 40.5t-40 104.5q0 83 59 145t143 62q68 0 107 -40.5t39 -104.5q0 -83 -59 -145t-141 -62zM580 76q44 0 75 39.5t31 84.5q0 25 -13.5 40
t-36.5 15q-44 0 -75 -39t-31 -85q0 -26 13.5 -40.5t36.5 -14.5zM968 76q44 0 75.5 39.5t31.5 84.5q0 25 -14 40t-37 15q-43 0 -74.5 -39t-31.5 -85q0 -26 13.5 -40.5t36.5 -14.5z" />
    <glyph glyph-name="Euro" unicode="&#x20ac;" horiz-adv-x="700" 
d="M373 122q41 0 91.5 23t87.5 59l92 -105q-56 -49 -136 -80t-150 -31q-111 0 -196.5 73t-102.5 182h-78l15 73h60q3 35 12 68h-58l15 73h71q53 107 160.5 174.5t230.5 67.5q75 0 143 -33t109 -85l-120 -89q-22 32 -60 52.5t-83 20.5q-61 0 -117 -29.5t-95 -78.5h239
l-15 -73h-266q-13 -36 -16 -68h268l-15 -73h-247q16 -54 61 -87.5t100 -33.5z" />
    <glyph glyph-name="minus" unicode="&#x2212;" horiz-adv-x="603" 
d="M63 274l25 119h483l-25 -119h-483z" />
    <glyph glyph-name="a.alt" horiz-adv-x="581" 
d="M341 529q90 0 143 -47t53 -125q0 -6 -0.5 -11.5t-1.5 -14t-2 -16t-4 -23.5t-6.5 -31t-9 -43t-11.5 -55.5l-15.5 -72.5l-18.5 -90h-141l9 45q-64 -57 -154 -57q-77 0 -124 38.5t-47 102.5q0 86 72.5 141t169.5 55q66 0 136 -30q7 36 7 48q0 69 -93 69q-65 0 -145 -39
l-38 102q120 54 221 54zM360 169l2 -3q2 11 6 29t4 20q-45 15 -99 15q-47 0 -85 -29t-38 -67q0 -21 18 -33t49 -12q47 0 88.5 22.5t54.5 57.5z" />
    <glyph glyph-name="aacute.alt" horiz-adv-x="581" 
d="M533 707l-175 -132h-103l148 156zM341 529q90 0 143 -47t53 -125q0 -6 -0.5 -11.5t-1.5 -14t-2 -16t-4 -23.5t-6.5 -31t-9 -43t-11.5 -55.5l-15.5 -72.5l-18.5 -90h-141l9 45q-64 -57 -154 -57q-77 0 -124 38.5t-47 102.5q0 86 72.5 141t169.5 55q66 0 136 -30q7 36 7 48
q0 69 -93 69q-65 0 -145 -39l-38 102q120 54 221 54zM360 169l2 -3q2 11 6 29t4 20q-45 15 -99 15q-47 0 -85 -29t-38 -67q0 -21 18 -33t49 -12q47 0 88.5 22.5t54.5 57.5z" />
    <glyph glyph-name="abreve.alt" horiz-adv-x="581" 
d="M370 581q-93 0 -149 67l75 62q34 -42 88 -42q55 0 108 43l51 -65q-78 -65 -173 -65zM341 529q90 0 143 -47t53 -125q0 -6 -0.5 -11.5t-1.5 -14t-2 -16t-4 -23.5t-6.5 -31t-9 -43t-11.5 -55.5l-15.5 -72.5l-18.5 -90h-141l9 45q-64 -57 -154 -57q-77 0 -124 38.5
t-47 102.5q0 86 72.5 141t169.5 55q66 0 136 -30q7 36 7 48q0 69 -93 69q-65 0 -145 -39l-38 102q120 54 221 54zM360 169l2 -3q2 11 6 29t4 20q-45 15 -99 15q-47 0 -85 -29t-38 -67q0 -21 18 -33t49 -12q47 0 88.5 22.5t54.5 57.5z" />
    <glyph glyph-name="acircumflex.alt" horiz-adv-x="581" 
d="M385 649l-92 -74h-94l136 147h121l75 -147h-87zM341 529q90 0 143 -47t53 -125q0 -6 -0.5 -11.5t-1.5 -14t-2 -16t-4 -23.5t-6.5 -31t-9 -43t-11.5 -55.5l-15.5 -72.5l-18.5 -90h-141l9 45q-64 -57 -154 -57q-77 0 -124 38.5t-47 102.5q0 86 72.5 141t169.5 55
q66 0 136 -30q7 36 7 48q0 69 -93 69q-65 0 -145 -39l-38 102q120 54 221 54zM360 169l2 -3q2 11 6 29t4 20q-45 15 -99 15q-47 0 -85 -29t-38 -67q0 -21 18 -33t49 -12q47 0 88.5 22.5t54.5 57.5z" />
    <glyph glyph-name="adieresis.alt" horiz-adv-x="581" 
d="M272 584q-29 0 -47 18.5t-18 46.5q0 32 22.5 53.5t52.5 21.5q28 0 46 -19t18 -47q0 -30 -22.5 -52t-51.5 -22zM484 584q-29 0 -47 19t-18 47q0 31 22.5 52.5t52.5 21.5q28 0 46 -19t18 -46q0 -31 -22.5 -53t-51.5 -22zM341 529q90 0 143 -47t53 -125q0 -6 -0.5 -11.5
t-1.5 -14t-2 -16t-4 -23.5t-6.5 -31t-9 -43t-11.5 -55.5l-15.5 -72.5l-18.5 -90h-141l9 45q-64 -57 -154 -57q-77 0 -124 38.5t-47 102.5q0 86 72.5 141t169.5 55q66 0 136 -30q7 36 7 48q0 69 -93 69q-65 0 -145 -39l-38 102q120 54 221 54zM360 169l2 -3q2 11 6 29t4 20
q-45 15 -99 15q-47 0 -85 -29t-38 -67q0 -21 18 -33t49 -12q47 0 88.5 22.5t54.5 57.5z" />
    <glyph glyph-name="agrave.alt" horiz-adv-x="581" 
d="M457 575h-95l-121 132l133 24zM341 529q90 0 143 -47t53 -125q0 -6 -0.5 -11.5t-1.5 -14t-2 -16t-4 -23.5t-6.5 -31t-9 -43t-11.5 -55.5l-15.5 -72.5l-18.5 -90h-141l9 45q-64 -57 -154 -57q-77 0 -124 38.5t-47 102.5q0 86 72.5 141t169.5 55q66 0 136 -30q7 36 7 48
q0 69 -93 69q-65 0 -145 -39l-38 102q120 54 221 54zM360 169l2 -3q2 11 6 29t4 20q-45 15 -99 15q-47 0 -85 -29t-38 -67q0 -21 18 -33t49 -12q47 0 88.5 22.5t54.5 57.5z" />
    <glyph glyph-name="amacron.alt" horiz-adv-x="581" 
d="M213 667h345l-18 -86h-345zM341 529q90 0 143 -47t53 -125q0 -6 -0.5 -11.5t-1.5 -14t-2 -16t-4 -23.5t-6.5 -31t-9 -43t-11.5 -55.5l-15.5 -72.5l-18.5 -90h-141l9 45q-64 -57 -154 -57q-77 0 -124 38.5t-47 102.5q0 86 72.5 141t169.5 55q66 0 136 -30q7 36 7 48
q0 69 -93 69q-65 0 -145 -39l-38 102q120 54 221 54zM360 169l2 -3q2 11 6 29t4 20q-45 15 -99 15q-47 0 -85 -29t-38 -67q0 -21 18 -33t49 -12q47 0 88.5 22.5t54.5 57.5z" />
    <glyph glyph-name="aogonek.alt" horiz-adv-x="581" 
d="M439 -85q30 0 48 18l18 -77q-38 -29 -89 -29q-45 0 -71.5 25t-26.5 69t27 79h-18l9 45q-64 -57 -154 -57q-77 0 -124 38.5t-47 102.5q0 86 72.5 141t169.5 55q66 0 136 -30q7 36 7 48q0 69 -93 69q-65 0 -145 -39l-38 102q120 54 221 54q90 0 143 -47t53 -125
q0 -6 -0.5 -11.5t-1.5 -14t-2 -16t-4 -23.5t-6.5 -31t-9 -43t-11.5 -55l-15.5 -71.5l-18.5 -89.5l5 -2q-26 0 -44.5 -16.5t-18.5 -41.5q0 -27 29 -27zM360 169l2 -3q2 11 6 29t4 20q-45 15 -99 15q-47 0 -85 -29t-38 -67q0 -21 18 -33t49 -12q47 0 88.5 22.5t54.5 57.5z" />
    <glyph glyph-name="aring.alt" horiz-adv-x="581" 
d="M367 581q-41 0 -67 25.5t-26 64.5q0 55 43.5 96t96.5 41q41 0 67 -25.5t26 -64.5q0 -54 -43 -95.5t-97 -41.5zM402 747q-25 0 -45.5 -19t-20.5 -43q0 -19 12.5 -31.5t31.5 -12.5q24 0 44 19.5t20 44.5q0 18 -11.5 30t-30.5 12zM341 529q90 0 143 -47t53 -125
q0 -6 -0.5 -11.5t-1.5 -14t-2 -16t-4 -23.5t-6.5 -31t-9 -43t-11.5 -55.5l-15.5 -72.5l-18.5 -90h-141l9 45q-64 -57 -154 -57q-77 0 -124 38.5t-47 102.5q0 86 72.5 141t169.5 55q66 0 136 -30q7 36 7 48q0 69 -93 69q-65 0 -145 -39l-38 102q120 54 221 54zM360 169l2 -3
q2 11 6 29t4 20q-45 15 -99 15q-47 0 -85 -29t-38 -67q0 -21 18 -33t49 -12q47 0 88.5 22.5t54.5 57.5z" />
    <glyph glyph-name="atilde.alt" horiz-adv-x="581" 
d="M321 624q-39 0 -62 -58l-70 21q22 66 52.5 96.5t75.5 30.5q35 0 73.5 -25.5t47.5 -25.5q40 0 63 58l70 -22q-22 -66 -52.5 -96t-75.5 -30q-35 0 -73.5 25.5t-48.5 25.5zM341 529q90 0 143 -47t53 -125q0 -6 -0.5 -11.5t-1.5 -14t-2 -16t-4 -23.5t-6.5 -31t-9 -43
t-11.5 -55.5l-15.5 -72.5l-18.5 -90h-141l9 45q-64 -57 -154 -57q-77 0 -124 38.5t-47 102.5q0 86 72.5 141t169.5 55q66 0 136 -30q7 36 7 48q0 69 -93 69q-65 0 -145 -39l-38 102q120 54 221 54zM360 169l2 -3q2 11 6 29t4 20q-45 15 -99 15q-47 0 -85 -29t-38 -67
q0 -21 18 -33t49 -12q47 0 88.5 22.5t54.5 57.5z" />
    <glyph glyph-name="ascender" horiz-adv-x="662" 
d="M11 0l145 699h146l-145 -699h-146z" />
    <glyph glyph-name="descender" horiz-adv-x="662" 
d="M-25 -172l143 689h146l-143 -689h-146z" />
    </font>
</defs>
</svg>
